<svg width="20" height="19" viewBox="0 0 20 19" fill="none" xmlns="http://www.w3.org/2000/svg">
<path d="M10.152 0.527999C11.336 0.527999 12.464 0.719999 13.536 1.104C14.624 1.472 15.592 2.04 16.44 2.808C17.304 3.56 17.984 4.512 18.48 5.664C18.976 6.816 19.224 8.16 19.224 9.696C19.224 9.952 19.2 10.312 19.152 10.776C19.12 11.24 19.04 11.736 18.912 12.264C18.784 12.792 18.584 13.296 18.312 13.776C18.04 14.24 17.664 14.624 17.184 14.928C16.72 15.232 16.136 15.384 15.432 15.384C14.84 15.384 14.376 15.28 14.04 15.072C13.72 14.88 13.48 14.64 13.32 14.352C13.176 14.064 13.088 13.784 13.056 13.512C12.528 14.008 11.912 14.4 11.208 14.688C10.504 14.96 9.76 15.096 8.976 15.096C7.776 15.096 6.856 14.784 6.216 14.16C5.592 13.52 5.28 12.696 5.28 11.688C5.28 10.792 5.496 10.08 5.928 9.552C6.376 9.024 6.944 8.648 7.632 8.424C8.32 8.2 9.032 8.088 9.768 8.088C10.392 8.088 10.92 8.152 11.352 8.28C11.8 8.392 12.136 8.496 12.36 8.592C12.36 7.824 12.176 7.2 11.808 6.72C11.456 6.24 10.752 6 9.696 6C9.04 6 8.448 6.096 7.92 6.288C7.392 6.464 6.944 6.712 6.576 7.032L5.904 5.04C7.088 4.24 8.48 3.84 10.08 3.84C11.168 3.84 12.016 4 12.624 4.32C13.248 4.64 13.696 5.056 13.968 5.568C14.256 6.08 14.432 6.632 14.496 7.224C14.576 7.816 14.616 8.376 14.616 8.904V10.872C14.616 11.352 14.632 11.808 14.664 12.24C14.712 12.672 14.816 13.032 14.976 13.32C15.152 13.592 15.424 13.728 15.792 13.728C16.208 13.728 16.536 13.576 16.776 13.272C17.032 12.952 17.224 12.568 17.352 12.12C17.48 11.656 17.568 11.2 17.616 10.752C17.664 10.288 17.688 9.904 17.688 9.6C17.688 8.144 17.368 6.848 16.728 5.712C16.104 4.56 15.216 3.656 14.064 3C12.928 2.328 11.584 1.992 10.032 1.992C8.512 1.992 7.184 2.32 6.048 2.976C4.928 3.616 4.056 4.504 3.432 5.64C2.808 6.76 2.496 8.048 2.496 9.504C2.496 10.88 2.784 12.144 3.36 13.296C3.952 14.432 4.784 15.336 5.856 16.008C6.944 16.696 8.232 17.04 9.72 17.04C10.52 17.04 11.2 16.944 11.76 16.752C12.32 16.576 12.896 16.368 13.488 16.128L13.92 17.544C13.248 17.864 12.544 18.104 11.808 18.264C11.088 18.424 10.376 18.504 9.672 18.504C8.472 18.504 7.344 18.288 6.288 17.856C5.232 17.44 4.304 16.832 3.504 16.032C2.704 15.232 2.08 14.28 1.632 13.176C1.184 12.072 0.96 10.832 0.96 9.456C0.96 8.016 1.208 6.744 1.704 5.64C2.2 4.52 2.872 3.584 3.72 2.832C4.584 2.08 5.568 1.512 6.672 1.128C7.776 0.727999 8.936 0.527999 10.152 0.527999ZM11.232 12.768C11.568 12.608 11.832 12.4 12.024 12.144C12.232 11.888 12.336 11.6 12.336 11.28V10.32C12.096 10.256 11.744 10.168 11.28 10.056C10.816 9.928 10.32 9.864 9.792 9.864C9.088 9.864 8.536 10.008 8.136 10.296C7.736 10.568 7.536 11.016 7.536 11.64C7.536 12.696 8.104 13.224 9.24 13.224C9.496 13.224 9.816 13.192 10.2 13.128C10.584 13.048 10.928 12.928 11.232 12.768Z" fill="#6C757D"/>
</svg>
