<svg width="500" height="247" viewBox="0 0 500 247" fill="none" xmlns="http://www.w3.org/2000/svg">
<g clip-path="url(#clip0_709_803)">
<path d="M477.807 144.848L476.24 157.634L472.353 189.391H394.26C394.87 182.273 395.704 172.028 396.595 160.968C396.682 159.864 396.775 158.752 396.862 157.634C399.095 129.833 401.539 98.3726 401.539 98.3726L411.806 100.333L431.725 104.13L439.842 105.677L461.577 109.826C472.414 111.89 479.869 127.976 477.807 144.848V144.848Z" fill="#F2F2F2"/>
<path d="M418.737 46.9267L428.34 64.1545L409.882 77.5642L402.009 56.388L418.737 46.9267Z" fill="#FFB6B6"/>
<path d="M406.511 63.2249C419.65 63.2249 430.302 52.3056 430.302 38.836C430.302 25.3664 419.65 14.4471 406.511 14.4471C393.372 14.4471 382.72 25.3664 382.72 38.836C382.72 52.3056 393.372 63.2249 406.511 63.2249Z" fill="#FFB6B6"/>
<path d="M404.803 44.2883C402.913 41.341 403.655 39.7994 402.073 38.7163C402.073 38.7163 401.437 38.2804 396.882 38.0319C395.863 30.5079 394.59 29.5955 394.59 29.5954C393.122 28.5438 390.945 28.8855 389.591 29.5287C386.726 30.889 387.058 33.8274 385.129 34.3897C382.464 35.1664 377.616 30.7875 377.139 25.7746C376.749 21.6854 379.319 17.7139 380.338 17.924C381.349 18.1323 383.769 14.9656 385.075 15.0144C385.967 15.0478 389.613 13.4234 390.594 13.5504C391.665 13.6891 395.196 15.5782 395.343 15.1466C396.365 12.1474 396.065 11.3152 396.933 10.4572C398.47 8.93679 400.985 9.99556 404.931 10.564C413.049 11.7335 414.466 8.98927 418.627 10.8493C420.729 11.7889 422.487 14.3229 425.919 19.3525C430.717 26.3864 433.117 29.9034 433.132 34.0054C433.148 38.1887 431.172 37.9232 430.304 44.1162C429.338 51.0101 431.391 54.1624 429.148 56.4021C427.414 58.1331 423.891 58.544 422.04 57.0248C418.871 54.4238 423.018 48.1475 419.511 43.5621C417.358 40.7474 413.029 39.495 411.046 40.8863C408.803 42.4595 410.038 47.0771 408.461 47.515C407.111 47.89 405.132 44.8019 404.803 44.2883L404.803 44.2883Z" fill="#2F2E41"/>
<path d="M460.222 140.345C459.558 151.977 456.923 155.649 455.999 169.386C455.798 172.401 455.677 175.902 455.677 180.077C455.677 181.141 455.682 182.17 455.682 183.176C455.682 185.316 455.642 187.339 455.399 189.39C455.215 191.028 454.898 192.678 454.373 194.417H403.133C403.128 194.405 403.128 194.393 403.122 194.381C402.822 193.045 402.632 191.768 402.487 190.544C402.441 190.153 402.401 189.769 402.366 189.39C402.32 188.947 402.279 188.509 402.239 188.078C402.083 186.357 401.928 184.731 401.558 183.176C401.063 181.029 400.163 179.007 398.317 177.055C397.561 176.257 396.806 175.636 396.067 175.092C395.923 174.991 395.784 174.891 395.64 174.79C393.598 173.353 391.666 172.319 389.993 169.386C389.964 169.344 389.941 169.297 389.918 169.256C389.63 168.741 388.88 167.393 388.338 165.595C387.766 163.727 387.42 161.379 388.044 158.978C389.526 153.29 395.017 152.722 399.505 146.974C399.99 146.353 400.468 145.667 400.924 144.904C402.954 141.522 403.502 138.542 404.148 135C404.252 134.426 404.345 133.858 404.419 133.309C404.477 132.894 404.529 132.486 404.57 132.084C404.927 128.708 404.754 125.798 404.333 123.197C402.96 114.675 398.911 109.401 401.772 101.755C402.672 99.3543 403.947 97.5505 405.233 96.0072C407.955 92.737 410.753 90.6142 410.269 86.3923C409.778 82.1346 406.629 81.5491 406.277 77.8296C406.098 75.9493 406.698 73.9683 407.823 72.0228V72.017C411.422 65.7546 420.41 59.9891 426.12 60.1725C427.175 60.2022 428.11 60.4445 428.888 60.9116C431.709 62.6146 430.533 66.3341 434.853 71.5498C438.066 75.4229 441.7 76.9723 443.079 77.7054C448.541 80.6268 452.983 89.2424 455.999 100.259C456.022 100.342 456.046 100.424 456.069 100.513C457.932 107.414 459.247 115.249 459.899 123.197C460.176 126.561 460.337 129.944 460.372 133.291C460.401 135.963 460.343 138.282 460.222 140.345Z" fill="#809500"/>
<path d="M421.852 180.195L420.807 183.176L420.15 185.044L418.627 189.39L416.862 194.417H405.516L407.419 189.39L408.302 187.049L409.767 183.176L412.224 176.671L421.852 180.195Z" fill="#FFB6B6"/>
<path d="M456.179 99.2417C456.15 99.6263 456.109 100.052 456.069 100.513C455.619 105.208 454.557 113.611 453.006 123.197C452.187 128.252 451.229 133.64 450.151 138.991C447.832 150.54 444.948 161.911 441.689 169.386C441.106 170.734 440.506 171.952 439.894 173.028C439.427 173.85 438.937 174.66 438.424 175.459C436.762 178.078 434.899 180.562 432.967 182.88C432.892 182.98 432.805 183.075 432.719 183.176C432.408 183.554 432.084 183.927 431.761 184.299C430.181 186.126 428.566 187.829 427.003 189.39C425.099 191.295 423.264 192.98 421.621 194.417H403.197L403.122 194.381L400.469 193.175C400.469 193.175 401.224 192.264 402.487 190.544C402.747 190.194 403.024 189.81 403.324 189.39C403.693 188.876 404.091 188.308 404.518 187.693C405.406 186.404 406.415 184.89 407.5 183.176C409.6 179.858 411.993 175.778 414.41 171.053C414.688 170.503 414.97 169.947 415.253 169.386C415.258 169.368 415.27 169.35 415.276 169.332C415.754 168.374 416.228 167.387 416.7 166.382C420.709 157.831 421.857 150.735 422.186 148.435C422.648 145.182 423.288 140.635 423.115 135.632C422.999 132.333 422.532 128.844 421.419 125.379V125.373C421.188 124.646 420.928 123.918 420.634 123.197C420.109 121.902 419.486 120.624 418.748 119.365C415.489 113.818 412.842 113.588 410.736 107.544C410.113 105.752 408.7 101.708 409.132 97.4382V97.4324C409.185 96.9061 409.271 96.3739 409.386 95.8415V95.8357C409.415 95.6879 409.456 95.5343 409.496 95.3865C409.824 94.0796 410.367 92.7844 411.192 91.5544C412.801 89.1656 414.998 87.7462 416.966 86.9008L416.972 86.8947C419.244 85.9252 421.206 85.7181 421.586 85.6826C430.013 84.914 436.549 92.1754 440.12 96.1432C441.498 97.6747 442.762 98.9581 443.915 100.005C452.896 108.224 455.36 102.973 455.999 100.259C456.097 99.8391 456.15 99.4784 456.179 99.2417V99.2417Z" fill="#809500"/>
<path d="M456.207 98.9345C456.207 98.9639 456.202 99.0644 456.178 99.2301C456.19 99.1412 456.196 99.0526 456.202 98.9697C456.202 98.9521 456.202 98.9403 456.207 98.9345Z" fill="#809500"/>
<path d="M410.396 223.711H101.187C98.3146 223.711 95.9729 226.106 95.9729 229.051C95.9729 232.002 98.3146 234.397 101.187 234.397H410.396C413.268 234.397 415.605 232.002 415.605 229.051C415.605 226.106 413.268 223.711 410.396 223.711Z" fill="#E6E6E6"/>
<path d="M135.594 48.0604L155.082 39.653L163.44 57.2187L142.962 65.7874L135.594 48.0604Z" fill="#FFB6B6"/>
<path opacity="0.1" d="M135.594 48.0604L155.082 39.653L163.44 57.2187L142.962 65.7874L135.594 48.0604Z" fill="black"/>
<path d="M138.365 41.3667L157.589 64.0737C157.589 64.0737 144.216 107.345 130.842 111.201C117.469 115.057 92.811 133.908 92.811 133.908L61.8845 113.344L76.9298 90.6366C76.9298 90.6366 113.289 39.653 122.902 39.653C132.514 39.653 138.365 41.3667 138.365 41.3667V41.3667Z" fill="#809500"/>
<path d="M112.391 189.391H67.6393L64.81 185.513L53.2585 169.683L50.6005 166.041C50.6005 166.041 40.5703 147.19 42.6599 130.052C44.7496 112.915 66.4817 109.059 66.4817 109.059H67.376L93.9811 133.026L92.393 155.33L100.818 169.683L112.391 189.391Z" fill="#2F2E41"/>
<path d="M76.8045 189.391H64.8101V171.182L76.8045 189.391Z" fill="#2F2E41"/>
<path d="M335.509 161.748L334.017 169.683L330.314 189.391H255.927C256.508 184.973 257.302 178.615 258.151 171.752C258.234 171.066 258.322 170.377 258.406 169.683C260.533 152.43 262.861 132.906 262.861 132.906L272.64 134.123L291.614 136.479L299.345 137.439L320.049 140.014C330.372 141.295 337.473 151.277 335.508 161.748H335.509Z" fill="#F2F2F2"/>
<path d="M440.78 189.391H400.433C401.047 188.649 401.394 188.221 401.394 188.221L413.489 186.173L438.41 181.957C438.41 181.957 439.547 184.969 440.78 189.391V189.391Z" fill="#2F2E41"/>
<path d="M269.641 56.6296L287.187 82.0675L256.581 83.0045L253.296 59.0989L269.641 56.6296Z" fill="#A0616A"/>
<path opacity="0.1" d="M269.641 56.6296L287.187 82.0675L256.581 83.0045L253.296 59.0989L269.641 56.6296Z" fill="black"/>
<path d="M183.112 109.335C180.86 102.677 175.684 98.4713 171.551 99.9408C167.419 101.41 165.894 107.998 168.147 114.658C169.012 117.331 170.488 119.753 172.452 121.721L182.339 149.807L195.097 144.77L183.996 117.617C184.351 114.824 184.047 111.984 183.112 109.335Z" fill="#A0616A"/>
<path d="M301.881 96.3733L301.857 122.298L299.504 131.873L294.665 151.568L291.142 169.683L288.517 183.178L287.581 187.998C286.874 188.482 286.172 188.945 285.47 189.391H224.34C220.867 187.253 218.924 185.59 218.924 185.59C218.924 185.59 219.885 184.665 220.984 183.178C222.84 180.668 225.084 176.555 223.709 172.626C223.421 171.803 223.346 170.801 223.433 169.683C223.994 162.305 231.541 149.829 231.541 149.829L229.978 131.312L229.293 123.198L234.125 83.6314L249.877 74.2445L252.596 73.9748L279.44 72.4881L290.535 73.1436L291.04 73.285L301.881 96.3733V96.3733Z" fill="#CCCCCC"/>
<path d="M303.073 189.391H289.7L289.11 183.178L289.098 183.054L292.884 182.788L302.735 182.099L302.906 185.817L303.04 188.671L303.073 189.391Z" fill="#FFB6B6"/>
<path d="M306.366 102.641L311.984 136.432L307.399 169.683L306.684 174.858L305.422 183.997L305.033 186.807L305.046 187.111L305.142 189.391H289.261L288.676 183.178L288.626 182.621L287.43 169.897L287.41 169.683L284.873 142.7L289.846 123.198L290.214 121.762V121.758L292.378 88.3659L290.702 73.1908L290.685 73.0493C290.719 73.0708 290.748 73.0922 290.781 73.1136C290.869 73.1693 290.957 73.225 291.04 73.285C300.803 79.6344 306.621 90.7737 306.366 102.641Z" fill="#CCCCCC"/>
<path d="M239.815 90.1065L233.708 83.631C233.708 83.631 220.634 89.673 219.982 93.025C219.331 96.377 196.248 145.61 196.248 145.61L186.206 118.113L173.134 127.06C173.134 127.06 183.623 169.75 193.432 171.754C203.241 173.758 236.118 121.227 236.118 121.227L239.815 90.1065H239.815Z" fill="#CCCCCC"/>
<path d="M487.789 169.386H12.2058C5.47423 169.386 0 175.003 0 181.904C0 188.805 5.47423 194.417 12.2058 194.417H487.789C494.52 194.417 500 188.805 500 181.904C500 175.003 494.52 169.386 487.789 169.386Z" fill="#E6E6E6"/>
<path d="M299.098 131.24L298.173 175.473C298.084 179.755 294.672 183.178 290.494 183.178H211.121C207.042 183.178 203.675 179.91 203.452 175.734L201.093 131.501C200.853 126.99 204.356 123.198 208.762 123.198H291.419C295.725 123.198 299.19 126.826 299.098 131.24Z" fill="#3F3D56"/>
<path d="M170.963 58.7378C181.451 58.7378 189.953 50.0218 189.953 39.2701C189.953 28.5183 181.451 19.8023 170.963 19.8023C160.475 19.8023 151.973 28.5183 151.973 39.2701C151.973 50.0218 160.475 58.7378 170.963 58.7378Z" fill="#FFB6B6"/>
<path d="M139.201 90.2081L141.29 113.344L155.5 172.039L143.224 176.45L122.484 112.487L119.619 86.7807L139.201 90.2081Z" fill="#FFB6B6"/>
<path d="M133.548 131.24L132.624 175.473C132.534 179.755 129.123 183.178 124.945 183.178H45.572C41.493 183.178 38.1254 179.91 37.9027 175.734L35.5439 131.501C35.3034 126.99 38.8065 123.198 43.2132 123.198H125.87C130.176 123.198 133.641 126.826 133.548 131.24Z" fill="#3F3D56"/>
<path d="M157.762 183.477C166.045 183.477 172.76 180.433 172.76 176.677C172.76 172.921 166.045 169.877 157.762 169.877C149.48 169.877 142.765 172.921 142.765 176.677C142.765 180.433 149.48 183.477 157.762 183.477Z" fill="#FFB6B6"/>
<path d="M109.737 93.7452L118.305 46.9363C118.305 46.9363 142.126 43.5089 142.962 51.6491C143.798 59.7894 142.365 99.5718 142.365 99.5718L109.737 93.7453V93.7452Z" fill="#809500"/>
<path d="M163.297 42.3311C163.297 42.3311 175.044 38.033 180 35.7205C184.955 33.408 194.799 49.5378 195.018 41.0191C195.237 32.5004 191.836 28.928 191.836 28.928C191.836 28.928 190.986 10.2922 172.672 12.6221C172.672 12.6221 176.7 3.29835 163.477 1.85661C150.253 0.414864 129.681 33.1505 131.523 38.0426C133.365 42.9348 135.574 46.9793 130.347 52.2101C125.12 57.4409 115.332 86.9622 122.779 94.9062C130.226 102.85 130.715 106.297 125.612 111.239C120.51 116.182 108.449 126.928 121.49 128.793C134.53 130.659 120.297 129.265 130.018 120.499C139.74 111.733 153.926 112.091 148.629 98.0258C143.332 83.9608 152.535 63.8058 151.384 60.7482C150.232 57.6906 153.964 38.2747 153.964 38.2747C153.964 38.2747 162.648 36.9667 163.297 42.3311V42.3311Z" fill="#2F2E41"/>
<path d="M260.259 65.8369C271.676 65.8369 280.932 56.3489 280.932 44.6448C280.932 32.9408 271.676 23.4528 260.259 23.4528C248.842 23.4528 239.587 32.9408 239.587 44.6448C239.587 56.3489 248.842 65.8369 260.259 65.8369Z" fill="#A0616A"/>
<path d="M261.909 16.1537C261.311 16.5116 260.51 15.97 260.318 15.2878C260.126 14.6055 260.35 13.8811 260.571 13.2084L261.687 9.82171C262.478 7.41982 263.317 4.934 265.03 3.10585C267.616 0.346552 271.726 -0.3554 275.425 0.153139C280.176 0.806206 284.863 3.44334 287.072 7.80418C289.281 12.165 288.341 18.25 284.349 20.9707C290.038 27.6547 292.021 35.1039 291.708 43.9685C291.395 52.8331 281.971 60.9915 275.826 67.2363C274.454 66.3835 273.206 62.3868 273.961 60.9349C274.715 59.483 273.634 57.8009 274.569 56.4636C275.503 55.1262 276.285 57.2557 275.34 55.9259C274.744 55.0868 277.071 53.1564 276.185 52.6542C271.898 50.225 270.472 44.7474 267.78 40.5528C264.533 35.4933 258.975 32.0669 253.093 31.4985C249.852 31.1854 246.43 31.7525 243.774 33.6809C241.119 35.6092 239.399 39.0552 240.015 42.3313C238.42 40.6711 237.626 38.2381 237.926 35.9282C238.225 33.6183 239.611 31.4823 241.574 30.3068C240.381 26.2613 241.403 21.6077 244.173 18.4771C246.942 15.3465 258.178 15.8797 262.222 16.7037L261.909 16.1537Z" fill="#2F2E41"/>
<path d="M262.537 31.6213C267.893 32.214 271.76 36.9699 275.026 41.362C276.908 43.8936 278.879 46.6892 278.832 49.8718C278.784 53.0894 276.685 55.8493 275.683 58.8987C274.043 63.883 275.641 69.8131 279.543 73.2283C275.687 73.9785 271.519 71.0146 270.853 67.0494C270.078 62.4334 273.492 57.9783 273.087 53.3129C272.731 49.2026 269.572 46.0392 266.885 42.9659C264.199 39.8926 261.676 35.8145 262.912 31.8873L262.537 31.6213Z" fill="#2F2E41"/>
<path d="M342.605 172.064C337.3 175.157 334.557 180.471 336.478 183.931C338.399 187.392 344.255 187.689 349.562 184.594C351.698 183.388 353.521 181.674 354.879 179.597L377.195 166.2L370.839 155.599L349.515 169.931C347.078 170.066 344.709 170.798 342.605 172.064Z" fill="#FFB6B6"/>
<path d="M418.162 73.8224C417.495 73.5514 411.644 71.2798 406.302 74.279C400.165 77.7243 399.218 85.5891 398.885 88.3476C398.117 94.7198 400.38 96.148 400.857 102.599C401.751 114.668 404.107 100.9 400.344 106.409C399.042 108.316 385.741 137.866 378.405 143.655C364.138 154.912 355.078 162.84 355.078 162.84L365.421 174.358C365.421 174.358 381.765 169.893 396.21 160.278C411.028 150.414 418.437 145.483 424.168 135.835C424.662 135.004 436.473 114.443 430.13 91.7073C428.683 86.5213 426.032 77.0195 418.162 73.8224Z" fill="#809500"/>
<path d="M471.569 131.24L470.645 175.473C470.555 179.755 467.144 183.178 462.966 183.178H383.593C379.514 183.178 376.146 179.91 375.924 175.734L373.565 131.501C373.324 126.99 376.827 123.198 381.234 123.198H463.891C468.197 123.198 471.662 126.826 471.569 131.24Z" fill="#3F3D56"/>
</g>
<defs>
<clipPath id="clip0_709_803">
<rect width="500" height="262" fill="white"/>
</clipPath>
</defs>
</svg>
