<svg width="20" height="20" viewBox="0 0 20 20" fill="none" xmlns="http://www.w3.org/2000/svg">
<path d="M16.2558 12.075C16.8008 11.0515 17.085 9.90947 17.0833 8.74996C17.0833 4.83788 13.9121 1.66663 10 1.66663C6.08792 1.66663 2.91667 4.83788 2.91667 8.74996C2.9138 10.4209 3.50446 12.0386 4.58333 13.3145L4.59167 13.325C4.59458 13.3275 4.59708 13.3308 4.59917 13.3333H4.58333L8.78667 17.7958C8.94249 17.9612 9.13048 18.093 9.3391 18.1831C9.54772 18.2731 9.77256 18.3196 9.99979 18.3196C10.227 18.3196 10.4519 18.2731 10.6605 18.1831C10.8691 18.093 11.0571 17.9612 11.2129 17.7958L15.4167 13.3333H15.4008L15.4075 13.3254L15.4083 13.3245C15.4383 13.2887 15.4683 13.2529 15.4979 13.2162C15.7869 12.861 16.0409 12.4787 16.2563 12.0745L16.2558 12.075ZM10.0017 11.4583C9.33863 11.4583 8.70274 11.1949 8.2339 10.7261C7.76506 10.2572 7.50167 9.62133 7.50167 8.95829C7.50167 8.29525 7.76506 7.65937 8.2339 7.19053C8.70274 6.72168 9.33863 6.45829 10.0017 6.45829C10.6647 6.45829 11.3006 6.72168 11.7694 7.19053C12.2383 7.65937 12.5017 8.29525 12.5017 8.95829C12.5017 9.62133 12.2383 10.2572 11.7694 10.7261C11.3006 11.1949 10.6647 11.4583 10.0017 11.4583Z" fill="#6C757D"/>
</svg>
