<svg width="427" height="247" viewBox="0 0 427 247" fill="none" xmlns="http://www.w3.org/2000/svg">
<g clip-path="url(#clip0_708_473)">
<path d="M113.903 40.5402L119.442 49.7357L139.2 39.3299L149.359 36.0303C150.679 35.6016 151.87 34.8125 152.813 33.7417C153.755 32.671 154.417 31.3561 154.732 29.9286C155.046 28.5011 155.003 27.0108 154.605 25.6068C154.208 24.2027 153.471 22.9341 152.467 21.9276C150.98 20.4362 149.005 19.6168 146.96 19.6425C144.915 19.6682 142.96 20.5369 141.506 22.0653L132.981 31.0292L113.903 40.5402Z" fill="#E6EBAD"/>
<path d="M123.25 49.3071L115.865 37.0464L87.8657 50.1325C85.8551 51.0722 84.1071 52.5478 82.7913 54.4163C81.4755 56.2849 80.6365 58.4829 80.3556 60.7973C80.0093 63.651 80.5276 66.5477 81.8353 69.0674C83.143 71.5872 85.1721 73.599 87.6285 74.8112L132.263 96.134C135.344 97.6543 138.862 97.8347 142.066 96.6366C145.271 95.4385 147.907 92.9568 149.412 89.7218C150.222 87.9819 150.677 86.0804 150.749 84.1411C150.821 82.2017 150.508 80.268 149.83 78.4658C149.152 76.6636 148.124 75.0333 146.814 73.6809C145.503 72.3285 143.939 71.2844 142.224 70.6165L108.742 58.3039L123.25 49.3071Z" fill="#5F6730"/>
<path d="M418.762 257.451C418.762 253.768 417.598 250.779 416.168 250.773H26.4724C25.0365 250.779 23.8787 253.768 23.8722 257.451V409.058C23.8723 409.4 23.7525 409.73 23.5362 409.983C23.32 410.236 23.0227 410.395 22.7023 410.428C21.6564 410.535 20.6104 410.634 19.5645 410.726C19.5386 410.726 19.5127 410.733 19.4868 410.733C18.9177 410.788 18.3485 410.829 17.7793 410.877H17.7728C17.48 410.302 17.1906 409.722 16.9046 409.137C16.8079 408.94 16.7574 408.721 16.7573 408.498V248.787C16.7573 247.77 16.7961 246.746 16.8608 245.736C16.9531 244.349 17.1151 242.968 17.3459 241.6C18.439 235.216 20.9098 230.894 23.717 230.881H418.917C419.327 230.883 419.732 230.975 420.107 231.148C420.659 231.408 421.158 231.779 421.576 232.241C422.143 232.868 422.628 233.572 423.018 234.337C424.402 236.927 425.392 240.789 425.741 245.282C425.741 245.324 425.747 245.365 425.747 245.406C425.838 246.519 425.883 247.653 425.877 248.787L425.967 263.512L426.026 272.293L426.2 299.846L426.265 309.631L426.549 410.087C426.549 410.451 426.413 410.801 426.171 411.059C425.928 411.316 425.599 411.461 425.256 411.461H420.056C419.712 411.461 419.383 411.316 419.141 411.059C418.898 410.801 418.762 410.451 418.762 410.087V257.451Z" fill="#E6E6E6"/>
<path d="M229.99 295.469H178.576C177.198 295.468 175.877 294.886 174.903 293.851C173.929 292.815 173.38 291.412 173.379 289.948V239.975C173.38 238.511 173.929 237.108 174.903 236.073C175.877 235.038 177.198 234.456 178.576 234.454H229.99C231.368 234.456 232.689 235.038 233.664 236.073C234.638 237.108 235.186 238.511 235.188 239.975V289.948C235.186 291.412 234.638 292.815 233.664 293.851C232.689 294.886 231.368 295.468 229.99 295.469Z" fill="#3F3D56"/>
<path d="M226.376 290.868H182.19C180.966 290.866 179.793 290.349 178.928 289.43C178.063 288.511 177.577 287.265 177.575 285.966V243.958C177.577 242.658 178.063 241.412 178.928 240.493C179.793 239.574 180.966 239.057 182.19 239.056H226.376C227.6 239.057 228.772 239.574 229.638 240.493C230.503 241.412 230.989 242.658 230.991 243.958V285.966C230.989 287.265 230.503 288.511 229.638 289.43C228.772 290.349 227.6 290.866 226.376 290.868Z" fill="white"/>
<path d="M312.869 161.98H270.879C270.285 161.981 269.715 162.232 269.296 162.679C268.876 163.126 268.641 163.731 268.642 164.362V234.828H315.112V164.362C315.112 164.049 315.054 163.739 314.941 163.45C314.829 163.161 314.664 162.898 314.455 162.677C314.247 162.456 314 162.28 313.727 162.161C313.455 162.041 313.164 161.979 312.869 161.98ZM292.015 202.017C290.702 202.011 289.444 201.454 288.516 200.468C287.587 199.481 287.063 198.145 287.057 196.75V188.623C287.058 187.227 287.581 185.888 288.511 184.902C289.441 183.915 290.701 183.361 292.015 183.361C293.329 183.361 294.589 183.915 295.519 184.902C296.449 185.888 296.972 187.227 296.973 188.623V196.75C296.967 198.145 296.443 199.481 295.514 200.468C294.586 201.454 293.328 202.011 292.015 202.017Z" fill="#2F2E41"/>
<path d="M268.497 232.574V239.373C268.498 239.725 268.63 240.063 268.864 240.312C269.099 240.561 269.417 240.701 269.748 240.702H314.004C314.336 240.7 314.653 240.559 314.887 240.311C315.122 240.062 315.254 239.725 315.256 239.373V232.574H268.497Z" fill="#3F3D56"/>
<path d="M382.401 52.0095H202.909C201.367 52.0121 199.888 52.664 198.798 53.8224C197.707 54.9808 197.094 56.5512 197.091 58.1894V186.859C197.093 188.498 197.706 190.069 198.797 191.228C199.888 192.386 201.366 193.038 202.909 193.039H382.401C383.944 193.038 385.423 192.386 386.513 191.228C387.604 190.069 388.217 188.498 388.219 186.859V58.1894C388.216 56.5512 387.603 54.9808 386.512 53.8224C385.422 52.664 383.943 52.0121 382.401 52.0095Z" fill="#3F3D56"/>
<path d="M380.903 56.4731H204.408C203.582 56.475 202.791 56.8248 202.208 57.4457C201.625 58.0666 201.297 58.9079 201.297 59.785V185.266C201.298 186.142 201.627 186.982 202.21 187.601C202.793 188.221 203.583 188.569 204.408 188.571H380.903C381.727 188.569 382.518 188.221 383.101 187.601C383.684 186.982 384.012 186.142 384.014 185.266V59.785C384.014 58.9079 383.686 58.0666 383.103 57.4457C382.52 56.8248 381.728 56.475 380.903 56.4731Z" fill="white"/>
<path d="M346.525 243.068H241.52C241.233 243.068 240.949 242.999 240.689 242.868C240.43 242.737 240.201 242.546 240.02 242.308C239.839 242.071 239.71 241.794 239.642 241.498C239.575 241.201 239.571 240.892 239.63 240.593L241.259 232.372C241.352 231.912 241.59 231.5 241.934 231.204C242.277 230.907 242.706 230.745 243.149 230.743H344.896C345.338 230.745 345.767 230.907 346.111 231.204C346.455 231.5 346.693 231.912 346.786 232.372L348.415 240.593C348.474 240.892 348.47 241.201 348.402 241.497C348.335 241.794 348.206 242.071 348.025 242.308C347.844 242.546 347.615 242.737 347.355 242.868C347.096 242.999 346.812 243.068 346.525 243.068H346.525Z" fill="#2F2E41"/>
<path d="M246.813 232.223H244.21C244.036 232.223 243.895 232.374 243.895 232.559V233.949C243.895 234.134 244.036 234.285 244.21 234.285H246.813C246.987 234.285 247.129 234.134 247.129 233.949V232.559C247.129 232.374 246.987 232.223 246.813 232.223Z" fill="#3F3D56"/>
<path d="M253.281 232.223H250.679C250.504 232.223 250.363 232.374 250.363 232.559V233.949C250.363 234.134 250.504 234.285 250.679 234.285H253.281C253.455 234.285 253.597 234.134 253.597 233.949V232.559C253.597 232.374 253.455 232.223 253.281 232.223Z" fill="#3F3D56"/>
<path d="M259.749 232.223H257.147C256.972 232.223 256.831 232.374 256.831 232.559V233.949C256.831 234.134 256.972 234.285 257.147 234.285H259.749C259.924 234.285 260.065 234.134 260.065 233.949V232.559C260.065 232.374 259.924 232.223 259.749 232.223Z" fill="#3F3D56"/>
<path d="M266.217 232.223H263.615C263.44 232.223 263.299 232.374 263.299 232.559V233.949C263.299 234.134 263.44 234.285 263.615 234.285H266.217C266.391 234.285 266.533 234.134 266.533 233.949V232.559C266.533 232.374 266.391 232.223 266.217 232.223Z" fill="#3F3D56"/>
<path d="M272.685 232.223H270.083C269.908 232.223 269.767 232.374 269.767 232.559V233.949C269.767 234.134 269.908 234.285 270.083 234.285H272.685C272.86 234.285 273.001 234.134 273.001 233.949V232.559C273.001 232.374 272.86 232.223 272.685 232.223Z" fill="#3F3D56"/>
<path d="M279.154 232.223H276.551C276.377 232.223 276.235 232.374 276.235 232.559V233.949C276.235 234.134 276.377 234.285 276.551 234.285H279.154C279.328 234.285 279.469 234.134 279.469 233.949V232.559C279.469 232.374 279.328 232.223 279.154 232.223Z" fill="#3F3D56"/>
<path d="M285.621 232.223H283.019C282.844 232.223 282.703 232.374 282.703 232.559V233.949C282.703 234.134 282.844 234.285 283.019 234.285H285.621C285.796 234.285 285.937 234.134 285.937 233.949V232.559C285.937 232.374 285.796 232.223 285.621 232.223Z" fill="#3F3D56"/>
<path d="M292.09 232.223H289.487C289.313 232.223 289.171 232.374 289.171 232.559V233.949C289.171 234.134 289.313 234.285 289.487 234.285H292.09C292.264 234.285 292.405 234.134 292.405 233.949V232.559C292.405 232.374 292.264 232.223 292.09 232.223Z" fill="#3F3D56"/>
<path d="M298.558 232.223H295.955C295.781 232.223 295.64 232.374 295.64 232.559V233.949C295.64 234.134 295.781 234.285 295.955 234.285H298.558C298.732 234.285 298.874 234.134 298.874 233.949V232.559C298.874 232.374 298.732 232.223 298.558 232.223Z" fill="#3F3D56"/>
<path d="M305.026 232.223H302.423C302.249 232.223 302.107 232.374 302.107 232.559V233.949C302.107 234.134 302.249 234.285 302.423 234.285H305.026C305.2 234.285 305.341 234.134 305.341 233.949V232.559C305.341 232.374 305.2 232.223 305.026 232.223Z" fill="#3F3D56"/>
<path d="M311.494 232.223H308.891C308.717 232.223 308.576 232.374 308.576 232.559V233.949C308.576 234.134 308.717 234.285 308.891 234.285H311.494C311.668 234.285 311.81 234.134 311.81 233.949V232.559C311.81 232.374 311.668 232.223 311.494 232.223Z" fill="#3F3D56"/>
<path d="M317.962 232.223H315.36C315.185 232.223 315.044 232.374 315.044 232.559V233.949C315.044 234.134 315.185 234.285 315.36 234.285H317.962C318.137 234.285 318.278 234.134 318.278 233.949V232.559C318.278 232.374 318.137 232.223 317.962 232.223Z" fill="#3F3D56"/>
<path d="M324.43 232.223H321.827C321.653 232.223 321.512 232.374 321.512 232.559V233.949C321.512 234.134 321.653 234.285 321.827 234.285H324.43C324.604 234.285 324.746 234.134 324.746 233.949V232.559C324.746 232.374 324.604 232.223 324.43 232.223Z" fill="#3F3D56"/>
<path d="M330.898 232.223H328.296C328.121 232.223 327.98 232.374 327.98 232.559V233.949C327.98 234.134 328.121 234.285 328.296 234.285H330.898C331.073 234.285 331.214 234.134 331.214 233.949V232.559C331.214 232.374 331.073 232.223 330.898 232.223Z" fill="#3F3D56"/>
<path d="M337.367 232.223H334.764C334.59 232.223 334.448 232.374 334.448 232.559V233.949C334.448 234.134 334.59 234.285 334.764 234.285H337.367C337.541 234.285 337.682 234.134 337.682 233.949V232.559C337.682 232.374 337.541 232.223 337.367 232.223Z" fill="#3F3D56"/>
<path d="M343.834 232.223H341.232C341.057 232.223 340.916 232.374 340.916 232.559V233.949C340.916 234.134 341.057 234.285 341.232 234.285H343.834C344.009 234.285 344.15 234.134 344.15 233.949V232.559C344.15 232.374 344.009 232.223 343.834 232.223Z" fill="#3F3D56"/>
<path d="M246.737 235.659H244.134C243.96 235.659 243.818 235.809 243.818 235.994V237.385C243.818 237.57 243.96 237.72 244.134 237.72H246.737C246.911 237.72 247.052 237.57 247.052 237.385V235.994C247.052 235.809 246.911 235.659 246.737 235.659Z" fill="#3F3D56"/>
<path d="M253.204 235.659H250.602C250.428 235.659 250.286 235.809 250.286 235.994V237.385C250.286 237.57 250.428 237.72 250.602 237.72H253.204C253.379 237.72 253.52 237.57 253.52 237.385V235.994C253.52 235.809 253.379 235.659 253.204 235.659Z" fill="#3F3D56"/>
<path d="M259.673 235.659H257.071C256.896 235.659 256.755 235.809 256.755 235.994V237.385C256.755 237.57 256.896 237.72 257.071 237.72H259.673C259.848 237.72 259.989 237.57 259.989 237.385V235.994C259.989 235.809 259.848 235.659 259.673 235.659Z" fill="#3F3D56"/>
<path d="M266.141 235.659H263.538C263.364 235.659 263.223 235.809 263.223 235.994V237.385C263.223 237.57 263.364 237.72 263.538 237.72H266.141C266.315 237.72 266.457 237.57 266.457 237.385V235.994C266.457 235.809 266.315 235.659 266.141 235.659Z" fill="#3F3D56"/>
<path d="M272.609 235.659H270.006C269.832 235.659 269.69 235.809 269.69 235.994V237.385C269.69 237.57 269.832 237.72 270.006 237.72H272.609C272.783 237.72 272.924 237.57 272.924 237.385V235.994C272.924 235.809 272.783 235.659 272.609 235.659Z" fill="#3F3D56"/>
<path d="M279.077 235.659H276.475C276.301 235.659 276.159 235.809 276.159 235.994V237.385C276.159 237.57 276.301 237.72 276.475 237.72H279.077C279.252 237.72 279.393 237.57 279.393 237.385V235.994C279.393 235.809 279.252 235.659 279.077 235.659Z" fill="#3F3D56"/>
<path d="M285.545 235.659H282.943C282.768 235.659 282.627 235.809 282.627 235.994V237.385C282.627 237.57 282.768 237.72 282.943 237.72H285.545C285.72 237.72 285.861 237.57 285.861 237.385V235.994C285.861 235.809 285.72 235.659 285.545 235.659Z" fill="#3F3D56"/>
<path d="M292.013 235.659H289.41C289.236 235.659 289.095 235.809 289.095 235.994V237.385C289.095 237.57 289.236 237.72 289.41 237.72H292.013C292.187 237.72 292.329 237.57 292.329 237.385V235.994C292.329 235.809 292.187 235.659 292.013 235.659Z" fill="#3F3D56"/>
<path d="M298.481 235.659H295.879C295.704 235.659 295.563 235.809 295.563 235.994V237.385C295.563 237.57 295.704 237.72 295.879 237.72H298.481C298.656 237.72 298.797 237.57 298.797 237.385V235.994C298.797 235.809 298.656 235.659 298.481 235.659Z" fill="#3F3D56"/>
<path d="M304.95 235.659H302.347C302.173 235.659 302.031 235.809 302.031 235.994V237.385C302.031 237.57 302.173 237.72 302.347 237.72H304.95C305.124 237.72 305.265 237.57 305.265 237.385V235.994C305.265 235.809 305.124 235.659 304.95 235.659Z" fill="#3F3D56"/>
<path d="M311.417 235.659H308.815C308.64 235.659 308.499 235.809 308.499 235.994V237.385C308.499 237.57 308.64 237.72 308.815 237.72H311.417C311.592 237.72 311.733 237.57 311.733 237.385V235.994C311.733 235.809 311.592 235.659 311.417 235.659Z" fill="#3F3D56"/>
<path d="M317.886 235.659H315.283C315.109 235.659 314.967 235.809 314.967 235.994V237.385C314.967 237.57 315.109 237.72 315.283 237.72H317.886C318.06 237.72 318.201 237.57 318.201 237.385V235.994C318.201 235.809 318.06 235.659 317.886 235.659Z" fill="#3F3D56"/>
<path d="M324.354 235.659H321.751C321.577 235.659 321.436 235.809 321.436 235.994V237.385C321.436 237.57 321.577 237.72 321.751 237.72H324.354C324.528 237.72 324.67 237.57 324.67 237.385V235.994C324.67 235.809 324.528 235.659 324.354 235.659Z" fill="#3F3D56"/>
<path d="M330.822 235.659H328.219C328.045 235.659 327.903 235.809 327.903 235.994V237.385C327.903 237.57 328.045 237.72 328.219 237.72H330.822C330.996 237.72 331.137 237.57 331.137 237.385V235.994C331.137 235.809 330.996 235.659 330.822 235.659Z" fill="#3F3D56"/>
<path d="M337.29 235.659H334.687C334.513 235.659 334.372 235.809 334.372 235.994V237.385C334.372 237.57 334.513 237.72 334.687 237.72H337.29C337.464 237.72 337.606 237.57 337.606 237.385V235.994C337.606 235.809 337.464 235.659 337.29 235.659Z" fill="#3F3D56"/>
<path d="M343.758 235.659H341.156C340.981 235.659 340.84 235.809 340.84 235.994V237.385C340.84 237.57 340.981 237.72 341.156 237.72H343.758C343.932 237.72 344.074 237.57 344.074 237.385V235.994C344.074 235.809 343.932 235.659 343.758 235.659Z" fill="#3F3D56"/>
<path d="M300.422 239.782H275.181C275.007 239.782 274.865 239.932 274.865 240.117V241.507C274.865 241.693 275.007 241.843 275.181 241.843H300.422C300.596 241.843 300.738 241.693 300.738 241.507V240.117C300.738 239.932 300.596 239.782 300.422 239.782Z" fill="#3F3D56"/>
<path d="M372.031 73.7616H206.885C206.714 73.7575 206.551 73.6823 206.43 73.5519C206.31 73.4215 206.243 73.2463 206.243 73.0639C206.243 72.8815 206.31 72.7064 206.43 72.576C206.551 72.4456 206.714 72.3703 206.885 72.3663H372.031C372.202 72.3703 372.366 72.4456 372.486 72.576C372.606 72.7064 372.673 72.8815 372.673 73.0639C372.673 73.2463 372.606 73.4215 372.486 73.5519C372.366 73.6823 372.202 73.7575 372.031 73.7616Z" fill="#CACACA"/>
<path d="M218.127 68.8042C220.253 68.8042 221.976 66.9328 221.976 64.6244C221.976 62.316 220.253 60.4447 218.127 60.4447C216.001 60.4447 214.278 62.316 214.278 64.6244C214.278 66.9328 216.001 68.8042 218.127 68.8042Z" fill="#3F3D56"/>
<path d="M231.423 68.8042C233.549 68.8042 235.272 66.9328 235.272 64.6244C235.272 62.316 233.549 60.4447 231.423 60.4447C229.297 60.4447 227.574 62.316 227.574 64.6244C227.574 66.9328 229.297 68.8042 231.423 68.8042Z" fill="#3F3D56"/>
<path d="M244.719 68.8042C246.845 68.8042 248.568 66.9328 248.568 64.6244C248.568 62.316 246.845 60.4447 244.719 60.4447C242.593 60.4447 240.87 62.316 240.87 64.6244C240.87 66.9328 242.593 68.8042 244.719 68.8042Z" fill="#3F3D56"/>
<path d="M364.026 61.4807H354.581C354.394 61.4846 354.215 61.5664 354.084 61.7084C353.953 61.8505 353.88 62.0415 353.88 62.2404C353.88 62.4392 353.953 62.6302 354.084 62.7723C354.215 62.9143 354.394 62.9961 354.581 63H364.026C364.213 62.9961 364.391 62.9143 364.522 62.7723C364.653 62.6302 364.727 62.4392 364.727 62.2404C364.727 62.0415 364.653 61.8505 364.522 61.7084C364.391 61.5664 364.213 61.4846 364.026 61.4807Z" fill="#3F3D56"/>
<path d="M364.026 64.3323H354.581C354.394 64.3363 354.215 64.4181 354.084 64.5601C353.953 64.7022 353.88 64.8931 353.88 65.092C353.88 65.2909 353.953 65.4819 354.084 65.6239C354.215 65.766 354.394 65.8478 354.581 65.8517H364.026C364.213 65.8478 364.391 65.766 364.522 65.6239C364.653 65.4819 364.727 65.2909 364.727 65.092C364.727 64.8931 364.653 64.7022 364.522 64.5601C364.391 64.4181 364.213 64.3363 364.026 64.3323Z" fill="#3F3D56"/>
<path d="M364.026 67.1802H354.581C354.394 67.1842 354.215 67.266 354.084 67.408C353.953 67.5501 353.88 67.741 353.88 67.9399C353.88 68.1388 353.953 68.3298 354.084 68.4718C354.215 68.6139 354.394 68.6957 354.581 68.6996H364.026C364.213 68.6957 364.391 68.6139 364.522 68.4718C364.653 68.3298 364.727 68.1388 364.727 67.9399C364.727 67.741 364.653 67.5501 364.522 67.408C364.391 67.266 364.213 67.1842 364.026 67.1802Z" fill="#3F3D56"/>
<path d="M302.792 111.771H282.156C280.606 111.771 279.35 113.106 279.35 114.753C279.35 116.399 280.606 117.734 282.156 117.734H302.792C304.342 117.734 305.598 116.399 305.598 114.753C305.598 113.106 304.342 111.771 302.792 111.771Z" fill="#5F6730"/>
<path d="M316.123 123.697H268.826C267.276 123.697 266.019 125.032 266.019 126.678C266.019 128.325 267.276 129.66 268.826 129.66H316.123C317.673 129.66 318.929 128.325 318.929 126.678C318.929 125.032 317.673 123.697 316.123 123.697Z" fill="#E6E6E6"/>
<path d="M316.123 135.622H268.826C267.276 135.622 266.019 136.957 266.019 138.604C266.019 140.25 267.276 141.585 268.826 141.585H316.123C317.673 141.585 318.929 140.25 318.929 138.604C318.929 136.957 317.673 135.622 316.123 135.622Z" fill="#E6E6E6"/>
<path d="M223.767 181.377C223.771 183.833 223.359 186.27 222.551 188.571H204.408C203.583 188.569 202.793 188.221 202.21 187.601C201.627 186.982 201.298 186.142 201.297 185.266V161.025C202.311 160.85 203.336 160.763 204.363 160.763C206.911 160.763 209.434 161.296 211.789 162.332C214.143 163.368 216.282 164.886 218.084 166.801C219.886 168.715 221.315 170.987 222.29 173.488C223.265 175.989 223.767 178.67 223.767 181.377Z" fill="#E6E6E6"/>
<path d="M187.971 200.543C187.699 208.891 170.986 231.415 162.195 234.644C160.701 235.194 159.828 235.496 159.828 235.496L156.769 234.514L119.719 222.606C113.232 226.66 93.8795 228.721 78.0003 229.752C65.3616 230.57 54.9157 230.735 54.9157 230.735C51.1871 260.859 43.839 289.674 31.443 316.665L16.5664 313.917L30.6206 213.378C30.9241 211.207 31.8214 209.178 33.2011 207.545C34.5808 205.911 36.3821 204.743 38.381 204.188L139.48 176.095C139.48 176.095 145.055 175.023 156.814 181.049C176.173 190.971 188.165 194.469 187.971 200.543Z" fill="#2F2E41"/>
<path d="M168.652 198.928C172.043 206.464 167.018 234.644 160.628 241.823L158.931 243.048L158.358 243.366C154.524 257.141 113.386 297.431 113.386 297.431C127.281 316.236 135.942 339.356 141.467 365.061L129.123 371.119L83.8939 299.391C82.7093 297.513 82.0877 295.297 82.111 293.036C82.1343 290.775 82.8013 288.574 84.0244 286.723L102.476 258.802L132.542 196.935C154.026 196.231 166.182 193.446 168.652 198.928Z" fill="#2F2E41"/>
<path d="M186.931 203.475C121.996 192.984 116.08 183.55 115.444 183.719L114.881 183.867L124.289 166.975L127.739 162.645L125.085 160.629L126.138 152.258C126.96 148.867 127.625 144.873 127.27 144.338C126.538 143.477 124.909 141.912 124.893 141.896L124.684 141.695L127.129 135.633L130.404 87.1688L138.848 69.2859L156.277 58.31L171.638 58.5075L185.139 71.8096C190.87 74.7385 195.532 79.5945 198.401 85.6245C201.27 91.6546 202.186 98.5217 201.007 105.161L194.15 143.638L191.627 163.471L195.743 167.843L193.182 170.564L191.66 179.829L193.219 190.322C194.438 199.856 189.018 200.424 188.617 200.543C188.593 200.55 187.416 203.825 187.366 203.825C187.241 203.825 187.231 203.523 186.931 203.475Z" fill="#5F6730"/>
<path d="M183.522 241.73C184.263 240.96 184.837 240.028 185.203 238.997C185.568 237.967 185.716 236.864 185.637 235.766C185.558 234.668 185.253 233.602 184.744 232.642C184.235 231.683 183.534 230.854 182.691 230.214L189.814 204.539L177.291 208.601L172.447 232.36C171.528 233.936 171.185 235.816 171.484 237.642C171.783 239.469 172.701 241.116 174.067 242.271C175.432 243.426 177.148 244.008 178.891 243.909C180.634 243.809 182.281 243.034 183.522 241.73V241.73Z" fill="#E6EBAD"/>
<path d="M184.678 223.915L171.143 217.465L182 169.566L161.78 117.424C160.781 114.846 160.328 112.067 160.453 109.282C160.579 106.498 161.28 103.777 162.506 101.313C163.733 98.8487 165.455 96.7017 167.551 95.0241C169.647 93.3465 172.064 92.1796 174.632 91.6063C179.271 90.5761 184.106 91.5431 188.075 94.295C192.043 97.0469 194.823 101.359 195.802 106.285L208.1 168.446L184.678 223.915Z" fill="#5F6730"/>
<path d="M131.232 40.9478L136.18 19.0882C136.35 18.3405 136.792 17.695 137.41 17.2933C138.027 16.8916 138.77 16.7666 139.474 16.9456L143.959 18.0911C144.662 18.2718 145.27 18.7416 145.648 19.3976C146.026 20.0536 146.144 20.8422 145.976 21.5903L141.028 43.4498C140.858 44.1975 140.415 44.843 139.798 45.2447C139.18 45.6464 138.438 45.7714 137.734 45.5924L133.249 44.4469C132.545 44.2663 131.938 43.7964 131.56 43.1404C131.182 42.4844 131.064 41.6958 131.232 40.9478Z" fill="#3F3D56"/>
<path d="M139.747 18.1946C139.367 18.0981 138.967 18.1655 138.634 18.382C138.302 18.5984 138.063 18.9463 137.972 19.3492L133.024 41.2087C132.933 41.6119 132.997 42.0368 133.2 42.3903C133.404 42.7438 133.731 42.997 134.111 43.0944L138.595 44.2399C138.975 44.3363 139.375 44.2689 139.708 44.0525C140.04 43.836 140.279 43.4882 140.37 43.0853L145.318 21.2257C145.409 20.8226 145.346 20.3977 145.142 20.0442C144.938 19.6907 144.611 19.4375 144.231 19.3401L139.747 18.1946Z" fill="#5F6730"/>
<path d="M160.496 54.7331C172.627 54.7331 182.46 44.2867 182.46 31.4004C182.46 18.5141 172.627 8.06769 160.496 8.06769C148.366 8.06769 138.532 18.5141 138.532 31.4004C138.532 44.2867 148.366 54.7331 160.496 54.7331Z" fill="#E6EBAD"/>
<path d="M170.627 47.0015L171.418 42.2756C171.904 39.1416 171.399 35.9248 169.982 33.1281C168.564 30.3314 166.314 28.1126 163.584 26.8186L162.905 26.47L163.464 26.1526C163.642 26.0516 163.781 25.8877 163.857 25.6893C163.933 25.491 163.941 25.2706 163.88 25.0666C163.819 24.8625 163.693 24.6875 163.523 24.5721C163.353 24.4566 163.151 24.4079 162.951 24.4345L162.316 24.5183C161.883 24.5746 161.444 24.4967 161.052 24.2941C160.66 24.0915 160.332 23.7728 160.107 23.3764C159.881 22.98 159.769 22.5228 159.782 22.06C159.796 21.5971 159.935 21.1483 160.184 20.7677C157.991 21.7329 155.651 22.2673 153.279 22.3449C149.846 22.3174 146.863 20.5396 145.679 17.8153C145.391 17.1379 145.214 16.4134 145.155 15.6727C141.528 17.1909 139.573 21.7417 139.553 21.7893L138.48 24.3311L138.939 21.5887C138.953 21.5052 140.357 13.1994 142.392 8.04635C144.581 2.50582 153.69 -0.414415 167.375 0.0475738C180.742 0.493793 183.707 16.6839 183.961 18.2504C187.759 22.1319 186.379 29.4808 185.211 33.534C183.32 40.0982 179.587 46.6298 177.531 46.9737C177.346 47.0104 177.156 46.9884 176.984 46.9105C176.811 46.8326 176.665 46.7022 176.562 46.5358C176.356 46.1881 176.083 45.8908 175.761 45.6635C175.439 45.4363 175.075 45.2843 174.693 45.2176C173.031 44.9667 171.316 46.4141 171.299 46.4285L170.627 47.0015Z" fill="#2F2E41"/>
</g>
<defs>
<clipPath id="clip0_708_473">
<rect width="427" height="412" fill="white"/>
</clipPath>
</defs>
</svg>
