<svg width="360" height="247" viewBox="0 0 360 247" fill="none" xmlns="http://www.w3.org/2000/svg">
<path d="M137.89 182.815H52.7841L51.8818 157.428C51.8428 156.327 52.05 155.232 52.4893 154.216C52.9285 153.201 53.5893 152.29 54.4261 151.546C55.263 150.802 56.256 150.243 57.337 149.907C58.4179 149.572 59.561 149.467 60.6876 149.601L110.214 155.484H110.22C117.562 155.504 124.597 158.346 129.784 163.388C134.971 168.43 137.886 175.262 137.89 182.385V182.815Z" fill="#809500"/>
<path d="M99.9584 92.7625H40.6008C39.8114 92.7623 39.0297 92.913 38.3003 93.206C37.571 93.499 36.9083 93.9285 36.3501 94.4701C35.7918 95.0117 35.3491 95.6546 35.0471 96.3623C34.7451 97.0699 34.5898 97.8283 34.59 98.5942V156.183C34.5898 156.949 34.7451 157.707 35.0471 158.415C35.3491 159.122 35.7918 159.765 36.3501 160.307C36.9083 160.848 37.571 161.278 38.3003 161.571C39.0297 161.864 39.8114 162.015 40.6008 162.015H99.9584C100.748 162.015 101.53 161.864 102.259 161.571C102.988 161.278 103.651 160.848 104.209 160.307C104.767 159.765 105.21 159.122 105.512 158.415C105.814 157.707 105.97 156.949 105.969 156.183V98.5942C105.97 97.8283 105.814 97.0699 105.512 96.3623C105.21 95.6546 104.767 95.0116 104.209 94.4701C103.651 93.9285 102.988 93.499 102.259 93.206C101.53 92.913 100.748 92.7623 99.9584 92.7625Z" fill="#CCCCCC"/>
<path d="M86.5902 135.825L58.5649 141.12C56.9025 141.432 55.1804 141.092 53.7763 140.174C52.3722 139.256 51.4008 137.835 51.0753 136.222L48.921 125.489C48.5992 123.877 48.95 122.206 49.8963 120.844C50.8427 119.481 52.3074 118.539 53.9691 118.223L81.9943 112.928C83.6567 112.616 85.3789 112.956 86.783 113.874C88.1871 114.793 89.1584 116.214 89.4839 117.826L91.6382 128.559C91.96 130.172 91.6092 131.842 90.6629 133.205C89.7165 134.567 88.2519 135.509 86.5902 135.825Z" fill="#2F2E41"/>
<path d="M80.9831 123.145L59.5954 127.186C59.2042 127.26 58.7988 127.18 58.4683 126.964C58.1378 126.748 57.9093 126.413 57.8331 126.034C57.757 125.654 57.8393 125.261 58.0621 124.94C58.2848 124.619 58.6297 124.398 59.0209 124.324L80.4086 120.283C80.7998 120.209 81.2053 120.289 81.5358 120.505C81.8663 120.721 82.0947 121.056 82.1709 121.435C82.2471 121.815 82.1648 122.208 81.942 122.529C81.7193 122.85 81.3743 123.071 80.9831 123.145Z" fill="white"/>
<path d="M76.826 129.129L65.7634 131.219C65.3722 131.293 64.9667 131.213 64.6362 130.997C64.3057 130.781 64.0773 130.446 64.0011 130.067C63.9249 129.687 64.0073 129.294 64.23 128.973C64.4528 128.653 64.7977 128.431 65.1889 128.357L76.2515 126.267C76.4452 126.23 76.6444 126.231 76.8378 126.269C77.0312 126.307 77.215 126.382 77.3786 126.489C77.5423 126.596 77.6826 126.733 77.7916 126.893C77.9005 127.053 77.9761 127.231 78.0138 127.419C78.0515 127.607 78.0507 127.801 78.0114 127.988C77.9721 128.176 77.8952 128.354 77.7849 128.513C77.6746 128.672 77.5331 128.808 77.3686 128.914C77.204 129.019 77.0197 129.093 76.826 129.129Z" fill="white"/>
<path d="M105.969 98.5942V106.248H34.59V98.5942C34.5898 97.8283 34.7451 97.0699 35.0471 96.3623C35.3491 95.6546 35.7918 95.0117 36.3501 94.4701C36.9083 93.9285 37.571 93.499 38.3003 93.206C39.0297 92.913 39.8114 92.7623 40.6008 92.7625H99.9584C100.748 92.7623 101.53 92.913 102.259 93.206C102.988 93.499 103.651 93.9285 104.209 94.4701C104.767 95.0117 105.21 95.6546 105.512 96.3623C105.814 97.0699 105.969 97.8283 105.969 98.5942Z" fill="#B3B3B3"/>
<path d="M248.507 108.645C248.095 107.355 247.396 106.168 246.46 105.167C245.524 104.167 244.373 103.378 243.088 102.856C241.804 102.334 240.417 102.092 239.026 102.146C237.634 102.2 236.272 102.55 235.035 103.17L153.373 74.7441L149.776 94.5366L231.178 116.255C232.39 118.202 234.296 119.65 236.535 120.325C238.774 121 241.19 120.855 243.326 119.917C245.462 118.979 247.169 117.314 248.124 115.236C249.079 113.159 249.215 110.814 248.507 108.645Z" fill="#FFB8B8"/>
<path opacity="0.2" d="M248.507 108.645C248.095 107.355 247.396 106.168 246.46 105.167C245.524 104.167 244.373 103.378 243.088 102.856C241.804 102.334 240.417 102.092 239.026 102.146C237.634 102.2 236.272 102.55 235.035 103.17L153.373 74.7441L149.776 94.5366L231.178 116.255C232.39 118.202 234.296 119.65 236.535 120.325C238.774 121 241.19 120.855 243.326 119.917C245.462 118.979 247.169 117.314 248.124 115.236C249.079 113.159 249.215 110.814 248.507 108.645Z" fill="black"/>
<path d="M167.868 78.3506L160.156 97.8963C159.937 98.4524 159.596 98.9561 159.158 99.3731C158.72 99.7901 158.194 100.111 157.617 100.313C157.04 100.515 156.424 100.594 155.813 100.544C155.201 100.495 154.607 100.318 154.073 100.026L135.331 89.7921C132.405 88.6866 130.05 86.5006 128.783 83.7133C127.515 80.926 127.439 77.7648 128.57 74.9228C129.701 72.0808 131.947 69.7899 134.817 68.5524C137.686 67.3148 140.944 67.2316 143.877 68.3209L164.805 72.8241C165.404 72.9532 165.967 73.2061 166.457 73.5656C166.946 73.925 167.35 74.3825 167.64 74.907C167.931 75.4314 168.102 76.0105 168.141 76.6048C168.18 77.199 168.087 77.7945 167.868 78.3506Z" fill="#809500"/>
<path d="M254.935 126.743L225.674 139.647L229.515 153.679C236.934 180.776 238.903 209.005 235.314 236.825L256.708 241.16L274.442 197.286L268.235 147.39L254.935 126.743Z" fill="#809500"/>
<path d="M312.349 191.694C293.123 191.694 277.456 205.254 276.695 222.234H348.002C347.242 205.254 331.574 191.694 312.349 191.694Z" fill="#2F2E41"/>
<path d="M297.382 194.62C296.382 117.971 251.388 125.023 251.388 125.023C251.388 125.023 252.23 148.881 252.634 149.623C281.306 202.254 233.986 263.957 173.753 252.605C172.618 252.391 171.527 252.174 170.48 251.954C162.848 250.408 156.11 246.1 151.635 239.905C147.161 233.711 145.287 226.095 146.394 218.607C152.328 172.38 122.816 173.198 122.816 173.198H79.664L57.2541 153.63C56.4631 152.94 55.5097 152.448 54.4773 152.197C53.4449 151.946 52.365 151.945 51.3319 152.193C50.2988 152.441 49.3441 152.931 48.5512 153.619C47.7582 154.308 47.1513 155.174 46.7834 156.143L43.9003 163.735C43.9003 163.735 1.33871 168.037 4.88551 208.469H18.044C18.0122 209.618 18.0597 210.768 18.186 211.911L116.389 211.136C122.145 211.09 127.226 215.616 127.25 221.201C127.256 222.561 126.979 223.907 126.436 225.161C125.893 226.414 125.095 227.549 124.09 228.496C123.084 229.443 121.892 230.184 120.585 230.674C119.278 231.165 117.882 231.394 116.481 231.349L100.649 230.837C95.7723 251.913 107.743 266.108 120.932 275.033C133.351 283.315 148.086 287.706 163.155 287.615H206.166C262.028 287.615 271.782 242.02 271.782 242.02C301.043 229.976 297.382 194.62 297.382 194.62Z" fill="#2F2E41"/>
<path d="M309.688 312.562C337.235 312.562 359.565 290.897 359.565 264.172C359.565 237.447 337.235 215.782 309.688 215.782C282.142 215.782 259.812 237.447 259.812 264.172C259.812 290.897 282.142 312.562 309.688 312.562Z" fill="#2F2E41"/>
<path d="M57.8658 312.562C89.5746 312.562 115.28 287.624 115.28 256.86C115.28 226.096 89.5746 201.157 57.8658 201.157C26.1571 201.157 0.452026 226.096 0.452026 256.86C0.452026 287.624 26.1571 312.562 57.8658 312.562Z" fill="#2F2E41"/>
<path d="M57.8658 270.512C65.6376 270.512 71.9378 264.4 71.9378 256.86C71.9378 249.32 65.6376 243.207 57.8658 243.207C50.0941 243.207 43.7938 249.32 43.7938 256.86C43.7938 264.4 50.0941 270.512 57.8658 270.512Z" fill="white"/>
<path d="M225.757 143.46L215.229 115.717C214.68 114.271 214.43 112.734 214.494 111.195C214.557 109.655 214.932 108.143 215.598 106.744C216.264 105.345 217.207 104.087 218.374 103.042C219.541 101.997 220.909 101.185 222.399 100.653L252.583 89.8725C255.205 88.9357 257.992 88.5091 260.784 88.6172C263.576 88.7252 266.319 89.3658 268.856 90.5023C271.393 91.6388 273.674 93.249 275.57 95.241C277.465 97.2329 278.938 99.5676 279.903 102.112C280.774 104.395 281.219 106.811 281.217 109.246C281.205 112.337 280.484 115.387 279.106 118.174C277.727 120.962 275.726 123.416 273.247 125.358C271.457 126.752 269.444 127.853 267.288 128.618L225.757 143.46Z" fill="#2F2E41"/>
<path d="M280.773 109.245C280.771 112.274 280.069 115.263 278.718 117.994C277.368 120.724 275.404 123.126 272.97 125.023C269.237 124.067 265.762 122.335 262.789 119.945C259.815 117.555 257.414 114.566 255.752 111.184C254.089 107.803 253.206 104.112 253.163 100.366C253.12 96.6198 253.918 92.9097 255.502 89.4934C258.544 88.8518 261.695 88.8791 264.724 89.5734C267.753 90.2678 270.583 91.6115 273.007 93.5059C275.43 95.4003 277.386 97.7973 278.73 100.521C280.074 103.245 280.772 106.226 280.773 109.245Z" fill="#809500"/>
<path d="M12.4222 214.061C19.2782 214.061 24.836 207.513 24.836 199.436C24.836 191.359 19.2782 184.812 12.4222 184.812C5.56627 184.812 0.00842285 191.359 0.00842285 199.436C0.00842285 207.513 5.56627 214.061 12.4222 214.061Z" fill="#809500"/>
<path d="M176.516 251.204H187.387L192.559 223.85L176.514 223.851L176.516 251.204Z" fill="#FFB8B8"/>
<path d="M189.134 239.977C189.008 239.977 188.88 239.971 188.753 239.96L173.708 238.897C173.1 238.842 172.513 238.653 171.992 238.343C171.471 238.033 171.03 237.611 170.704 237.11C170.378 236.609 170.174 236.042 170.109 235.452C170.045 234.863 170.121 234.267 170.331 233.71L190.465 189.823C190.609 189.432 190.667 189.016 190.637 188.602C190.607 188.188 190.489 187.784 190.291 187.416C190.092 187.043 189.815 186.716 189.477 186.455C189.139 186.194 188.748 186.006 188.33 185.902C178.862 183.501 154.572 177.108 133.544 169.627C124.535 166.422 118.861 161.791 116.68 155.861C113.804 148.044 118.059 140.915 118.241 140.616L118.384 140.381L138.17 142.126L159.62 143.896L206.627 168.352C210.566 170.418 213.558 173.849 215.007 177.959C216.456 182.07 216.256 186.559 214.447 190.533L192.775 237.683C192.462 238.366 191.951 238.946 191.305 239.353C190.659 239.76 189.905 239.977 189.134 239.977Z" fill="#2F2E41"/>
<path d="M141.611 55.2995C153.638 55.2995 163.389 45.8396 163.389 34.1703C163.389 22.5009 153.638 13.041 141.611 13.041C129.583 13.041 119.832 22.5009 119.832 34.1703C119.832 45.8396 129.583 55.2995 141.611 55.2995Z" fill="#FFB8B8"/>
<path d="M170.309 253.785H181.18L186.352 226.431L170.307 226.432L170.309 253.785Z" fill="#FFB8B8"/>
<path d="M182.927 242.558C182.801 242.558 182.673 242.552 182.546 242.54L167.502 241.478C166.893 241.423 166.306 241.233 165.785 240.924C165.264 240.614 164.823 240.192 164.497 239.691C164.171 239.19 163.967 238.622 163.903 238.033C163.838 237.444 163.914 236.847 164.124 236.291L184.258 192.404C184.402 192.013 184.46 191.597 184.43 191.183C184.4 190.768 184.282 190.364 184.084 189.997C183.885 189.624 183.608 189.297 183.27 189.036C182.932 188.775 182.541 188.586 182.123 188.483C172.656 186.082 148.365 179.688 127.337 172.208C118.328 169.003 112.654 164.371 110.473 158.442C107.597 150.625 111.852 143.496 112.034 143.196L112.177 142.962L131.963 144.707L153.414 146.477L200.421 170.933C204.359 172.999 207.351 176.43 208.8 180.54C210.249 184.651 210.049 189.14 208.24 193.114L186.568 240.264C186.255 240.947 185.744 241.527 185.098 241.934C184.452 242.341 183.698 242.558 182.927 242.558Z" fill="#2F2E41"/>
<path d="M148.327 67.2806L125.273 59.5381C125.273 59.5381 110.8 70.326 117.753 97.0879C121.383 110.898 120.325 125.476 114.738 138.657C114.065 140.287 113.29 141.876 112.416 143.415C112.416 143.415 138.13 173.524 162.071 151.157L152.761 107.713C152.761 107.713 167.391 78.8943 148.327 67.2806Z" fill="#809500"/>
<path d="M144.315 56.0181C141.215 51.5168 138.769 45.2753 142.181 40.9926C145.55 36.7651 152.194 37.3879 157.353 35.5173C164.539 32.9118 168.707 24.7214 167.407 17.3864C166.107 10.0514 160.038 3.97095 152.808 1.48301C145.578 -1.00493 137.426 -0.195795 130.345 2.66922C121.63 6.19608 114.153 13.0186 111.018 21.6609C107.883 30.3031 109.559 40.6798 116.063 47.3225C123.036 54.4441 133.979 56.3421 144.103 56.2269" fill="#2F2E41"/>
<path d="M124.056 17.6218C120.15 20.7066 114.192 19.3365 109.999 16.6292C105.806 13.9218 102.404 10.0668 97.8679 7.94412C89.8706 4.20197 80.2016 6.68964 72.4182 10.8347C64.6348 14.9798 57.7352 20.7064 49.5136 23.9592C41.2921 27.2121 30.8008 27.3728 24.5753 21.2307C23.0433 25.5371 22.9181 30.1972 24.2167 34.5752C25.5153 38.9532 28.1746 42.8359 31.8316 45.6934C35.4886 48.551 39.9653 50.2443 44.6509 50.5423C49.3364 50.8403 54.0026 49.7285 58.0129 47.3585C67.0212 42.0348 71.9971 30.8725 82.1009 27.9341C87.692 26.3081 93.6956 27.6177 99.3464 29.0362C104.997 30.4546 110.889 31.9873 116.592 30.7797C122.295 29.5722 127.629 24.6003 126.903 18.9813L124.056 17.6218Z" fill="#2F2E41"/>
<path d="M247.423 107.785C246.85 106.553 246.006 105.459 244.95 104.578C243.893 103.698 242.651 103.053 241.31 102.688C239.969 102.324 238.562 102.25 237.188 102.47C235.814 102.69 234.507 103.2 233.358 103.964L148.705 85.5306L147.653 105.602L231.195 117.41C232.645 119.198 234.721 120.407 237.028 120.809C239.336 121.211 241.715 120.777 243.716 119.591C245.716 118.404 247.198 116.547 247.882 114.371C248.565 112.195 248.402 109.852 247.423 107.785Z" fill="#FFB8B8"/>
<path d="M163.548 87.3745L158.381 107.694C158.234 108.272 157.96 108.813 157.578 109.279C157.196 109.745 156.716 110.126 156.168 110.396C155.621 110.665 155.02 110.818 154.407 110.842C153.794 110.866 153.182 110.761 152.614 110.536L132.715 102.623C129.668 101.878 127.051 99.9913 125.437 97.3764C123.823 94.7614 123.344 91.632 124.106 88.675C124.867 85.7179 126.807 83.1746 129.499 81.6032C132.19 80.0319 135.415 79.5607 138.464 80.2932L159.805 82.2568C160.416 82.3132 161.008 82.4967 161.539 82.7948C162.07 83.0929 162.529 83.4986 162.884 83.9843C163.239 84.4699 163.482 85.0242 163.597 85.6092C163.711 86.1942 163.695 86.7963 163.548 87.3744V87.3745Z" fill="#809500"/>
<path d="M237.644 123.732C241.072 123.732 243.851 121.036 243.851 117.71C243.851 114.385 241.072 111.688 237.644 111.688C234.216 111.688 231.437 114.385 231.437 117.71C231.437 121.036 234.216 123.732 237.644 123.732Z" fill="#809500"/>
</svg>
