<svg width="500" height="358" viewBox="0 0 500 358" fill="none" xmlns="http://www.w3.org/2000/svg">
<g clip-path="url(#clip0_780_703)">
<path d="M64.5974 345.602C64.5974 345.602 -10.7351 257.565 96.3824 229.28C203.5 200.995 231.725 176.792 282.365 103.5C333.005 30.2075 550.887 49.81 462.26 349L64.5974 345.602Z" fill="#E2EEFC"/>
<path d="M94.3099 173.337C164.53 175.032 234.327 136.425 270.207 76.0425C277.135 64.3825 274.377 47.895 264.032 39.125C253.687 30.355 236.97 30.3325 226.602 39.0775C209.44 53.55 186.682 59.255 164.602 63.275C142.522 67.295 119.737 70.215 99.7699 80.475C79.8024 90.735 62.8099 110.4 63.1224 132.847C63.4349 155.295 86.6349 173.152 94.3099 173.337Z" fill="#E2EEFC"/>
<path d="M455.097 244.132H373.097V342.505H455.097V244.132Z" fill="#CCDEFF"/>
<path d="M398.492 249.282H378.242V253.032H398.492V249.282Z" fill="#E2EEFC"/>
<path d="M422.992 249.282H402.742V253.032H422.992V249.282Z" fill="#E2EEFC"/>
<path d="M446.992 249.282H426.742V253.032H446.992V249.282Z" fill="#E2EEFC"/>
<path d="M398.742 256.032H378.492V259.782H398.742V256.032Z" fill="#E2EEFC"/>
<path d="M423.242 256.032H402.992V259.782H423.242V256.032Z" fill="#E2EEFC"/>
<path d="M447.242 256.032H426.992V259.782H447.242V256.032Z" fill="#E2EEFC"/>
<path d="M398.742 262.782H378.492V266.532H398.742V262.782Z" fill="#E2EEFC"/>
<path d="M423.242 262.782H402.992V266.532H423.242V262.782Z" fill="#E2EEFC"/>
<path d="M447.242 262.782H426.992V266.532H447.242V262.782Z" fill="#E2EEFC"/>
<path d="M398.992 269.532H378.742V273.282H398.992V269.532Z" fill="#E2EEFC"/>
<path d="M423.492 269.532H403.242V273.282H423.492V269.532Z" fill="#E2EEFC"/>
<path d="M447.492 269.532H427.242V273.282H447.492V269.532Z" fill="#E2EEFC"/>
<path d="M399.242 276.282H378.992V280.032H399.242V276.282Z" fill="#E2EEFC"/>
<path d="M423.742 276.282H403.492V280.032H423.742V276.282Z" fill="#E2EEFC"/>
<path d="M447.742 276.282H427.492V280.032H447.742V276.282Z" fill="#E2EEFC"/>
<path d="M399.242 283.032H378.992V286.782H399.242V283.032Z" fill="#E2EEFC"/>
<path d="M423.742 283.032H403.492V286.782H423.742V283.032Z" fill="#E2EEFC"/>
<path d="M447.742 283.032H427.492V286.782H447.742V283.032Z" fill="#E2EEFC"/>
<path d="M447.742 293.32H378.992V318.32H447.742V293.32Z" fill="#E2EEFC"/>
<path d="M456.935 221.97H431.435V342.507H456.935V221.97Z" fill="#CCDEFF"/>
<path d="M462.025 233.005H454.525V342.505H462.025V233.005Z" fill="#CCDEFF"/>
<path d="M125.325 279.257H85.825V342.757H125.325V279.257Z" fill="#CCDEFF"/>
<path d="M119.342 285.53H89.9674V291.28H119.342V285.53Z" fill="#E2EEFC"/>
<path d="M119.342 295.132H89.9674V300.882H119.342V295.132Z" fill="#E2EEFC"/>
<path d="M119.357 304.735H89.9824V310.485H119.357V304.735Z" fill="#E2EEFC"/>
<path d="M119.357 314.145H89.9824V319.895H119.357V314.145Z" fill="#E2EEFC"/>
<path d="M154.1 259.007H114.6V342.757H154.1V259.007Z" fill="#CCDEFF"/>
<path d="M238.627 275.507H150.35V342.757H238.627V275.507Z" fill="#CCDEFF"/>
<path d="M85.8249 305.507H63.825V342.757H85.8249V305.507Z" fill="#CCDEFF"/>
<path d="M165.76 243.972H165.01V275.507H165.76V243.972Z" fill="#CCDEFF"/>
<path d="M174.18 251.232H173.43V275.507H174.18V251.232Z" fill="#CCDEFF"/>
<path d="M159.112 238.94H157.362V275.507H159.112V238.94Z" fill="#CCDEFF"/>
<path d="M97.7148 270.155H90.4648V279.257H97.7148V270.155Z" fill="#CCDEFF"/>
<path d="M133.352 249.172H117.602V259.007H133.352V249.172Z" fill="#CCDEFF"/>
<path d="M147.127 238.94H140.377V259.007H147.127V238.94Z" fill="#CCDEFF"/>
<path d="M107.67 257.225H101.67V279.26H107.67V257.225Z" fill="#CCDEFF"/>
<path d="M72.45 309.132H66.575V315.007H72.45V309.132Z" fill="#E2EEFC"/>
<path d="M82.075 309.132H76.2V315.007H82.075V309.132Z" fill="#E2EEFC"/>
<path d="M72.45 319.007H66.575V324.882H72.45V319.007Z" fill="#E2EEFC"/>
<path d="M82.075 319.007H76.2V324.882H82.075V319.007Z" fill="#E2EEFC"/>
<path d="M72.45 328.882H66.575V334.757H72.45V328.882Z" fill="#E2EEFC"/>
<path d="M82.075 328.882H76.2V334.757H82.075V328.882Z" fill="#E2EEFC"/>
<path d="M121.607 264.33H119.357V340.08H121.607V264.33Z" fill="#E2EEFC"/>
<path d="M131.607 264.33H129.357V340.08H131.607V264.33Z" fill="#E2EEFC"/>
<path d="M140.61 264.33H138.36V340.08H140.61V264.33Z" fill="#E2EEFC"/>
<path d="M150.11 264.33H147.86V340.08H150.11V264.33Z" fill="#E2EEFC"/>
<path d="M373.097 311.892H332.597V342.72H373.097V311.892Z" fill="#CCDEFF"/>
<path d="M411.107 334.94H409.607V336.44H411.107V334.94Z" fill="#CCDEFF"/>
<path d="M208.082 127.68C198.465 139.886 186.052 149.599 171.892 156C172.87 159.127 176.255 161.035 179.53 161.182C182.805 161.33 185.972 160.06 188.895 158.575C191.817 157.09 194.645 155.352 197.8 154.447C200.377 153.684 202.745 152.339 204.72 150.515C206.695 148.691 208.224 146.438 209.19 143.93C211.072 138.915 210.445 133.022 208.082 127.68Z" fill="#5F6730"/>
<path d="M224.045 106.787C222.217 108.897 223.24 113.4 225.822 113.52C222.057 113.27 215.89 115.892 212.442 118.317C213.042 117.827 213.484 117.171 213.713 116.432C213.942 115.692 213.948 114.901 213.73 114.157C213.643 113.854 213.511 113.565 213.34 113.3C212.864 112.592 212.157 112.072 211.34 111.827C210.425 111.534 209.434 111.59 208.557 111.982C209.623 111.394 210.638 110.72 211.595 109.967C213.881 108.173 215.813 105.969 217.292 103.467C218.292 102.967 219.367 102.542 220.49 102.467C220.805 102.45 221.121 102.465 221.432 102.512C222.239 102.616 222.985 103 223.537 103.597C224.277 104.447 224.725 106 224.045 106.787Z" fill="#FBB8A5"/>
<path d="M187.882 340.155L158.232 336.307C158.408 334.736 158.693 333.179 159.085 331.647C160.875 331.166 162.65 330.628 164.41 330.035C164.477 330.684 164.689 331.31 165.032 331.865C165.585 332.69 166.757 333.19 167.602 332.675C167.475 331.462 167.352 330.255 167.225 329.04C167.59 328.907 167.947 328.77 168.312 328.627C168.312 328.815 168.312 329.002 168.312 329.187C168.282 329.875 168.225 330.575 168.407 331.24C168.59 331.905 169.075 332.532 169.752 332.667C170.43 332.802 171.212 332.225 171.115 331.545C170.938 330.272 170.758 328.998 170.575 327.725C170.952 327.57 171.325 327.41 171.695 327.25C171.905 328.803 172.113 330.358 172.32 331.915C173.097 332.415 174.187 331.705 174.432 330.815C174.564 330.214 174.532 329.589 174.337 329.005C174.257 328.702 174.155 328.402 174.06 328.11C174.047 328.067 174.03 328.022 174.017 327.98C173.83 327.456 173.719 326.908 173.687 326.352C174.012 326.205 174.335 326.052 174.655 325.897C174.715 325.985 174.78 326.07 174.845 326.147C176.316 328.086 178.385 329.485 180.732 330.13C183.079 330.774 185.572 330.628 187.827 329.712C188.13 329.587 188.43 329.462 188.717 329.302C188.452 332.82 188.195 336.337 187.882 340.155Z" fill="#F75C3D"/>
<path d="M187.69 342.415C177.817 340.915 167.94 339.437 158.002 338.14C158.075 337.527 158.152 336.912 158.232 336.307C168.117 337.592 178.001 338.875 187.882 340.155C187.821 340.895 187.757 341.648 187.69 342.415Z" fill="black"/>
<path d="M172.31 331.912C172.102 330.357 171.893 328.802 171.685 327.247C172.35 326.955 173.015 326.657 173.685 326.35C173.716 326.905 173.827 327.454 174.015 327.977C174.015 328.02 174.045 328.065 174.057 328.107C174.152 328.4 174.255 328.7 174.335 329.002C174.529 329.586 174.562 330.212 174.43 330.812C174.177 331.702 173.09 332.415 172.31 331.912Z" fill="white"/>
<path d="M169.75 332.665C169.072 332.532 168.59 331.9 168.405 331.237C168.22 330.575 168.28 329.872 168.31 329.185C168.31 329 168.31 328.812 168.31 328.625C169.06 328.337 169.81 328.032 170.56 327.72C170.743 328.992 170.923 330.265 171.1 331.54C171.202 332.222 170.417 332.795 169.75 332.665Z" fill="white"/>
<path d="M167.602 332.675C166.757 333.192 165.585 332.69 165.032 331.865C164.688 331.31 164.475 330.684 164.41 330.035C165.352 329.72 166.29 329.387 167.225 329.035C167.35 330.252 167.476 331.465 167.602 332.675Z" fill="white"/>
<path d="M187.817 329.715C185.562 330.63 183.069 330.777 180.722 330.132C178.375 329.488 176.306 328.088 174.835 326.15C176.031 323.227 176.666 320.105 176.707 316.947C181.42 318.24 186.13 319.527 190.67 320.737C189.723 323.727 188.772 326.72 187.817 329.715Z" fill="#FBB8A5"/>
<path d="M221.082 102.94C223.02 103.86 223.93 106.48 222.977 108.402C223.562 107.705 222.74 108.59 223.12 109.402C224.12 106.627 227.237 103.152 228.235 100.372C228.788 98.8366 228.84 97.165 228.385 95.5975C227.929 94.03 226.988 92.6472 225.697 91.6476C224.407 90.648 222.833 90.0829 221.201 90.0335C219.569 89.9841 217.964 90.4528 216.615 91.3725C213.94 93.195 206.667 90.4475 207.572 93.5525C207.85 94.505 212.187 102.11 213.18 102.125C214.172 102.14 217.93 101.067 218.915 101.2C219.9 101.332 220.93 102.107 221.082 102.94Z" fill="#38385C"/>
<path d="M218.537 105C217.864 108.46 216.193 111.648 213.73 114.17C213.643 113.866 213.511 113.578 213.34 113.312C212.864 112.605 212.157 112.084 211.34 111.84C210.435 112.118 209.509 112.32 208.57 112.442C208.525 112.315 208.477 112.192 208.432 112.062C208.39 111.942 208.345 111.812 208.302 111.705C209.427 111.162 210.53 110.585 211.597 109.985C213.755 108.782 215.835 107.446 217.827 105.985C218.022 105.842 218.21 105.702 218.395 105.56C218.435 105.357 218.5 105.172 218.537 105Z" fill="#F8856C"/>
<path d="M221.455 102.485L221.427 102.517C220.582 103.517 219.452 104.207 218.29 104.787C218.195 105.11 218.002 105.522 217.817 105.967C217.621 106.409 217.479 106.874 217.395 107.35C216.555 109.662 214.985 110.277 212.747 111.267C212.197 111.517 211.747 111.685 211.332 111.827C210.428 112.106 209.501 112.307 208.562 112.43C207.955 112.522 207.23 112.635 206.312 112.792C203.167 107 202.66 99.315 205.945 93.3975C207.195 91.1475 210.945 90.11 214.047 90.7775C212.051 92.0375 209.871 92.9804 207.585 93.5725C208.578 93.5962 209.551 93.8541 210.425 94.3252C211.299 94.7962 212.05 95.4671 212.616 96.2832C213.181 97.0993 213.546 98.0374 213.681 99.0213C213.816 100.005 213.716 101.007 213.39 101.945C213.85 101.195 216.117 101.477 216.772 100.81C217.485 100.087 216.95 100.002 217.3 99.1675C217.395 98.1675 218.75 96.11 220.05 96.235C221.35 96.36 222.412 97.5475 222.625 98.845C222.837 100.142 222.302 101.482 221.455 102.485Z" fill="#FBB6A6"/>
<path d="M229.6 98.5775C225.685 94.525 220.04 92.72 214.51 93.095H214.5L214.027 93.135C207.992 95.65 200.607 94.9175 195.182 91.1675C198.367 90.98 201.975 90.625 205.585 90.275C206.645 89.525 207.665 88.775 208.69 88.025C209.064 86.0641 209.829 84.1986 210.94 82.54C217.407 80.6825 224.875 83.015 229.135 88.2225C229.95 91.6128 230.108 95.1278 229.6 98.5775Z" fill="#F75C3D"/>
<path d="M214.5 93.0975L214.027 93.1375C207.992 95.6525 200.607 94.92 195.182 91.17C198.367 90.9825 201.975 90.6275 205.585 90.2775C208.345 93.3625 210.727 93.25 214.5 93.0975Z" fill="#E44531"/>
<path d="M176.29 172.78H181.835C181.835 172.78 182.96 173.62 180.752 173.62C179.53 173.636 178.309 173.512 177.115 173.25L176.29 172.78Z" fill="#F8856C"/>
<path d="M206.32 100.987C206.735 100.987 207.072 100.135 207.072 99.0825C207.072 98.0304 206.735 97.1775 206.32 97.1775C205.904 97.1775 205.567 98.0304 205.567 99.0825C205.567 100.135 205.904 100.987 206.32 100.987Z" fill="#38385C"/>
<path d="M205.262 106.19C206.532 106.123 207.768 105.759 208.872 105.128C209.976 104.498 210.917 103.617 211.62 102.557C211.672 103.343 211.5 104.127 211.124 104.818C210.747 105.509 210.183 106.08 209.495 106.462C208.112 107.205 206.297 107.042 205.262 106.19Z" fill="#FEFEFE"/>
<path d="M206.23 95.7925C206.63 95.5127 207.098 95.3446 207.585 95.3055C208.072 95.2664 208.56 95.3577 209 95.57C209.44 95.7823 209.816 96.108 210.088 96.5136C210.36 96.9191 210.52 97.3899 210.55 97.8775C209.406 96.6878 207.873 95.948 206.23 95.7925Z" fill="#38385C"/>
<path d="M219.077 98.3075C219.162 98.1067 219.302 97.9345 219.482 97.8114C219.662 97.6883 219.873 97.6195 220.091 97.6131C220.308 97.6068 220.523 97.6633 220.71 97.7757C220.896 97.8882 221.046 98.052 221.142 98.2475C221.319 98.6084 221.421 99.0016 221.441 99.4031C221.461 99.8047 221.399 100.206 221.258 100.583C221.118 100.959 220.902 101.304 220.624 101.594C220.347 101.885 220.012 102.115 219.642 102.272C220.117 101.856 220.499 101.345 220.765 100.772C220.895 100.485 220.96 100.173 220.954 99.8573C220.948 99.5419 220.871 99.2319 220.73 98.95C220.572 98.6672 220.321 98.4483 220.019 98.331C219.718 98.2138 219.385 98.2054 219.077 98.3075Z" fill="#F8856C"/>
<path d="M194.582 127.68H114.6V172.79H194.582V127.68Z" fill="#FEBE3D"/>
<path d="M194.582 169.72H114.6V172.792H194.582V169.72Z" fill="#EC7F37"/>
<path d="M194.582 170.55V127.68L198.422 129.76V170.55H194.582Z" fill="#EC7F37"/>
<path d="M188.89 166.025C184.901 166.128 181.08 167.654 178.117 170.327C178.867 171.062 180.102 171.13 181.097 170.775C182.092 170.42 182.92 169.71 183.72 169.025C183.646 169.867 183.354 170.675 182.871 171.368C182.389 172.062 181.733 172.618 180.97 172.98C179.445 173.687 177.845 173.305 176.182 172.797C177.857 174.21 180.075 174.56 182.262 174.697C184.45 174.835 186.635 174.502 188.802 174.175C188.845 171.377 188.877 168.59 188.89 166.025Z" fill="#FBB8A5"/>
<path d="M238.057 187.017C228.967 188.48 219.764 189.134 210.557 188.97C206.859 188.91 203.166 188.714 199.477 188.382C199.977 181.529 200.477 174.677 200.977 167.825C213.032 166.732 223.477 156.03 224.282 143.952C224.782 136.415 229.807 132.145 237.282 129.702C237.282 130.237 237.282 130.77 237.3 131.297C237.5 150.662 237.847 167.83 238.057 187.017Z" fill="#3E432C"/>
<path d="M250.197 184.567C246.187 185.546 242.141 186.362 238.057 187.017C228.966 188.48 219.764 189.134 210.557 188.97C216.23 168.642 225.072 149.157 237.307 131.307C238.317 129.829 239.352 128.363 240.41 126.91C246.336 145.581 249.631 164.987 250.197 184.567Z" fill="#3E432C"/>
<path d="M208.157 122.805C203.014 136.361 200.881 150.874 201.907 165.337C216.07 155.815 225.305 139.317 226 122.25C226.11 119.607 223.865 117.25 221.285 116.657C218.705 116.065 215.967 116.967 213.785 118.48C211.602 119.992 209.925 122.07 208.157 122.805Z" fill="#3E432C"/>
<path d="M224.905 113.555C226.987 112.907 238.315 121.335 240.155 126.117C236.08 126.177 227.012 126.142 223.422 128.067C224.947 123.677 222.575 118.317 218.302 116.48C220.68 115.38 223.05 114.277 224.905 113.555Z" fill="#E44531"/>
<path d="M187.662 165.612C194.799 164.743 201.662 162.337 207.78 158.56C211.03 156.542 213.11 153.017 214.28 149.365C215.45 145.712 215.82 141.865 216.465 138.087C217.11 134.31 218.067 130.485 220.215 127.317C222.362 124.15 226.042 122.712 229.77 121.817C234.727 120.622 242.165 125.927 241.192 129.467C234.05 155.5 233.915 155.967 227.41 166.087C226.59 167.362 225.225 168.047 223.817 168.612C201.23 177.67 193.385 175.63 192.567 175.362C191.592 172.537 188.842 168.122 187.662 165.612Z" fill="#5F6730"/>
<path d="M185.975 166.095C187.267 169.375 187.992 172.845 189.282 176.13C189.097 176.195 189.477 176.067 189.282 176.13L193.25 176L190.295 166.877C190.155 166.471 189.904 166.112 189.57 165.841C189.237 165.571 188.834 165.399 188.407 165.345C187.545 165.25 186.647 165.685 185.975 166.095Z" fill="#F75C3D"/>
<path d="M225.182 110.73L206.847 119.442C206.922 121.396 206.997 123.347 207.07 125.297L226.66 113.73C226.137 112.75 225.615 111.75 225.182 110.73Z" fill="#463E52"/>
<path d="M208.427 112.047C208.47 112.022 208.51 112.005 208.552 111.982C208.513 112.009 208.471 112.031 208.427 112.05C208.342 112.102 208.26 112.145 208.177 112.192C208.258 112.139 208.341 112.09 208.427 112.047Z" fill="#FFA8A8"/>
<path d="M206.115 194.04L160.437 318.717L196.417 322.002L221.915 271.787L238.81 195.447L206.115 194.04Z" fill="#1A1A35"/>
<path d="M233.702 322.75L283.202 102.905C283.606 101.113 284.593 99.5052 286.01 98.3354C287.426 97.1655 289.191 96.4997 291.027 96.4425L397.027 93.1275C398.285 93.085 399.535 93.3299 400.683 93.8435C401.832 94.3571 402.848 95.1259 403.654 96.0914C404.46 97.0569 405.036 98.1936 405.337 99.415C405.637 100.636 405.656 101.91 405.39 103.14L404.292 108.29L357.84 326C357.445 327.852 356.427 329.512 354.957 330.705C353.487 331.898 351.653 332.552 349.76 332.557L241.81 332.87C239.843 332.874 237.939 332.18 236.437 330.911C234.934 329.643 233.931 327.882 233.605 325.942C233.432 324.882 233.465 323.798 233.702 322.75ZM359.427 96.635L327.965 97.52C327.572 97.5343 327.2 97.7024 326.93 97.9881C326.66 98.2738 326.512 98.6543 326.52 99.0475C326.52 99.0675 326.52 99.0875 326.52 99.1075C326.549 99.4903 326.723 99.8475 327.007 100.106C327.291 100.364 327.664 100.503 328.047 100.495L359.51 99.61C359.722 99.6307 359.936 99.6061 360.137 99.5377C360.339 99.4694 360.524 99.3589 360.679 99.2136C360.835 99.0684 360.958 98.8916 361.04 98.6952C361.122 98.4987 361.161 98.2871 361.155 98.0742C361.149 97.8614 361.098 97.6524 361.005 97.4609C360.912 97.2695 360.779 97.1 360.615 96.9639C360.451 96.8277 360.261 96.728 360.055 96.6713C359.85 96.6146 359.635 96.6022 359.425 96.635H359.427ZM248.75 318.767L346.782 318.482C348.502 318.477 350.167 317.884 351.502 316.8C352.837 315.717 353.761 314.209 354.12 312.527L397.295 110.155C397.68 108.349 397.388 106.464 396.475 104.859C395.561 103.254 394.09 102.041 392.34 101.45C391.491 101.164 390.598 101.034 389.702 101.065L293.452 104.065C291.785 104.117 290.182 104.722 288.896 105.785C287.61 106.848 286.713 108.307 286.347 109.935L278.92 142.935L278.875 143.127L241.38 309.59C241.132 310.693 241.135 311.839 241.39 312.94C241.645 314.042 242.146 315.072 242.854 315.954C243.562 316.836 244.46 317.547 245.481 318.034C246.501 318.521 247.619 318.772 248.75 318.767Z" fill="#38385C"/>
<path d="M235.357 339.16C235.51 339.384 235.683 339.594 235.872 339.788C236.688 340.848 237.739 341.704 238.943 342.287C240.147 342.871 241.47 343.166 242.807 343.15L355.057 342.605C359.112 342.585 362.617 339.825 363.472 335.973L411.842 118.15L413.4 111.13C413.528 110.555 413.594 109.969 413.597 109.38C413.047 107.557 410.817 104.51 408.635 101.817C406.24 98.8625 403.902 96.3375 403.902 96.3375L403.88 96.415C404.603 97.362 405.111 98.4547 405.37 99.6176C405.629 100.78 405.633 101.986 405.38 103.15L404.282 108.3L357.84 326C357.445 327.852 356.427 329.512 354.957 330.705C353.487 331.898 351.653 332.552 349.76 332.557L241.81 332.87C239.843 332.874 237.939 332.18 236.437 330.911C234.934 329.643 233.931 327.882 233.605 325.943C233.605 325.943 232.977 335.75 235.357 339.16Z" fill="#1A1A35"/>
<path d="M248.75 318.767L346.782 318.482C348.502 318.477 350.167 317.884 351.502 316.8C352.837 315.717 353.761 314.209 354.12 312.527L397.295 110.155C397.68 108.349 397.388 106.464 396.475 104.859C395.561 103.254 394.09 102.041 392.34 101.45C391.491 101.164 390.598 101.034 389.702 101.065L293.452 104.065C291.785 104.117 290.182 104.722 288.896 105.785C287.61 106.848 286.713 108.307 286.347 109.935L278.92 142.935L278.875 143.127L241.38 309.59C241.131 310.693 241.135 311.839 241.39 312.94C241.645 314.042 242.146 315.072 242.854 315.954C243.562 316.836 244.46 317.547 245.481 318.034C246.501 318.521 247.619 318.772 248.75 318.767Z" fill="#E2EEFC"/>
<g opacity="0.64">
<path d="M348.688 102.347L389.86 144.982L391.812 135.822L359.17 102.017L348.688 102.347Z" fill="white"/>
<path d="M314.917 103.402L383.565 174.492L388.492 151.392L341.352 102.575L314.917 103.402Z" fill="white"/>
<path d="M266.12 199.7L357.907 294.755L364.585 263.452L273.097 168.707L266.12 199.7Z" fill="white"/>
<path d="M260.135 226.29L348.865 318.18C350.169 317.8 351.346 317.073 352.27 316.078C353.194 315.083 353.832 313.856 354.115 312.527L354.132 312.447L262.175 217.217L260.135 226.29Z" fill="white"/>
<path d="M252.332 260.947L308 318.597L344.802 318.49L259.31 229.952L252.332 260.947Z" fill="white"/>
<path d="M314.917 103.402L383.565 174.492L388.492 151.392L341.352 102.575L314.917 103.402Z" fill="white"/>
<path d="M348.688 102.347L389.86 144.982L391.812 135.822L359.17 102.017L348.688 102.347Z" fill="white"/>
<path d="M260.135 226.29L348.865 318.18C350.169 317.8 351.346 317.073 352.27 316.078C353.194 315.083 353.832 313.856 354.115 312.527L354.132 312.447L262.175 217.217L260.135 226.29Z" fill="white"/>
<path d="M252.332 260.947L308 318.597L344.802 318.49L259.31 229.952L252.332 260.947Z" fill="white"/>
<path d="M266.12 199.7L357.907 294.755L364.585 263.452L273.097 168.707L266.12 199.7Z" fill="white"/>
</g>
<path d="M326.522 99.115C326.551 99.4978 326.725 99.855 327.01 100.113C327.294 100.371 327.666 100.511 328.05 100.502L359.512 99.6175C359.724 99.6382 359.938 99.6135 360.14 99.5452C360.341 99.4769 360.526 99.3664 360.682 99.2211C360.837 99.0759 360.96 98.8991 361.042 98.7027C361.124 98.5062 361.164 98.2946 361.158 98.0817C361.152 97.8689 361.1 97.6598 361.007 97.4684C360.914 97.277 360.781 97.1075 360.617 96.9714C360.454 96.8352 360.263 96.7355 360.058 96.6788C359.853 96.6221 359.638 96.6097 359.427 96.6425L327.965 97.5275C327.572 97.5418 327.2 97.71 326.93 97.9957C326.66 98.2813 326.512 98.6618 326.52 99.055C326.519 99.075 326.52 99.095 326.522 99.115Z" fill="white"/>
<path d="M289.305 247.285C292.933 256.565 296.564 265.846 300.197 275.127C298.734 275.731 297.231 276.233 295.697 276.627C294.412 275.294 293.087 273.997 291.722 272.735C292.26 272.364 292.706 271.876 293.027 271.307C293.485 270.425 293.36 269.157 292.5 268.665C291.5 269.36 290.5 270.053 289.5 270.745C289.207 270.495 288.915 270.245 288.615 269.995C288.777 269.9 288.945 269.817 289.115 269.745C289.732 269.442 290.365 269.152 290.865 268.675C291.365 268.197 291.677 267.467 291.467 266.81C291.257 266.152 290.377 265.742 289.827 266.157C288.797 266.926 287.768 267.697 286.74 268.47C286.422 268.22 286.105 267.97 285.785 267.72L289.575 264.927C289.642 264.002 288.492 263.39 287.595 263.605C287.005 263.778 286.473 264.108 286.055 264.56C285.83 264.777 285.615 265.01 285.405 265.235C285.372 265.267 285.342 265.302 285.312 265.335C284.944 265.752 284.517 266.113 284.045 266.407C283.76 266.195 283.47 265.985 283.182 265.777C283.23 265.682 283.272 265.585 283.315 265.487C284.306 263.265 284.538 260.778 283.974 258.411C283.41 256.044 282.082 253.929 280.195 252.392C279.945 252.187 279.677 251.99 279.407 251.807C282.602 250.315 285.807 248.85 289.305 247.285Z" fill="#F75C3D"/>
<path d="M291.38 246.367C294.825 255.737 298.27 265.118 301.915 274.45C301.342 274.68 300.765 274.91 300.197 275.13C296.567 265.845 292.937 256.564 289.305 247.288C289.985 246.985 290.675 246.677 291.38 246.367Z" fill="black"/>
<path d="M289.57 264.902L285.78 267.695C285.205 267.252 284.622 266.812 284.03 266.382C284.501 266.087 284.928 265.726 285.297 265.31C285.33 265.277 285.36 265.242 285.39 265.21C285.6 264.985 285.815 264.752 286.04 264.535C286.458 264.084 286.99 263.754 287.58 263.58C288.5 263.365 289.637 263.977 289.57 264.902Z" fill="white"/>
<path d="M291.465 266.79C291.672 267.447 291.352 268.175 290.862 268.655C290.372 269.135 289.727 269.422 289.112 269.725C288.947 269.81 288.78 269.892 288.612 269.975C287.997 269.452 287.372 268.938 286.735 268.435C287.762 267.662 288.795 266.89 289.822 266.122C290.375 265.725 291.25 266.137 291.465 266.79Z" fill="white"/>
<path d="M292.5 268.662C293.36 269.162 293.482 270.412 293.027 271.305C292.706 271.873 292.26 272.362 291.722 272.732C290.992 272.066 290.25 271.399 289.495 270.732L292.5 268.662Z" fill="white"/>
<path d="M280.185 252.365C282.072 253.901 283.4 256.017 283.964 258.384C284.528 260.751 284.296 263.238 283.305 265.46C280.167 265.818 277.124 266.763 274.335 268.245C273.2 263.495 272.062 258.745 270.94 254.182L280.185 252.365Z" fill="#FBB8A5"/>
<path d="M215.657 198.585C215.657 198.585 178.79 260.1 203.55 278.712C228.31 297.325 279.277 272.5 279.277 272.5L270.552 250.177C270.552 250.177 228.052 267.177 233.597 246.427C239.142 225.677 247.052 195.152 247.052 195.152L215.657 198.585Z" fill="#38385C"/>
<path d="M250.175 197.385C246.219 198.213 242.209 198.758 238.175 199.015C225.148 201.829 211.641 201.532 198.75 198.15C198.938 195.583 199.127 193.015 199.317 190.445C199.367 189.758 199.418 189.071 199.47 188.382C203.155 188.716 206.848 188.912 210.55 188.97C219.756 189.134 228.959 188.48 238.05 187.017C242.127 186.362 246.173 185.546 250.19 184.567C250.318 188.839 250.313 193.112 250.175 197.385Z" fill="#5F6730"/>
<path d="M204.34 97.535C204.565 99.2 202.84 100.877 200.667 101.12C202.792 102.162 204.25 103.955 204.527 105.87C205.147 103.23 205.25 100.525 204.34 97.535Z" fill="#FBB6A6"/>
<path d="M221.12 102.75C222.098 104.729 222.744 106.856 223.032 109.045L227.55 101.7C225.425 102.067 223.297 102.435 221.12 102.75Z" fill="#38385C"/>
<path d="M205.567 90.3225C206.388 87.0698 208.409 84.2483 211.225 82.425C211.423 84.4181 211.185 86.4304 210.527 88.3225C210.217 89.215 209.185 89.63 208.247 89.755C207.31 89.88 206.317 89.83 205.567 90.3225Z" fill="#F75C3D"/>
<path d="M203.82 281.145L188.035 314.895" stroke="#F2F2F2" stroke-linecap="round" stroke-linejoin="round" stroke-dasharray="6 3 6 3 6 3"/>
<path d="M267.57 328.437L267.502 328.575" stroke="#F2F2F2" stroke-linecap="round" stroke-linejoin="round" stroke-dasharray="6 3 6 3 6 3"/>
<path d="M225.11 203.705C220.467 210.867 215.785 218.11 212.907 226.145C210.03 234.18 209.075 243.197 211.992 251.22C214.91 259.242 222.242 265.94 230.742 266.512C247.66 267.652 255.827 268.202 271.577 261.922" stroke="#F2F2F2" stroke-linecap="round" stroke-linejoin="round" stroke-dasharray="6 3 6 3 6 3"/>
<path d="M356.8 55.4525L350.59 53.4525C353.09 46.0425 364.07 43.335 369.715 48.7425C366.752 45.1975 369.215 38.76 373.787 38.095C378.36 37.43 382.537 42.9075 380.715 47.1475C384.252 43.07 391.902 44.02 394.332 48.84C397.25 45.225 403.635 45.34 406.425 49.05C419.549 46.5965 433.1 47.9213 445.5 52.87L334.68 58.25C342.657 56.79 350.64 55.33 356.8 55.4525Z" fill="#E2EEFC"/>
<path d="M166.307 15.895L172.38 13.515C169.43 6.26497 158.29 4.26497 152.997 10.015C155.73 6.28997 152.867 0.0149723 148.262 -0.352528C143.657 -0.720028 139.822 4.99997 141.917 9.12247C138.13 5.27497 130.555 6.70747 128.432 11.67C125.292 8.24497 118.932 8.75747 116.377 12.64C103.128 11.0166 89.6892 13.191 77.6274 18.91L188.562 17.2975C180.5 16.34 172.447 15.385 166.307 15.895Z" fill="#E2EEFC"/>
<path d="M33.3649 350.25C33.3649 348.261 34.155 346.353 35.5616 344.947C36.9681 343.54 38.8757 342.75 40.8649 342.75H465.347C467.337 342.75 469.244 343.54 470.651 344.947C472.057 346.353 472.847 348.261 472.847 350.25C472.847 352.239 472.057 354.147 470.651 355.553C469.244 356.96 467.337 357.75 465.347 357.75H40.8649C38.8757 357.75 36.9681 356.96 35.5616 355.553C34.155 354.147 33.3649 352.239 33.3649 350.25Z" fill="#1A1A35"/>
<path d="M43.7499 71.205C43.7499 57.205 54.7974 45.87 68.4274 45.87C82.0574 45.87 93.1049 57.2125 93.1049 71.205C93.1049 85.1975 69.4374 110.8 69.4374 110.8C69.4374 110.8 43.7499 85.1975 43.7499 71.205Z" fill="#F75C3D"/>
<path d="M68.4299 84.605C75.8153 84.605 81.8024 78.6179 81.8024 71.2325C81.8024 63.847 75.8153 57.86 68.4299 57.86C61.0444 57.86 55.0574 63.847 55.0574 71.2325C55.0574 78.6179 61.0444 84.605 68.4299 84.605Z" fill="#1A1A35"/>
<path d="M69.4374 110.8L129.155 103.717L171.472 40.5575L264.102 53.5075L289.475 156.765L355.52 173.412L323.612 227.047" stroke="#F75C3D" stroke-width="8" stroke-miterlimit="10"/>
<path d="M321.438 240.315C326.201 240.315 330.062 236.453 330.062 231.69C330.062 226.927 326.201 223.065 321.438 223.065C316.674 223.065 312.812 226.927 312.812 231.69C312.812 236.453 316.674 240.315 321.438 240.315Z" fill="#F75C3D"/>
<path d="M324.963 235.216C326.911 233.269 326.911 230.111 324.963 228.163C323.015 226.215 319.857 226.215 317.909 228.163C315.962 230.111 315.962 233.269 317.909 235.216C319.857 237.164 323.015 237.164 324.963 235.216Z" fill="#F5F9FE"/>
<path d="M28.1449 200.205C26.7924 196.02 29.6799 190.985 33.9774 190.04C38.2749 189.095 43.0074 192.457 43.5349 196.822C46.8099 190.852 56.8724 190.597 60.4474 196.395C78.1701 194.728 96.0473 196.08 113.317 200.395L16.7749 201.895C21.5249 200.577 26.2799 199.25 28.1449 200.205Z" fill="#E2EEFC"/>
</g>
<defs>
<clipPath id="clip0_780_703">
<rect width="500" height="358" fill="white"/>
</clipPath>
</defs>
</svg>
