<svg width="500" height="328" viewBox="0 0 500 328" fill="none" xmlns="http://www.w3.org/2000/svg">
<g clip-path="url(#clip0_780_334)">
<path d="M53.5526 316.367C53.5526 316.367 -21.7799 228.33 85.3376 200.045C192.455 171.76 220.68 147.545 271.32 74.2524C321.96 0.959946 539.843 20.5624 451.218 319.752L53.5526 316.367Z" fill="#E2EEFC"/>
<path d="M83.265 144.102C153.485 145.798 223.282 107.19 259.162 46.8075C266.09 35.1475 263.332 18.66 252.987 9.89C242.642 1.12 225.925 1.0975 215.557 9.8425C198.395 24.315 175.637 30.02 153.557 34.04C131.477 38.06 108.685 40.98 88.7175 51.25C68.75 61.52 51.765 81.165 52.0775 103.613C52.39 126.06 75.59 143.917 83.265 144.102Z" fill="#E2EEFC"/>
<path d="M444.052 214.9H362.052V313.273H444.052V214.9Z" fill="#CCDEFF"/>
<path d="M387.448 220.047H367.198V223.797H387.448V220.047Z" fill="#E2EEFC"/>
<path d="M411.948 220.047H391.698V223.797H411.948V220.047Z" fill="#E2EEFC"/>
<path d="M435.948 220.047H415.698V223.797H435.948V220.047Z" fill="#E2EEFC"/>
<path d="M387.698 226.797H367.448V230.547H387.698V226.797Z" fill="#E2EEFC"/>
<path d="M412.198 226.797H391.948V230.547H412.198V226.797Z" fill="#E2EEFC"/>
<path d="M436.198 226.797H415.948V230.547H436.198V226.797Z" fill="#E2EEFC"/>
<path d="M387.698 233.547H367.448V237.297H387.698V233.547Z" fill="#E2EEFC"/>
<path d="M412.198 233.547H391.948V237.297H412.198V233.547Z" fill="#E2EEFC"/>
<path d="M436.198 233.547H415.948V237.297H436.198V233.547Z" fill="#E2EEFC"/>
<path d="M387.948 240.297H367.698V244.047H387.948V240.297Z" fill="#E2EEFC"/>
<path d="M412.448 240.297H392.198V244.047H412.448V240.297Z" fill="#E2EEFC"/>
<path d="M436.448 240.297H416.198V244.047H436.448V240.297Z" fill="#E2EEFC"/>
<path d="M388.198 247.047H367.948V250.797H388.198V247.047Z" fill="#E2EEFC"/>
<path d="M412.698 247.047H392.448V250.797H412.698V247.047Z" fill="#E2EEFC"/>
<path d="M436.698 247.047H416.448V250.797H436.698V247.047Z" fill="#E2EEFC"/>
<path d="M388.198 253.797H367.948V257.547H388.198V253.797Z" fill="#E2EEFC"/>
<path d="M412.698 253.797H392.448V257.547H412.698V253.797Z" fill="#E2EEFC"/>
<path d="M436.698 253.797H416.448V257.547H436.698V253.797Z" fill="#E2EEFC"/>
<path d="M436.698 264.085H367.948V289.085H436.698V264.085Z" fill="#E2EEFC"/>
<path d="M445.89 192.735H420.39V313.272H445.89V192.735Z" fill="#CCDEFF"/>
<path d="M450.98 203.772H443.48V313.272H450.98V203.772Z" fill="#CCDEFF"/>
<path d="M114.28 250.025H74.78V313.525H114.28V250.025Z" fill="#CCDEFF"/>
<path d="M108.297 256.295H78.9225V262.045H108.297V256.295Z" fill="#E2EEFC"/>
<path d="M108.297 265.9H78.9225V271.65H108.297V265.9Z" fill="#E2EEFC"/>
<path d="M108.312 275.502H78.9375V281.252H108.312V275.502Z" fill="#E2EEFC"/>
<path d="M108.312 284.91H78.9375V290.66H108.312V284.91Z" fill="#E2EEFC"/>
<path d="M143.055 229.775H103.555V313.525H143.055V229.775Z" fill="#CCDEFF"/>
<path d="M227.582 246.275H139.305V313.525H227.582V246.275Z" fill="#CCDEFF"/>
<path d="M74.78 276.275H52.78V313.525H74.78V276.275Z" fill="#CCDEFF"/>
<path d="M154.715 214.74H153.965V246.275H154.715V214.74Z" fill="#CCDEFF"/>
<path d="M163.135 222H162.385V246.275H163.135V222Z" fill="#CCDEFF"/>
<path d="M148.068 209.708H146.318V246.275H148.068V209.708Z" fill="#CCDEFF"/>
<path d="M86.67 240.922H79.42V250.025H86.67V240.922Z" fill="#CCDEFF"/>
<path d="M122.307 219.938H106.557V229.772H122.307V219.938Z" fill="#CCDEFF"/>
<path d="M136.083 209.708H129.333V229.775H136.083V209.708Z" fill="#CCDEFF"/>
<path d="M96.625 227.99H90.625V250.025H96.625V227.99Z" fill="#CCDEFF"/>
<path d="M61.405 279.9H55.53V285.775H61.405V279.9Z" fill="#E2EEFC"/>
<path d="M71.03 279.9H65.155V285.775H71.03V279.9Z" fill="#E2EEFC"/>
<path d="M61.405 289.775H55.53V295.65H61.405V289.775Z" fill="#E2EEFC"/>
<path d="M71.03 289.775H65.155V295.65H71.03V289.775Z" fill="#E2EEFC"/>
<path d="M61.405 299.65H55.53V305.525H61.405V299.65Z" fill="#E2EEFC"/>
<path d="M71.03 299.65H65.155V305.525H71.03V299.65Z" fill="#E2EEFC"/>
<path d="M110.562 235.098H108.312V310.848H110.562V235.098Z" fill="#E2EEFC"/>
<path d="M120.562 235.098H118.312V310.848H120.562V235.098Z" fill="#E2EEFC"/>
<path d="M129.565 235.098H127.315V310.848H129.565V235.098Z" fill="#E2EEFC"/>
<path d="M139.065 235.098H136.815V310.848H139.065V235.098Z" fill="#E2EEFC"/>
<path d="M215.448 246.953H175.948V310.453H215.448V246.953Z" fill="#CCDEFF"/>
<path d="M209.463 253.225H180.088V258.975H209.463V253.225Z" fill="#E2EEFC"/>
<path d="M209.463 262.828H180.088V268.578H209.463V262.828Z" fill="#E2EEFC"/>
<path d="M209.48 272.432H180.105V278.182H209.48V272.432Z" fill="#E2EEFC"/>
<path d="M209.48 281.84H180.105V287.59H209.48V281.84Z" fill="#E2EEFC"/>
<path d="M244.223 226.703H204.723V310.453H244.223V226.703Z" fill="#CCDEFF"/>
<path d="M328.75 243.203H240.473V310.453H328.75V243.203Z" fill="#CCDEFF"/>
<path d="M175.948 273.203H153.948V310.453H175.948V273.203Z" fill="#CCDEFF"/>
<path d="M255.88 211.67H255.13V243.205H255.88V211.67Z" fill="#CCDEFF"/>
<path d="M264.302 218.927H263.552V243.203H264.302V218.927Z" fill="#CCDEFF"/>
<path d="M249.235 206.635H247.485V243.203H249.235V206.635Z" fill="#CCDEFF"/>
<path d="M187.838 237.853H180.588V246.955H187.838V237.853Z" fill="#CCDEFF"/>
<path d="M223.473 216.867H207.723V226.702H223.473V216.867Z" fill="#CCDEFF"/>
<path d="M237.25 206.635H230.5V226.703H237.25V206.635Z" fill="#CCDEFF"/>
<path d="M197.792 224.92H191.792V246.955H197.792V224.92Z" fill="#CCDEFF"/>
<path d="M162.573 276.828H156.698V282.703H162.573V276.828Z" fill="#E2EEFC"/>
<path d="M172.198 276.828H166.323V282.703H172.198V276.828Z" fill="#E2EEFC"/>
<path d="M162.573 286.703H156.698V292.578H162.573V286.703Z" fill="#E2EEFC"/>
<path d="M172.198 286.703H166.323V292.578H172.198V286.703Z" fill="#E2EEFC"/>
<path d="M162.573 296.578H156.698V302.453H162.573V296.578Z" fill="#E2EEFC"/>
<path d="M172.198 296.578H166.323V302.453H172.198V296.578Z" fill="#E2EEFC"/>
<path d="M211.73 232.025H209.48V307.775H211.73V232.025Z" fill="#E2EEFC"/>
<path d="M221.73 232.025H219.48V307.775H221.73V232.025Z" fill="#E2EEFC"/>
<path d="M230.732 232.025H228.482V307.775H230.732V232.025Z" fill="#E2EEFC"/>
<path d="M240.233 232.025H237.983V307.775H240.233V232.025Z" fill="#E2EEFC"/>
<path d="M316.565 241.412H277.065V304.912H316.565V241.412Z" fill="#CCDEFF"/>
<path d="M310.58 247.685H281.205V253.435H310.58V247.685Z" fill="#E2EEFC"/>
<path d="M310.58 257.287H281.205V263.037H310.58V257.287Z" fill="#E2EEFC"/>
<path d="M310.595 266.89H281.22V272.64H310.595V266.89Z" fill="#E2EEFC"/>
<path d="M310.595 276.3H281.22V282.05H310.595V276.3Z" fill="#E2EEFC"/>
<path d="M345.34 221.162H305.84V304.912H345.34V221.162Z" fill="#CCDEFF"/>
<path d="M429.868 237.662H341.59V304.912H429.868V237.662Z" fill="#CCDEFF"/>
<path d="M277.065 267.662H255.065V304.912H277.065V267.662Z" fill="#CCDEFF"/>
<path d="M356.998 206.127H356.248V237.662H356.998V206.127Z" fill="#CCDEFF"/>
<path d="M365.417 213.387H364.667V237.662H365.417V213.387Z" fill="#CCDEFF"/>
<path d="M350.35 201.095H348.6V237.662H350.35V201.095Z" fill="#CCDEFF"/>
<path d="M288.953 232.31H281.703V241.413H288.953V232.31Z" fill="#CCDEFF"/>
<path d="M324.59 211.328H308.84V221.163H324.59V211.328Z" fill="#CCDEFF"/>
<path d="M338.367 201.095H331.617V221.162H338.367V201.095Z" fill="#CCDEFF"/>
<path d="M298.907 219.38H292.907V241.415H298.907V219.38Z" fill="#CCDEFF"/>
<path d="M263.69 271.287H257.815V277.162H263.69V271.287Z" fill="#E2EEFC"/>
<path d="M273.315 271.287H267.44V277.162H273.315V271.287Z" fill="#E2EEFC"/>
<path d="M263.69 281.162H257.815V287.037H263.69V281.162Z" fill="#E2EEFC"/>
<path d="M273.315 281.162H267.44V287.037H273.315V281.162Z" fill="#E2EEFC"/>
<path d="M263.69 291.037H257.815V296.912H263.69V291.037Z" fill="#E2EEFC"/>
<path d="M273.315 291.037H267.44V296.912H273.315V291.037Z" fill="#E2EEFC"/>
<path d="M312.845 226.485H310.595V302.235H312.845V226.485Z" fill="#E2EEFC"/>
<path d="M322.845 226.485H320.595V302.235H322.845V226.485Z" fill="#E2EEFC"/>
<path d="M331.847 226.485H329.597V302.235H331.847V226.485Z" fill="#E2EEFC"/>
<path d="M341.35 226.485H339.1V302.235H341.35V226.485Z" fill="#E2EEFC"/>
<path d="M362.052 282.66H321.552V313.488H362.052V282.66Z" fill="#CCDEFF"/>
<path d="M400.062 305.708H398.562V307.208H400.062V305.708Z" fill="#CCDEFF"/>
<path d="M99.13 45.885H81.63V312.3H99.13V45.885Z" fill="#EC7F37"/>
<path d="M141.903 75.595H72.0825V97.565H141.903V75.595Z" fill="#FEBE3D"/>
<path d="M38.855 85.0425L72.0825 63.485V106.597L38.855 85.0425Z" fill="#FEBE3D"/>
<path d="M99.13 97.5649H81.63V101.815H99.13V97.5649Z" fill="#A54545"/>
<path d="M141.903 97.265H72.0825V99.015H141.903V97.265Z" fill="#F8A23A"/>
<path d="M141.903 75.595H72.0825V77.9175H141.903V75.595Z" fill="#FCE373"/>
<path d="M341.088 17.765L334.878 15.765C337.378 8.35502 348.358 5.64752 354.003 11.055C351.04 7.51002 353.503 1.07252 358.075 0.407522C362.648 -0.257478 366.825 5.22002 365.003 9.46002C368.54 5.38252 376.19 6.33252 378.62 11.1525C381.538 7.53752 387.923 7.65252 390.713 11.3625C403.834 8.90849 417.383 10.2315 429.783 15.1775L318.968 20.555C326.948 19.1025 334.928 17.645 341.088 17.765Z" fill="#E2EEFC"/>
<path d="M465.307 228.865H355.38V282.258H465.307V228.865Z" fill="#FEBE3D"/>
<path d="M382.195 228.865H355.38V282.258H382.195V228.865Z" fill="#F8A23A"/>
<path d="M433.488 178.568H368.788V228.862H433.488V178.568Z" fill="#FEBE3D"/>
<path d="M385.12 178.568H368.788V228.862H385.12V178.568Z" fill="#F8A23A"/>
<path d="M368.62 228.988L385.118 227.488L418.575 229.218L368.62 228.988Z" fill="#EC7F37"/>
<path d="M462.032 233.445H439.575V238.385H462.032V233.445Z" fill="white"/>
<path d="M462.393 240.983H439.935V245.923H462.393V240.983Z" fill="white"/>
<path d="M431.142 181.465H415.438V186.405H431.142V181.465Z" fill="white"/>
<path d="M431.142 188.218H415.438V193.158H431.142V188.218Z" fill="white"/>
<path d="M465.307 228.865H355.38V282.258H465.307V228.865Z" fill="#FEBE3D"/>
<path d="M382.195 228.865H355.38V282.258H382.195V228.865Z" fill="#F8A23A"/>
<path d="M433.488 178.568H368.788V228.862H433.488V178.568Z" fill="#FEBE3D"/>
<path d="M385.12 178.568H368.788V228.862H385.12V178.568Z" fill="#F8A23A"/>
<path d="M368.62 228.988L385.118 227.488L418.575 229.218L368.62 228.988Z" fill="#EC7F37"/>
<path d="M462.032 233.445H439.575V238.385H462.032V233.445Z" fill="white"/>
<path d="M462.393 240.983H439.935V245.923H462.393V240.983Z" fill="white"/>
<path d="M431.142 181.465H415.438V186.405H431.142V181.465Z" fill="white"/>
<path d="M431.142 188.218H415.438V193.158H431.142V188.218Z" fill="white"/>
<path d="M469.74 312.758H30.2574V327.758H469.74V312.758Z" fill="#1A1A35"/>
<path d="M378.203 117.82C378.203 103.82 389.25 92.485 402.88 92.485C416.51 92.485 427.558 103.827 427.558 117.82C427.558 131.812 403.888 157.415 403.888 157.415C403.888 157.415 378.203 131.812 378.203 117.82Z" fill="#F75C3D"/>
<path d="M402.88 131.22C410.265 131.22 416.253 125.233 416.253 117.847C416.253 110.462 410.265 104.475 402.88 104.475C395.495 104.475 389.508 110.462 389.508 117.847C389.508 125.233 395.495 131.22 402.88 131.22Z" fill="#1A1A35"/>
<path d="M345.965 285.75C345.965 284.822 346.334 283.931 346.99 283.275C347.647 282.619 348.537 282.25 349.465 282.25H463.215C464.143 282.25 465.034 282.619 465.69 283.275C466.346 283.931 466.715 284.822 466.715 285.75C466.715 286.678 466.346 287.569 465.69 288.225C465.034 288.881 464.143 289.25 463.215 289.25H349.465C348.537 289.25 347.647 288.881 346.99 288.225C346.334 287.569 345.965 286.678 345.965 285.75Z" fill="#1A1A35"/>
<path d="M318.965 122.91C318.965 121.982 319.334 121.092 319.99 120.435C320.647 119.779 321.537 119.41 322.465 119.41H342.465C343.393 119.41 344.284 119.779 344.94 120.435C345.596 121.092 345.965 121.982 345.965 122.91C345.965 123.838 345.596 124.729 344.94 125.385C344.284 126.041 343.393 126.41 342.465 126.41H322.465C321.537 126.41 320.647 126.041 319.99 125.385C319.334 124.729 318.965 123.838 318.965 122.91Z" fill="#E44531"/>
<path d="M345.965 292.41C345.037 292.41 344.147 292.041 343.49 291.385C342.834 290.729 342.465 289.838 342.465 288.91V113.41C342.465 112.482 342.834 111.592 343.49 110.935C344.147 110.279 345.037 109.91 345.965 109.91C346.893 109.91 347.784 110.279 348.44 110.935C349.096 111.592 349.465 112.482 349.465 113.41V288.91C349.465 289.838 349.096 290.729 348.44 291.385C347.784 292.041 346.893 292.41 345.965 292.41Z" fill="#1A1A35"/>
<path d="M322.465 113.41C322.465 112.482 322.834 111.592 323.49 110.935C324.147 110.279 325.037 109.91 325.965 109.91H345.965C346.893 109.91 347.784 110.279 348.44 110.935C349.096 111.592 349.465 112.482 349.465 113.41C349.465 114.338 349.096 115.229 348.44 115.885C347.784 116.541 346.893 116.91 345.965 116.91H325.965C325.037 116.91 324.147 116.541 323.49 115.885C322.834 115.229 322.465 114.338 322.465 113.41Z" fill="#F75C3D"/>
<path d="M346.242 320.258C355.769 320.258 363.492 312.534 363.492 303.008C363.492 293.481 355.769 285.758 346.242 285.758C336.716 285.758 328.992 293.481 328.992 303.008C328.992 312.534 336.716 320.258 346.242 320.258Z" fill="#1A1A35"/>
<path d="M357.081 305.314C358.351 299.331 354.531 293.45 348.548 292.18C342.565 290.909 336.684 294.729 335.414 300.712C334.143 306.696 337.963 312.576 343.946 313.847C349.93 315.117 355.81 311.297 357.081 305.314Z" fill="#38385C"/>
<path d="M217.515 310.325L187.865 306.478C188.041 304.906 188.326 303.349 188.717 301.818C190.507 301.336 192.282 300.798 194.042 300.205C194.109 300.854 194.322 301.48 194.665 302.035C195.217 302.86 196.39 303.36 197.235 302.845C197.107 301.633 196.985 300.425 196.857 299.21C197.222 299.077 197.58 298.94 197.945 298.797C197.945 298.985 197.945 299.173 197.945 299.358C197.915 300.045 197.857 300.745 198.04 301.41C198.222 302.075 198.707 302.702 199.385 302.837C200.062 302.972 200.845 302.395 200.747 301.715C200.569 300.443 200.389 299.17 200.207 297.895C200.585 297.74 200.957 297.58 201.327 297.42C201.537 298.973 201.746 300.528 201.952 302.085C202.73 302.585 203.82 301.875 204.065 300.985C204.197 300.384 204.164 299.759 203.97 299.175C203.89 298.872 203.787 298.572 203.692 298.28C203.692 298.237 203.662 298.192 203.65 298.15C203.462 297.626 203.351 297.078 203.32 296.522C203.645 296.375 203.967 296.223 204.287 296.068C204.347 296.155 204.412 296.24 204.477 296.318C205.949 298.256 208.018 299.655 210.365 300.3C212.711 300.944 215.205 300.798 217.46 299.883C217.762 299.758 218.062 299.633 218.35 299.473C218.085 303 217.825 306.5 217.515 310.325Z" fill="#F75C3D"/>
<path d="M217.323 312.585C207.45 311.098 197.573 309.608 187.635 308.31C187.708 307.698 187.785 307.083 187.865 306.478C197.75 307.763 207.633 309.045 217.515 310.325C217.45 311.065 217.388 311.818 217.323 312.585Z" fill="black"/>
<path d="M201.943 302.083C201.736 300.528 201.528 298.973 201.318 297.418C201.983 297.128 202.648 296.828 203.318 296.52C203.349 297.076 203.46 297.624 203.648 298.148C203.66 298.19 203.678 298.235 203.69 298.278C203.785 298.57 203.887 298.87 203.967 299.173C204.162 299.756 204.194 300.382 204.062 300.983C203.81 301.875 202.72 302.588 201.943 302.083Z" fill="white"/>
<path d="M199.375 302.835C198.698 302.702 198.215 302.07 198.03 301.408C197.845 300.745 197.905 300.043 197.935 299.355C197.935 299.17 197.935 298.983 197.935 298.795C198.685 298.508 199.435 298.203 200.185 297.89C200.368 299.163 200.548 300.437 200.725 301.71C200.835 302.392 200.05 302.965 199.375 302.835Z" fill="white"/>
<path d="M197.235 302.845C196.39 303.362 195.217 302.86 194.665 302.035C194.321 301.48 194.108 300.854 194.042 300.205C194.986 299.89 195.924 299.557 196.857 299.205C196.982 300.425 197.107 301.632 197.235 302.845Z" fill="white"/>
<path d="M217.447 299.885C215.192 300.8 212.699 300.947 210.352 300.302C208.005 299.658 205.936 298.258 204.465 296.32C205.661 293.397 206.296 290.275 206.337 287.117C211.05 288.41 215.76 289.697 220.3 290.907C219.352 293.899 218.401 296.892 217.447 299.885Z" fill="#FBB8A5"/>
<path d="M283.6 293.128C274.815 297.831 266.032 302.538 257.25 307.25C256.478 305.87 255.804 304.437 255.233 302.963C256.399 301.528 257.531 300.058 258.628 298.555C259.06 299.045 259.597 299.431 260.2 299.683C261.13 300.033 262.375 299.758 262.763 298.848L260.34 296.11C260.56 295.79 260.77 295.47 260.985 295.143C261.098 295.293 261.2 295.448 261.303 295.603C261.678 296.18 262.038 296.783 262.573 297.218C263.108 297.653 263.868 297.88 264.495 297.595C265.123 297.31 265.425 296.388 264.95 295.89C264.065 294.96 263.178 294.029 262.288 293.098C262.505 292.753 262.713 292.405 262.923 292.06C263.995 293.2 265.073 294.348 266.143 295.493C267.068 295.45 267.54 294.243 267.22 293.37C266.977 292.805 266.587 292.315 266.09 291.953C265.84 291.755 265.59 291.568 265.34 291.385L265.23 291.305C264.773 290.988 264.363 290.607 264.015 290.173C264.193 289.863 264.368 289.553 264.538 289.24C264.638 289.275 264.74 289.308 264.843 289.338C267.167 290.059 269.664 289.995 271.948 289.154C274.232 288.314 276.176 286.744 277.478 284.688C277.65 284.41 277.815 284.128 277.965 283.838C279.798 286.83 281.633 289.84 283.6 293.128Z" fill="#F75C3D"/>
<path d="M284.75 295.077C275.853 299.607 266.955 304.137 258.113 308.865C257.815 308.322 257.52 307.777 257.233 307.24L283.59 293.127C283.98 293.767 284.365 294.415 284.75 295.077Z" fill="black"/>
<path d="M266.137 295.477L262.917 292.045C263.29 291.42 263.667 290.795 264.012 290.157C264.361 290.591 264.771 290.972 265.227 291.29L265.337 291.37C265.587 291.552 265.837 291.737 266.087 291.937C266.585 292.299 266.975 292.789 267.217 293.355C267.537 294.222 267.065 295.435 266.137 295.477Z" fill="white"/>
<path d="M264.5 297.582C263.872 297.867 263.113 297.635 262.578 297.205C262.043 296.775 261.682 296.167 261.307 295.59C261.205 295.437 261.102 295.28 260.99 295.13C261.435 294.457 261.87 293.772 262.295 293.085C263.185 294.015 264.072 294.946 264.957 295.877C265.417 296.375 265.113 297.297 264.5 297.582Z" fill="white"/>
<path d="M262.75 298.835C262.362 299.747 261.118 300.02 260.188 299.67C259.584 299.419 259.046 299.033 258.615 298.542C259.197 297.737 259.768 296.922 260.328 296.095C261.138 297.012 261.945 297.925 262.75 298.835Z" fill="white"/>
<path d="M277.475 284.672C276.173 286.729 274.23 288.299 271.946 289.139C269.662 289.98 267.164 290.044 264.84 289.322C264.114 286.249 262.816 283.34 261.012 280.747C265.597 279.057 270.18 277.365 274.575 275.71C275.543 278.695 276.51 281.682 277.475 284.672Z" fill="#FBB8A5"/>
<path d="M255.225 285.747L217.338 122.255L256.865 134.61L280.825 275.788L255.225 285.747Z" fill="#1A1A35"/>
<path d="M201.905 290.16L211.85 131.395L253.238 140.795L225.883 292.288L201.905 290.16Z" fill="#38385C"/>
<path d="M212.32 49.25C214.005 49.1525 213.905 49.75 215.14 50.9025C215.616 51.389 215.994 51.9617 216.255 52.59C217.638 55.5535 218.192 58.8367 217.857 62.09C221.015 59.2662 224.663 57.0438 228.62 55.5325C226.852 53.08 225.9 50.145 225.107 47.2275C224.875 46.2241 224.54 45.2473 224.107 44.3125C223.911 43.878 223.612 43.4972 223.237 43.2025C222.585 42.7375 221.71 42.735 220.917 42.8575C218.78 43.1875 216.837 44.27 215.002 45.415C213.601 46.29 212.23 47.2125 210.89 48.1825C210.422 48.52 212.36 48.9325 212.315 49.5125" fill="#FBB089"/>
<path d="M218.06 88.1425C218.06 88.1425 195.5 101.265 189.89 97.3425C189.89 97.3425 172.97 94.0625 163.525 51.265C163.247 50.0134 162.976 48.7259 162.713 47.4025L169.213 44.7175C169.213 44.7175 170.35 46.0825 172.16 48.4075C177.09 54.7325 186.998 68.1575 192.473 80.4475C192.473 80.4475 209.693 64.2275 220.458 60.415L218.06 88.1425Z" fill="#5F6730"/>
<path d="M217.207 63.3625C216.275 63.3925 215.737 64.7575 216.397 65.415C215.095 65.72 214.572 67.2575 214.292 68.5675C210.16 87.87 210.68 107.817 209.677 127.53C209.53 130.42 209.347 133.325 208.677 136.143C212.978 136.399 217.294 136.208 221.555 135.572C224.87 135.072 228.185 134.323 231.53 134.505C234.572 134.68 237.51 135.637 240.507 136.185C245.116 137.024 249.849 136.896 254.405 135.807C255.477 132.227 255.312 128.4 254.927 124.682C253.832 114.077 251.06 103.727 248.297 93.4325C247.122 89.05 245.935 84.64 244.01 80.5325C242.84 78.0325 241.405 75.6725 239.975 73.315L230.55 57.7775C230.277 57.33 229.965 56.8475 229.465 56.685C228.75 56.4525 228.032 56.9725 227.447 57.435C224.029 60.2028 220.197 62.418 216.092 64" fill="#3C411F"/>
<path d="M229.698 52.42C224.388 55.2257 219.279 58.3941 214.405 61.9025C214.968 62.7424 215.302 63.7143 215.374 64.7225C215.447 65.7308 215.256 66.7406 214.82 67.6525C220.488 62.881 226.655 58.7353 233.213 55.2876C232.016 54.3145 230.77 53.4033 229.48 52.5575" fill="#38385C"/>
<path d="M290.158 96.6825H191.588V149.492H290.158V96.6825Z" fill="#FEBE3D"/>
<path d="M216.47 96.6825H191.588V149.492H216.47V96.6825Z" fill="#F8A23A"/>
<path d="M286.585 99.7225H262.66V104.908H286.585V99.7225Z" fill="white"/>
<path d="M286.585 106.812H262.66V111.997H286.585V106.812Z" fill="white"/>
<path d="M225.345 57.125L230.275 55.375C230.275 55.375 231.94 53.5275 244.148 65.395C256.355 77.2625 274.325 104.838 274.325 104.838L250.075 146.178L242.143 141.098L252.948 104.348C252.948 104.348 196.165 44.7825 237.32 59.1475" fill="#5F6730"/>
<path d="M242.25 140.812C240.38 141.34 238.908 142.35 237.25 143.332C237.058 143.416 236.893 143.549 236.771 143.719C236.65 143.889 236.577 144.089 236.56 144.297C236.049 146.476 235.273 148.585 234.25 150.575C236.348 151.151 238.506 151.48 240.68 151.555C240.962 151.582 241.247 151.553 241.518 151.47C241.853 151.314 242.137 151.066 242.337 150.755C242.85 150.074 243.278 149.334 243.613 148.55C246.073 148.05 248.35 147.932 250.075 146.175C247.882 145.135 245.94 143.057 243.875 141.792C243.307 141.445 242.795 141.042 242.215 140.792" fill="#FBB089"/>
<path d="M230.975 24.225C231.225 24.1725 231.45 24.1125 231.68 24.0475L231.825 24.005L231.682 24.0475C231.447 24.11 231.212 24.1725 230.975 24.225Z" fill="#E1C2B0"/>
<path d="M204 36.7C203.965 37.2324 203.975 37.7668 204.03 38.2975C204.268 40.8875 205.075 42.1525 206.115 42.64C206.189 42.6755 206.265 42.7064 206.343 42.7325C206.951 42.9269 207.602 42.9451 208.22 42.785C207.97 41.145 207.77 39.57 207.615 38.2C207.5 37.2225 207.413 36.35 207.365 35.625C207.015 35.875 205.768 34.4525 205.768 34.4525C204.683 34.68 204.148 35.6275 204 36.7Z" fill="#E88A78"/>
<path d="M220.985 53.89C220.985 53.89 220.985 53.89 220.985 53.865C220.985 53.84 220.967 53.8875 220.985 53.89ZM215.985 51.8175C216.807 52.0675 218.08 50.0325 218.735 50.19C219.577 50.395 220.217 50.5175 220.512 50.57L220.577 50.5825V50.6199L220.625 50.59H220.68V50.5525C220.83 50.46 221.157 50.2575 221.592 49.9675C221.887 49.775 222.232 49.5375 222.61 49.27C223.287 48.7875 225.197 48.88 225.982 48.21C226.132 49.46 225.752 49.98 226.557 51.695C226.42 51.8626 226.274 52.0228 226.12 52.175C225.643 52.6592 225.105 53.0794 224.52 53.425C223.688 53.9125 222.778 54.2509 221.83 54.425C221.013 54.5779 220.179 54.6099 219.352 54.52C218.546 54.4322 217.758 54.2197 217.017 53.89C216.837 53.81 216.857 53.6799 216.685 53.5874C216.925 52.4199 217.162 55.3725 216 51.8175H215.985Z" fill="#E88A78"/>
<path d="M229.943 43.4375C230.662 43.8398 231.486 44.0191 232.307 43.9525C232.52 43.9247 232.727 43.8692 232.925 43.7876C233.95 43.3651 234.835 42.1976 235.35 39.7876C235.9 37.2026 235.365 36.155 234.485 35.8525H234.473C234.361 35.9587 234.232 36.0434 234.09 36.1025C233.615 36.5775 231.75 36.66 231.445 37.19C231.393 37.4525 231.333 37.7325 231.268 38.0275C231.24 38.1575 231.21 38.2776 231.18 38.4276L231.135 38.6326L231.038 39.0526C231.038 39.0726 231.038 39.0926 231.023 39.1151C230.963 39.3651 230.902 39.6326 230.837 39.8976C230.817 39.9851 230.795 40.0775 230.773 40.1675V40.2C230.74 40.3375 230.702 40.4775 230.67 40.6175C230.637 40.7575 230.617 40.8275 230.59 40.935C230.387 41.735 230.175 42.575 229.943 43.4375Z" fill="#E88A78"/>
<path d="M211.34 31.8075L217.427 30.59C217.249 30.4934 217.063 30.4099 216.872 30.34C216.041 30.0497 215.148 29.9784 214.281 30.1329C213.413 30.2875 212.6 30.6628 211.92 31.2226C211.709 31.3988 211.514 31.5947 211.34 31.8075Z" fill="#FFECE6"/>
<path d="M207.343 35.625C207.4 36.35 207.49 37.225 207.593 38.2025C207.748 39.5725 207.958 41.1476 208.198 42.7876C208.305 43.5376 208.42 44.2876 208.54 45.0376C208.79 46.6176 210.025 48.1175 211.54 49.41C212.506 50.2176 213.532 50.9497 214.61 51.6001C215.345 52.0501 216.048 52.435 216.643 52.7475C217.41 53.15 218.003 53.4225 218.275 53.5475L218.335 53.5775L218.388 53.6001L218.44 53.5826C218.608 53.5275 218.975 53.4125 219.468 53.235C219.8 53.1175 220.193 52.9851 220.623 52.8026C221.395 52.4976 222.3 52.1101 223.225 51.6476C224.385 51.0804 225.489 50.4049 226.523 49.6301C227.79 48.6525 228.803 47.5175 229.163 46.2475C229.43 45.3025 229.688 44.3601 229.93 43.4451C230.163 42.5826 230.375 41.7426 230.57 40.9451C230.595 40.8376 230.623 40.7325 230.65 40.6275C230.678 40.5225 230.72 40.3451 230.753 40.2101V40.1776C230.773 40.0876 230.798 39.995 230.818 39.9075C230.883 39.6375 230.945 39.3775 231.003 39.125C231.009 39.1045 231.014 39.0836 231.018 39.0625C231.051 38.9175 231.083 38.7775 231.115 38.6425L231.16 38.4375C231.19 38.3 231.22 38.1676 231.248 38.0376C231.313 37.7426 231.373 37.46 231.425 37.2C231.41 37.2261 231.398 37.2538 231.39 37.2825C231.333 36.89 231.275 36.495 231.215 36.1025C230.778 35.3525 230.128 34.225 229.378 32.94L229 32.25L228.46 31.3326L228.05 30.6326L227.63 29.9225C227.408 29.545 227.183 29.1725 226.958 28.79C226.091 29.473 225.184 30.1041 224.243 30.68C224.084 30.6837 223.927 30.6963 223.77 30.7175L223.993 30.83C219.463 33.5216 214.317 35.0039 209.05 35.135C208.8 35.135 208.55 35.135 208.3 35.135C208.25 35.14 207.375 35.66 207.343 35.625Z" fill="#FBB089"/>
<path d="M230.413 12.25C230.36 12.22 230.308 12.1875 230.253 12.16C231.525 13.1903 232.66 14.3792 233.63 15.6975C232.896 14.2735 231.783 13.0804 230.413 12.25ZM223.82 30.7475C216.875 31.7725 208.39 32.675 201.26 32.4025C201.28 32.4375 201.305 32.475 201.328 32.51C201.35 32.545 201.328 32.51 201.328 32.51C201.813 33.405 202.52 35.23 203.365 36.1975C203.537 36.4075 203.747 36.5824 203.985 36.7125C203.984 36.7084 203.984 36.7041 203.985 36.7C204.143 35.6275 204.678 34.68 205.735 34.45C205.735 34.45 206.985 35.865 207.335 35.6225C207.368 35.6575 208.23 35.1375 208.275 35.1375C208.525 35.1375 208.775 35.1375 209.025 35.1375C214.304 35.0087 219.461 33.5236 224 30.825L223.82 30.7475ZM202.113 28.335H200.04H202.115C202.115 28.335 202.11 28.33 202.11 28.3275L202.113 28.335ZM202.593 15.77L202.698 15.8175C203.592 14.5826 204.63 13.4589 205.79 12.47C204.511 13.339 203.422 14.4592 202.59 15.7625L202.593 15.77Z" fill="#38385C"/>
<path d="M237.345 28.28C237.137 29.16 236.927 30.03 236.695 30.9075C236.557 31.425 236.412 31.935 236.255 32.44C235.735 33.505 235.217 34.57 234.7 35.635L234.542 35.7875L234.485 35.8425H234.472C234.362 35.9496 234.232 36.0345 234.09 36.0925C233.612 36.5675 231.747 36.65 231.445 37.18C231.43 37.2059 231.418 37.2336 231.41 37.2625L231.237 36.0825L231.17 35.6275C230.878 33.6425 230.586 31.6584 230.292 29.675C231.165 29.52 231.975 29.37 232.712 29.2325C234.73 28.8525 236.192 28.55 236.872 28.405H236.9L237.3 28.32C237.3 28.32 237.3 28.2975 237.3 28.285L237.345 28.28Z" fill="#38385C"/>
<path d="M226.953 28.785L227.625 29.9175L228.045 30.6275C228.183 30.8625 228.323 31.095 228.455 31.3275L229 32.25L229.405 32.9425C230.155 34.2275 230.805 35.345 231.243 36.105L231.175 35.65C230.79 33.0416 230.406 30.4366 230.023 27.835C229.94 27.2975 229.863 26.76 229.773 26.225C229.61 26.3925 229.45 26.56 229.273 26.725C228.537 27.4536 227.763 28.1412 226.953 28.785Z" fill="#E88A78"/>
<path d="M221 14.4524C221.19 14.4674 221.38 14.4874 221.57 14.5124C221.73 14.5324 221.89 14.5549 222.05 14.5824C222.158 14.5999 222.265 14.6174 222.375 14.6399L222.712 14.7124L223.048 14.7924C223.195 14.8299 223.345 14.8699 223.492 14.9149C223.682 14.9699 223.872 15.0299 224.057 15.0949L224.215 15.1499C224.34 15.1949 224.465 15.2374 224.585 15.2874C224.655 15.3124 224.727 15.3424 224.795 15.3724L224.947 15.4349C225.007 15.4574 225.062 15.4824 225.12 15.5099C225.295 15.5874 225.465 15.6674 225.635 15.7599C225.805 15.8524 225.97 15.9274 226.135 16.0099C226.225 16.0574 226.312 16.1049 226.4 16.1574C226.487 16.2099 226.527 16.2299 226.587 16.2674L226.64 16.2999C226.677 16.3198 226.713 16.3415 226.747 16.3649L226.887 16.4499C227.455 16.8065 227.996 17.2025 228.508 17.6349L228.59 17.7049C228.968 18.0329 229.33 18.38 229.673 18.7449C229.723 18.7974 229.773 18.8524 229.82 18.9074C229.868 18.9624 229.972 19.0749 230.045 19.1574C230.117 19.2399 230.19 19.3274 230.258 19.4074C230.325 19.4874 230.425 19.6149 230.508 19.7174C230.558 19.7799 230.603 19.8424 230.648 19.9049C230.73 20.0124 230.805 20.1224 230.883 20.2349L231.06 20.4974C231.1 20.5574 231.14 20.6199 231.175 20.6799C231.196 20.7105 231.215 20.7422 231.232 20.7749L231.298 20.8774C231.375 21.0049 231.45 21.1274 231.523 21.2624C231.595 21.3974 231.665 21.5124 231.73 21.6574C231.795 21.8024 231.863 21.9224 231.925 22.0574C231.988 22.1924 232.045 22.3274 232.102 22.4624C232.132 22.5299 232.157 22.5999 232.185 22.6674C232.207 22.6049 232.23 22.5424 232.247 22.4774C232.265 22.4124 232.275 22.3924 232.288 22.3474C232.288 22.3474 232.288 22.3474 232.288 22.3349C232.295 22.3208 232.3 22.3056 232.303 22.2899C232.303 22.2899 232.303 22.2899 232.303 22.2774C232.318 22.2299 232.33 22.1824 232.342 22.1349C232.375 22.0249 232.4 21.9149 232.423 21.8024C232.423 21.7624 232.44 21.7224 232.447 21.6799C232.455 21.6374 232.465 21.5974 232.47 21.5574C232.475 21.5174 232.493 21.4174 232.503 21.3499C232.504 21.3375 232.504 21.3249 232.503 21.3124V21.2574C232.503 21.1974 232.518 21.1399 232.523 21.0824C232.523 21.0699 232.523 21.0549 232.523 21.0424C232.523 20.9524 232.54 20.8649 232.545 20.7749C232.55 20.6849 232.545 20.6224 232.545 20.5474C232.545 20.4199 232.545 20.2974 232.545 20.1649C232.547 20.1408 232.547 20.1165 232.545 20.0924C232.545 20.0449 232.545 19.9949 232.545 19.9449V19.8099C232.545 19.7124 232.53 19.6124 232.518 19.5149C232.518 19.5149 232.518 19.4924 232.518 19.4824C232.518 19.3824 232.492 19.2824 232.477 19.1824C232.462 19.0824 232.453 19.0324 232.438 18.9574C232.422 18.8824 232.41 18.8074 232.393 18.7324C232.387 18.6994 232.38 18.6668 232.37 18.6349C232.37 18.5899 232.347 18.5449 232.337 18.4999C232.327 18.4549 232.308 18.3774 232.288 18.3149C232.268 18.2524 232.288 18.2624 232.268 18.2374C232.248 18.2124 232.235 18.1224 232.217 18.0674C232.172 17.9224 232.123 17.7774 232.068 17.6349C232.043 17.5699 232.018 17.5024 231.99 17.4374C231.93 17.2924 231.865 17.1474 231.795 17.0049C231.77 16.9549 231.748 16.9049 231.72 16.8549C231.678 16.7699 231.63 16.6849 231.585 16.6049L231.5 16.4574C231.47 16.4074 231.443 16.3574 231.413 16.3099C231.353 16.2133 231.29 16.1183 231.225 16.0249L231.092 15.8374C231.025 15.7449 230.953 15.6549 230.883 15.5674C230.813 15.4799 230.735 15.3924 230.66 15.3174C230.585 15.2424 230.558 15.2024 230.505 15.1499C230.453 15.0974 230.355 14.9999 230.277 14.9249L230.027 14.7099C229.972 14.6649 229.92 14.6174 229.865 14.5749L229.637 14.3999L229.48 14.2874C229.4 14.2324 229.32 14.1774 229.23 14.1274L228.98 13.9774C228.922 13.9449 228.867 13.9124 228.807 13.8824C228.747 13.8524 228.695 13.8224 228.635 13.7949L228.475 13.7174L228.25 13.6174L228.08 13.5474L228.005 13.5199L227.925 13.4899L227.765 13.4324L227.56 13.3674C227.395 13.3174 227.227 13.2724 227.06 13.2324L226.822 13.1824L226.598 13.1424L226.523 13.1299H226.485L226.298 13.1024C226.22 13.1024 226.142 13.0824 226.062 13.0774H225.958L225.78 13.0649C225.685 13.0649 225.592 13.0649 225.497 13.0649H225.438C225.34 13.0649 225.24 13.0649 225.143 13.0649C224.98 13.0649 224.823 13.0774 224.663 13.0924L224.505 13.1074C224.398 13.1074 224.293 13.1324 224.188 13.1474L223.872 13.2024C223.767 13.2224 223.662 13.2449 223.56 13.2699C223.457 13.2949 223.355 13.3199 223.253 13.3499L222.97 13.4374C222.949 13.4434 222.928 13.4509 222.908 13.4599L222.75 13.4999L222.658 13.5324L222.395 13.6399C222.32 13.6699 222.25 13.7049 222.178 13.7399L221.988 13.8349C221.97 13.8416 221.953 13.8509 221.938 13.8624L221.758 13.9599C221.494 14.1068 221.241 14.2713 221 14.4524Z" fill="#82635A"/>
<path d="M237.302 28.2925C237.302 28.305 237.302 28.315 237.302 28.3275L236.902 28.4125L237.19 28.3275L237.302 28.2925Z" fill="#82635A"/>
<path d="M228.928 36.2775L222.838 33.9675C223.965 33.622 225.175 33.6615 226.278 34.0797C227.381 34.4979 228.313 35.2711 228.928 36.2775Z" fill="#101029"/>
<path d="M213.958 34.6525L208.708 36.28C209.323 35.519 210.15 34.958 211.085 34.6682C212.02 34.3784 213.02 34.373 213.958 34.6525Z" fill="#101029"/>
<path d="M212.083 36.335C212.775 36.1175 213.583 36.7725 213.913 37.7925C214.243 38.8125 213.928 39.8175 213.235 40.0425C212.543 40.2675 211.72 39.605 211.403 38.5825C211.085 37.56 211.388 36.55 212.083 36.335Z" fill="#101029"/>
<path d="M223.59 36.485C224.315 36.42 224.98 37.235 225.075 38.295C225.17 39.355 224.665 40.2775 223.94 40.345C223.215 40.4125 222.553 39.595 222.458 38.5325C222.363 37.47 222.868 36.55 223.59 36.485Z" fill="#101029"/>
<path d="M216.342 35.6975C216.634 37.1425 216.927 38.5867 217.222 40.03C217.169 39.8475 217.072 39.6804 216.941 39.5428C216.809 39.4052 216.647 39.301 216.467 39.239C216.287 39.1769 216.095 39.1588 215.907 39.1862C215.719 39.2135 215.54 39.2855 215.385 39.3962C215.23 39.5068 215.104 39.6529 215.017 39.8222C214.93 39.9915 214.885 40.1791 214.886 40.3694C214.886 40.5597 214.932 40.7471 215.02 40.9159C215.108 41.0848 215.235 41.2302 215.39 41.34L218.577 43.59" fill="#FB6562"/>
<path d="M215.5 45.7501C219.293 46.8751 223.733 45.2176 225.86 41.8826C225.981 43.1639 225.685 44.4501 225.015 45.5494C224.346 46.6486 223.339 47.5021 222.145 47.9826C219.73 48.8876 216.77 47.9551 215.5 45.7501Z" fill="white"/>
<path d="M168.725 44.9525C169.235 41.5025 169.744 38.0533 170.252 34.605C170.392 33.6625 169.337 32.855 168.395 32.995C167.452 33.135 166.745 33.995 166.472 34.9025C166.2 35.81 166.277 36.79 166.357 37.74C165.357 37.34 164.332 36.935 163.255 36.88C162.177 36.825 161.02 37.1825 160.38 38.05C159.832 38.7943 159.486 39.6676 159.375 40.5852C159.264 41.5028 159.392 42.4335 159.747 43.2869C160.102 44.1403 160.672 44.8874 161.401 45.4557C162.13 46.0239 162.993 46.394 163.907 46.53C163.957 46.85 164.007 47.17 164.055 47.4875C165.42 46.33 167.01 45.4669 168.725 44.9525Z" fill="#FBB089"/>
<path d="M172.165 48.4075L163.525 51.265C163.247 50.0134 162.976 48.7259 162.713 47.4025L169.213 44.7175C169.213 44.7175 170.355 46.0825 172.165 48.4075Z" fill="#F75C3D"/>
<path d="M237.345 27.0225C237.345 27.45 237.33 27.875 237.303 28.2925L237.188 28.3275H199.113C199.083 27.8975 199.068 27.4625 199.068 27.0225C199.068 26.5075 199.088 26 199.128 25.495C199.407 22.0217 200.629 18.6905 202.662 15.8606C204.695 13.0307 207.462 10.8095 210.664 9.43651C213.867 8.06353 217.384 7.59086 220.835 8.06949C224.287 8.54812 227.542 9.95987 230.25 12.1525C233.083 14.4455 235.202 17.4992 236.36 20.955C236.503 21.3775 236.628 21.8075 236.74 22.2425C237.142 23.8041 237.345 25.4101 237.345 27.0225Z" fill="#F75C3D"/>
<path d="M237.188 28.3275L236.9 28.4125H236.873C236.193 28.5575 234.73 28.86 232.713 29.24C231.963 29.3775 231.165 29.5275 230.293 29.6825C228.393 30.0175 226.195 30.3825 223.818 30.7325C216.873 31.7575 208.388 32.66 201.258 32.3875C197.705 32.255 194.493 31.8275 191.97 30.98C191.935 30.9675 191.97 30.955 191.97 30.92C191.803 27.8525 199.068 28.33 199.068 28.33H202.125H222.075H237.2L237.188 28.3275Z" fill="#E44531"/>
</g>
<defs>
<clipPath id="clip0_780_334">
<rect width="500" height="328" fill="white"/>
</clipPath>
</defs>
</svg>
