<svg width="500" height="400" viewBox="0 0 500 400" fill="none" xmlns="http://www.w3.org/2000/svg">
<path d="M51.0125 362.867C51.0125 362.867 -24.32 274.83 82.7975 246.545C189.915 218.26 218.14 194.045 268.78 120.752C319.42 47.4599 537.305 67.0624 448.678 366.252L51.0125 362.867Z" fill="#E2EEFC"/>
<path d="M80.7275 190.602C150.948 192.298 220.75 153.69 256.625 93.3075C263.553 81.6475 260.795 65.16 250.45 56.39C240.105 47.62 223.388 47.5975 213.02 56.3425C195.858 70.815 173.1 76.52 151.02 80.54C128.94 84.56 106.148 87.48 86.18 97.75C66.2125 108.02 49.2275 127.665 49.54 150.113C49.8525 172.56 73.0525 190.417 80.7275 190.602Z" fill="#E2EEFC"/>
<path d="M441.512 261.4H359.512V359.772H441.512V261.4Z" fill="#CCDEFF"/>
<path d="M384.907 266.547H364.657V270.297H384.907V266.547Z" fill="#E2EEFC"/>
<path d="M409.407 266.547H389.157V270.297H409.407V266.547Z" fill="#E2EEFC"/>
<path d="M433.407 266.547H413.157V270.297H433.407V266.547Z" fill="#E2EEFC"/>
<path d="M385.157 273.297H364.907V277.047H385.157V273.297Z" fill="#E2EEFC"/>
<path d="M409.657 273.297H389.407V277.047H409.657V273.297Z" fill="#E2EEFC"/>
<path d="M433.657 273.297H413.407V277.047H433.657V273.297Z" fill="#E2EEFC"/>
<path d="M385.157 280.047H364.907V283.797H385.157V280.047Z" fill="#E2EEFC"/>
<path d="M409.657 280.047H389.407V283.797H409.657V280.047Z" fill="#E2EEFC"/>
<path d="M433.657 280.047H413.407V283.797H433.657V280.047Z" fill="#E2EEFC"/>
<path d="M385.407 286.797H365.157V290.547H385.407V286.797Z" fill="#E2EEFC"/>
<path d="M409.907 286.797H389.657V290.547H409.907V286.797Z" fill="#E2EEFC"/>
<path d="M433.907 286.797H413.657V290.547H433.907V286.797Z" fill="#E2EEFC"/>
<path d="M385.657 293.547H365.407V297.297H385.657V293.547Z" fill="#E2EEFC"/>
<path d="M410.157 293.547H389.907V297.297H410.157V293.547Z" fill="#E2EEFC"/>
<path d="M434.157 293.547H413.907V297.297H434.157V293.547Z" fill="#E2EEFC"/>
<path d="M385.657 300.297H365.407V304.047H385.657V300.297Z" fill="#E2EEFC"/>
<path d="M410.157 300.297H389.907V304.047H410.157V300.297Z" fill="#E2EEFC"/>
<path d="M434.157 300.297H413.907V304.047H434.157V300.297Z" fill="#E2EEFC"/>
<path d="M434.157 310.585H365.407V335.585H434.157V310.585Z" fill="#E2EEFC"/>
<path d="M443.353 239.235H417.853V359.772H443.353V239.235Z" fill="#CCDEFF"/>
<path d="M448.44 250.272H440.94V359.772H448.44V250.272Z" fill="#CCDEFF"/>
<path d="M111.743 296.525H72.2426V360.025H111.743V296.525Z" fill="#CCDEFF"/>
<path d="M105.758 302.795H76.3826V308.545H105.758V302.795Z" fill="#E2EEFC"/>
<path d="M105.758 312.4H76.3826V318.15H105.758V312.4Z" fill="#E2EEFC"/>
<path d="M105.772 322.002H76.3975V327.752H105.772V322.002Z" fill="#E2EEFC"/>
<path d="M105.772 331.41H76.3975V337.16H105.772V331.41Z" fill="#E2EEFC"/>
<path d="M140.518 276.275H101.018V360.025H140.518V276.275Z" fill="#CCDEFF"/>
<path d="M225.045 292.775H136.768V360.025H225.045V292.775Z" fill="#CCDEFF"/>
<path d="M72.2426 322.775H50.2426V360.025H72.2426V322.775Z" fill="#CCDEFF"/>
<path d="M152.175 261.24H151.425V292.775H152.175V261.24Z" fill="#CCDEFF"/>
<path d="M160.595 268.5H159.845V292.775H160.595V268.5Z" fill="#CCDEFF"/>
<path d="M145.527 256.207H143.777V292.775H145.527V256.207Z" fill="#CCDEFF"/>
<path d="M84.13 287.422H76.88V296.525H84.13V287.422Z" fill="#CCDEFF"/>
<path d="M119.768 266.438H104.018V276.272H119.768V266.438Z" fill="#CCDEFF"/>
<path d="M133.545 256.207H126.795V276.275H133.545V256.207Z" fill="#CCDEFF"/>
<path d="M94.085 274.49H88.085V296.525H94.085V274.49Z" fill="#CCDEFF"/>
<path d="M58.8676 326.4H52.9926V332.275H58.8676V326.4Z" fill="#E2EEFC"/>
<path d="M68.4926 326.4H62.6176V332.275H68.4926V326.4Z" fill="#E2EEFC"/>
<path d="M58.8676 336.275H52.9926V342.15H58.8676V336.275Z" fill="#E2EEFC"/>
<path d="M68.4926 336.275H62.6176V342.15H68.4926V336.275Z" fill="#E2EEFC"/>
<path d="M58.8676 346.15H52.9926V352.025H58.8676V346.15Z" fill="#E2EEFC"/>
<path d="M68.4926 346.15H62.6176V352.025H68.4926V346.15Z" fill="#E2EEFC"/>
<path d="M108.022 281.597H105.772V357.347H108.022V281.597Z" fill="#E2EEFC"/>
<path d="M118.022 281.597H115.772V357.347H118.022V281.597Z" fill="#E2EEFC"/>
<path d="M127.025 281.597H124.775V357.347H127.025V281.597Z" fill="#E2EEFC"/>
<path d="M136.527 281.597H134.277V357.347H136.527V281.597Z" fill="#E2EEFC"/>
<path d="M212.907 293.452H173.407V356.952H212.907V293.452Z" fill="#CCDEFF"/>
<path d="M206.925 299.725H177.55V305.475H206.925V299.725Z" fill="#E2EEFC"/>
<path d="M206.925 309.327H177.55V315.077H206.925V309.327Z" fill="#E2EEFC"/>
<path d="M206.94 318.932H177.565V324.682H206.94V318.932Z" fill="#E2EEFC"/>
<path d="M206.94 328.34H177.565V334.09H206.94V328.34Z" fill="#E2EEFC"/>
<path d="M241.685 273.202H202.185V356.952H241.685V273.202Z" fill="#CCDEFF"/>
<path d="M326.213 289.702H237.935V356.952H326.213V289.702Z" fill="#CCDEFF"/>
<path d="M173.407 319.702H151.407V356.952H173.407V319.702Z" fill="#CCDEFF"/>
<path d="M253.343 258.17H252.593V289.705H253.343V258.17Z" fill="#CCDEFF"/>
<path d="M261.763 265.427H261.013V289.703H261.763V265.427Z" fill="#CCDEFF"/>
<path d="M246.695 253.135H244.945V289.703H246.695V253.135Z" fill="#CCDEFF"/>
<path d="M185.297 284.352H178.047V293.455H185.297V284.352Z" fill="#CCDEFF"/>
<path d="M220.935 263.367H205.185V273.202H220.935V263.367Z" fill="#CCDEFF"/>
<path d="M234.71 253.135H227.96V273.203H234.71V253.135Z" fill="#CCDEFF"/>
<path d="M195.253 271.42H189.253V293.455H195.253V271.42Z" fill="#CCDEFF"/>
<path d="M160.035 323.327H154.16V329.202H160.035V323.327Z" fill="#E2EEFC"/>
<path d="M169.66 323.327H163.785V329.202H169.66V323.327Z" fill="#E2EEFC"/>
<path d="M160.035 333.202H154.16V339.077H160.035V333.202Z" fill="#E2EEFC"/>
<path d="M169.66 333.202H163.785V339.077H169.66V333.202Z" fill="#E2EEFC"/>
<path d="M160.035 343.077H154.16V348.952H160.035V343.077Z" fill="#E2EEFC"/>
<path d="M169.66 343.077H163.785V348.952H169.66V343.077Z" fill="#E2EEFC"/>
<path d="M209.19 278.525H206.94V354.275H209.19V278.525Z" fill="#E2EEFC"/>
<path d="M219.19 278.525H216.94V354.275H219.19V278.525Z" fill="#E2EEFC"/>
<path d="M228.193 278.525H225.943V354.275H228.193V278.525Z" fill="#E2EEFC"/>
<path d="M237.695 278.525H235.445V354.275H237.695V278.525Z" fill="#E2EEFC"/>
<path d="M314.025 287.912H274.525V351.412H314.025V287.912Z" fill="#CCDEFF"/>
<path d="M308.042 294.185H278.667V299.935H308.042V294.185Z" fill="#E2EEFC"/>
<path d="M308.042 303.787H278.667V309.537H308.042V303.787Z" fill="#E2EEFC"/>
<path d="M308.057 313.39H278.682V319.14H308.057V313.39Z" fill="#E2EEFC"/>
<path d="M308.057 322.8H278.682V328.55H308.057V322.8Z" fill="#E2EEFC"/>
<path d="M342.8 267.662H303.3V351.412H342.8V267.662Z" fill="#CCDEFF"/>
<path d="M427.328 284.162H339.05V351.412H427.328V284.162Z" fill="#CCDEFF"/>
<path d="M274.525 314.162H252.525V351.412H274.525V314.162Z" fill="#CCDEFF"/>
<path d="M354.46 252.627H353.71V284.162H354.46V252.627Z" fill="#CCDEFF"/>
<path d="M362.88 259.887H362.13V284.162H362.88V259.887Z" fill="#CCDEFF"/>
<path d="M347.812 247.595H346.062V284.162H347.812V247.595Z" fill="#CCDEFF"/>
<path d="M286.415 278.81H279.165V287.912H286.415V278.81Z" fill="#CCDEFF"/>
<path d="M322.052 257.827H306.302V267.662H322.052V257.827Z" fill="#CCDEFF"/>
<path d="M335.828 247.595H329.078V267.662H335.828V247.595Z" fill="#CCDEFF"/>
<path d="M296.37 265.88H290.37V287.915H296.37V265.88Z" fill="#CCDEFF"/>
<path d="M261.15 317.787H255.275V323.662H261.15V317.787Z" fill="#E2EEFC"/>
<path d="M270.775 317.787H264.9V323.662H270.775V317.787Z" fill="#E2EEFC"/>
<path d="M261.15 327.662H255.275V333.537H261.15V327.662Z" fill="#E2EEFC"/>
<path d="M270.775 327.662H264.9V333.537H270.775V327.662Z" fill="#E2EEFC"/>
<path d="M261.15 337.537H255.275V343.412H261.15V337.537Z" fill="#E2EEFC"/>
<path d="M270.775 337.537H264.9V343.412H270.775V337.537Z" fill="#E2EEFC"/>
<path d="M310.307 272.985H308.057V348.735H310.307V272.985Z" fill="#E2EEFC"/>
<path d="M320.307 272.985H318.057V348.735H320.307V272.985Z" fill="#E2EEFC"/>
<path d="M329.31 272.985H327.06V348.735H329.31V272.985Z" fill="#E2EEFC"/>
<path d="M338.81 272.985H336.56V348.735H338.81V272.985Z" fill="#E2EEFC"/>
<path d="M359.512 329.16H319.012V359.987H359.512V329.16Z" fill="#CCDEFF"/>
<path d="M397.525 352.207H396.025V353.707H397.525V352.207Z" fill="#CCDEFF"/>
<path d="M338.55 64.2649L332.34 62.2649C334.84 54.8549 345.82 52.1474 351.465 57.5549C348.503 54.0099 350.965 47.5724 355.538 46.9074C360.11 46.2424 364.288 51.7199 362.465 55.9599C366.003 51.8824 373.653 52.8324 376.083 57.6524C379 54.0374 385.385 54.1524 388.175 57.8624C401.299 55.409 414.85 56.7337 427.25 61.6824L316.435 67.0599C324.408 65.6024 332.39 64.1449 338.55 64.2649Z" fill="#E2EEFC"/>
<path d="M121.053 16.7499L127.125 14.37C124.175 7.11995 113.035 5.11995 107.743 10.8699C110.475 7.14495 107.613 0.869946 103.008 0.502446C98.4025 0.134946 94.5676 5.85745 96.6626 9.97245C92.8751 6.12495 85.3001 7.55745 83.1776 12.5199C80.0376 9.09495 73.6776 9.60745 71.1226 13.4899C57.8727 11.8666 44.4343 14.041 32.3726 19.7599L143.308 18.1474C135.25 17.1849 127.193 16.2299 121.053 16.7499Z" fill="#E2EEFC"/>
<path d="M27.72 366.25C27.72 364.261 28.5101 362.353 29.9167 360.947C31.3232 359.54 33.2308 358.75 35.22 358.75H467.22C469.209 358.75 471.117 359.54 472.523 360.947C473.93 362.353 474.72 364.261 474.72 366.25C474.72 368.239 473.93 370.147 472.523 371.553C471.117 372.96 469.209 373.75 467.22 373.75H35.22C34.2351 373.75 33.2598 373.556 32.3498 373.179C31.4399 372.802 30.6131 372.25 29.9167 371.553C29.2202 370.857 28.6678 370.03 28.2909 369.12C27.914 368.21 27.72 367.235 27.72 366.25Z" fill="#1A1A35"/>
<path d="M157.557 262.215V238.142C157.557 237.413 157.847 236.714 158.363 236.198C158.879 235.682 159.578 235.392 160.307 235.392H163.057V262.215H157.557Z" fill="#1A1A35"/>
<path d="M137.17 239.417C137.998 239.37 137.95 239.667 138.558 240.23C138.792 240.468 138.978 240.75 139.105 241.06C139.786 242.52 140.059 244.137 139.893 245.74C141.446 244.351 143.241 243.258 145.188 242.515C144.318 241.31 143.85 239.865 143.46 238.43C143.343 237.936 143.175 237.455 142.96 236.995C142.863 236.781 142.716 236.593 142.533 236.447C142.189 236.246 141.78 236.185 141.393 236.277C140.34 236.44 139.393 236.972 138.483 237.527C137.793 237.957 137.118 238.411 136.46 238.887C136.23 239.055 137.183 239.257 137.163 239.542" fill="#FBB089"/>
<path d="M140 258.555C140 258.555 128.902 265.01 126.142 263.08C126.142 263.08 117.82 261.465 113.172 240.412C113.035 239.797 112.902 239.162 112.772 238.512L115.972 237.192C115.972 237.192 116.532 237.865 117.422 239.007C119.847 242.12 124.722 248.722 127.422 254.757C127.422 254.757 135.892 246.777 141.19 244.902L140 258.555Z" fill="#5F6730"/>
<path d="M139.575 246.365C139.468 246.382 139.367 246.426 139.282 246.494C139.197 246.562 139.131 246.651 139.091 246.751C139.051 246.852 139.038 246.962 139.053 247.07C139.068 247.177 139.111 247.279 139.178 247.365C138.538 247.515 138.28 248.272 138.143 248.915C136.11 258.415 136.365 268.222 135.873 277.915C135.835 279.344 135.668 280.766 135.373 282.165C137.488 282.29 139.611 282.197 141.708 281.885C143.338 281.635 144.958 281.265 146.615 281.36C148.115 281.445 149.558 281.917 151.033 282.187C153.3 282.6 155.628 282.537 157.87 282.002C158.398 280.252 158.315 278.36 158.12 276.53C157.583 271.312 156.218 266.222 154.87 261.155C154.293 259 153.708 256.83 152.76 254.807C152.162 253.59 151.499 252.405 150.775 251.257L146.135 243.615C146.026 243.379 145.837 243.189 145.603 243.077C145.25 242.962 144.898 243.22 144.603 243.452C142.919 244.809 141.035 245.895 139.018 246.672" fill="#3F4329"/>
<path d="M145.718 240.982C143.106 242.363 140.593 243.922 138.195 245.647C138.471 246.06 138.635 246.538 138.671 247.033C138.707 247.528 138.614 248.024 138.4 248.472C141.188 246.125 144.222 244.086 147.448 242.39C146.858 241.911 146.245 241.463 145.61 241.047" fill="#38385C"/>
<path d="M175.46 262.757H126.97V288.737H175.46V262.757Z" fill="#FEBE3D"/>
<path d="M139.21 262.757H126.97V288.737H139.21V262.757Z" fill="#F8A23A"/>
<path d="M173.702 264.252H161.932V266.802H173.702V264.252Z" fill="white"/>
<path d="M173.702 267.74H161.932V270.29H173.702V267.74Z" fill="white"/>
<path d="M143.577 243.297L146.002 242.442C146.002 242.442 146.82 241.532 152.827 247.37C158.835 253.207 167.672 266.767 167.672 266.767L155.75 287.105L151.847 284.605L157.162 266.53C157.162 266.53 129.23 237.225 149.472 244.292" fill="#5F6730"/>
<path d="M151.89 284.465C150.97 284.715 150.245 285.215 149.433 285.715C149.35 285.758 149.275 285.815 149.213 285.885C149.151 285.976 149.11 286.081 149.093 286.19C148.842 287.262 148.461 288.299 147.958 289.277C148.989 289.56 150.051 289.722 151.12 289.76C151.259 289.774 151.399 289.759 151.533 289.717C151.698 289.641 151.838 289.519 151.935 289.365C152.187 289.03 152.398 288.665 152.563 288.28C153.773 288.03 154.893 287.977 155.743 287.112C154.665 286.612 153.708 285.58 152.693 284.957C152.432 284.771 152.159 284.604 151.875 284.457" fill="#FBB089"/>
<path d="M146.348 227.112C146.465 227.087 146.58 227.057 146.695 227.025L146.765 227.005L146.695 227.025C146.58 227.057 146.463 227.085 146.348 227.112Z" fill="#E1C2B0"/>
<path d="M133.07 233.25C133.053 233.512 133.058 233.776 133.085 234.037C133.203 235.312 133.6 235.935 134.11 236.175C134.146 236.192 134.184 236.208 134.223 236.22C134.521 236.316 134.841 236.325 135.145 236.245C135.028 235.437 134.923 234.662 134.848 233.995C134.793 233.515 134.748 233.085 134.72 232.727C134.548 232.847 133.935 232.15 133.935 232.15C133.413 232.25 133.15 232.722 133.07 233.25Z" fill="#E88A78"/>
<path d="M141.432 241.705C141.432 241.705 141.425 241.705 141.432 241.705V241.705ZM138.975 240.687C139.38 240.815 140.005 239.81 140.327 239.887C140.742 239.987 141.057 240.047 141.202 240.075H141.235V240.095L141.257 240.08H141.285V240.06C141.36 240.015 141.52 239.915 141.735 239.772C141.88 239.677 142.05 239.56 142.235 239.43C142.567 239.18 143.507 239.237 143.895 238.907C143.967 239.527 143.782 239.777 144.177 240.622C144.11 240.705 144.039 240.783 143.962 240.857C143.727 241.094 143.463 241.299 143.175 241.467C142.767 241.71 142.319 241.879 141.852 241.967C141.45 242.043 141.039 242.059 140.632 242.015C140.235 241.972 139.847 241.867 139.482 241.705C139.395 241.665 139.405 241.602 139.32 241.555C139.435 240.982 139.552 242.435 138.975 240.687Z" fill="#E88A78"/>
<path d="M145.838 236.562C146.192 236.759 146.596 236.846 147 236.812C147.104 236.798 147.205 236.771 147.303 236.732C147.803 236.525 148.243 235.95 148.495 234.76C148.765 233.487 148.495 232.972 148.07 232.825C148.016 232.878 147.953 232.921 147.883 232.95C147.648 233.182 146.73 233.225 146.583 233.485C146.558 233.615 146.528 233.752 146.495 233.897C146.483 233.962 146.468 234.027 146.453 234.095L146.43 234.195C146.415 234.262 146.398 234.33 146.383 234.402V234.432C146.353 234.557 146.323 234.682 146.293 234.817L146.26 234.95C146.26 234.95 146.26 234.95 146.26 234.965C146.243 235.032 146.225 235.102 146.21 235.17C146.195 235.237 146.185 235.275 146.17 235.327C146.058 235.727 145.953 236.14 145.838 236.562Z" fill="#E88A78"/>
<path d="M136.688 230.842L139.688 230.242C139.6 230.195 139.509 230.155 139.415 230.122C139.006 229.98 138.567 229.944 138.141 230.02C137.714 230.096 137.315 230.28 136.98 230.555C136.873 230.64 136.775 230.737 136.688 230.842Z" fill="#FFECE6"/>
<path d="M134.72 232.72C134.75 233.077 134.792 233.507 134.847 233.987C134.925 234.662 135.027 235.435 135.145 236.237C135.197 236.6 135.255 236.97 135.315 237.34C135.44 238.117 136.045 238.855 136.79 239.49C137.261 239.887 137.763 240.248 138.29 240.567C138.652 240.79 138.997 240.98 139.29 241.132C139.667 241.33 139.96 241.465 140.092 241.525L140.122 241.54H140.147H140.175C140.257 241.512 140.425 241.455 140.675 241.37C140.837 241.312 141.032 241.24 141.242 241.157C141.622 241.007 142.067 240.817 142.522 240.59C143.094 240.31 143.638 239.975 144.145 239.59C144.77 239.11 145.267 238.55 145.445 237.927C145.577 237.462 145.695 237 145.822 236.55C145.95 236.1 146.04 235.712 146.137 235.322C146.137 235.27 146.165 235.217 146.177 235.165C146.19 235.112 146.212 235.025 146.227 234.96C146.227 234.96 146.227 234.96 146.227 234.945C146.227 234.9 146.25 234.855 146.26 234.812C146.292 234.68 146.322 234.562 146.35 234.427V234.397C146.365 234.327 146.382 234.257 146.397 234.19L146.42 234.09C146.435 234.022 146.45 233.957 146.462 233.892C146.495 233.747 146.525 233.607 146.55 233.48C146.543 233.493 146.537 233.506 146.532 233.52C146.502 233.327 146.475 233.132 146.447 232.94C146.232 232.567 145.912 232.017 145.542 231.385L145.342 231.045L145.077 230.592L144.875 230.247C144.805 230.132 144.737 230.015 144.667 229.897L144.337 229.34C143.911 229.675 143.465 229.986 143.002 230.27C142.925 230.27 142.847 230.277 142.77 230.29L142.88 230.345C140.652 231.669 138.121 232.398 135.53 232.462H135.155C135.16 232.482 134.75 232.75 134.72 232.72Z" fill="#FBB089"/>
<path d="M146.07 221.217L145.993 221.172C146.619 221.682 147.178 222.27 147.655 222.922C147.293 222.219 146.745 221.63 146.07 221.217ZM142.825 230.317C139.408 230.817 135.235 231.265 131.728 231.132L131.76 231.185C132.01 231.625 132.348 232.522 132.76 233C132.845 233.102 132.948 233.187 133.065 233.25C133.143 232.722 133.405 232.25 133.928 232.145C133.928 232.145 134.543 232.84 134.715 232.722C134.73 232.74 135.155 232.472 135.178 232.472H135.553C138.144 232.408 140.676 231.679 142.905 230.355L142.825 230.317ZM132.148 229.13H131.128H132.148ZM132.383 222.95L132.435 222.972C132.875 222.365 133.386 221.811 133.958 221.325C133.328 221.754 132.792 222.307 132.383 222.95Z" fill="#38385C"/>
<path d="M149.48 229.107C149.378 229.54 149.275 229.975 149.16 230.4C149.093 230.65 149.02 230.9 148.943 231.15L148.178 232.722L148.1 232.797L148.073 232.825C148.019 232.879 147.955 232.921 147.885 232.95C147.65 233.182 146.733 233.225 146.585 233.485C146.578 233.498 146.572 233.511 146.568 233.525C146.54 233.332 146.51 233.137 146.483 232.945C146.483 232.87 146.46 232.795 146.45 232.72C146.305 231.742 146.161 230.766 146.018 229.792L147.208 229.575C148.208 229.387 148.92 229.24 149.255 229.167L149.453 229.125V229.107H149.48Z" fill="#38385C"/>
<path d="M144.368 229.355L144.698 229.912L144.905 230.262L145.108 230.607L145.373 231.06L145.573 231.4C145.943 232.032 146.26 232.582 146.478 232.955C146.478 232.88 146.455 232.805 146.445 232.732C146.255 231.449 146.066 230.167 145.878 228.887C145.838 228.622 145.8 228.36 145.76 228.095L145.51 228.345C145.147 228.702 144.766 229.039 144.368 229.355Z" fill="#E88A78"/>
<path d="M141.443 222.305C141.535 222.305 141.63 222.322 141.723 222.335C141.815 222.347 141.88 222.355 141.958 222.37L142.117 222.397L142.285 222.432L142.45 222.472C142.523 222.489 142.596 222.509 142.667 222.532C142.76 222.56 142.855 222.59 142.945 222.622L143.023 222.65C143.083 222.672 143.145 222.692 143.205 222.717L143.31 222.76L143.385 222.79C143.414 222.801 143.442 222.813 143.47 222.827L143.72 222.945C143.803 222.985 143.885 223.027 143.97 223.072C144.055 223.117 144.058 223.12 144.1 223.145L144.193 223.2L144.217 223.215L144.27 223.247L144.337 223.29C144.617 223.464 144.884 223.659 145.135 223.872L145.175 223.907C145.361 224.065 145.539 224.231 145.708 224.407C145.733 224.435 145.757 224.46 145.78 224.487C145.802 224.515 145.855 224.57 145.89 224.612L145.995 224.737C146.037 224.787 146.077 224.84 146.117 224.89C146.157 224.94 146.165 224.95 146.188 224.982C146.21 225.015 146.265 225.09 146.303 225.145L146.39 225.272C146.41 225.302 146.43 225.332 146.447 225.362L146.477 225.41C146.49 225.427 146.497 225.445 146.51 225.46C146.547 225.522 146.585 225.585 146.62 225.65C146.655 225.715 146.69 225.777 146.723 225.845C146.755 225.912 146.788 225.975 146.818 226.042C146.848 226.11 146.877 226.175 146.905 226.242C146.932 226.31 146.933 226.31 146.945 226.342C146.958 226.312 146.967 226.28 146.977 226.25L146.997 226.185V226.162C146.997 226.14 147.01 226.115 147.018 226.092C147.025 226.07 147.045 225.985 147.057 225.93C147.07 225.875 147.058 225.89 147.07 225.87C147.071 225.85 147.071 225.83 147.07 225.81L147.085 225.707C147.086 225.701 147.086 225.694 147.085 225.687C147.086 225.678 147.086 225.669 147.085 225.66C147.085 225.63 147.085 225.602 147.085 225.572C147.086 225.566 147.086 225.559 147.085 225.552C147.085 225.507 147.085 225.465 147.085 225.42C147.085 225.375 147.085 225.345 147.085 225.307C147.085 225.27 147.085 225.18 147.085 225.117V225.082C147.086 225.058 147.086 225.034 147.085 225.01C147.086 224.987 147.086 224.965 147.085 224.942C147.085 224.895 147.085 224.845 147.085 224.797C147.085 224.797 147.085 224.797 147.085 224.782C147.085 224.732 147.073 224.685 147.065 224.635C147.058 224.585 147.065 224.562 147.045 224.525L147.023 224.415C147.023 224.4 147.023 224.382 147.023 224.367C147.018 224.345 147.012 224.324 147.005 224.302C147.005 224.272 146.99 224.242 146.98 224.212C146.981 224.2 146.981 224.187 146.98 224.175C146.98 224.147 146.965 224.117 146.955 224.09C146.933 224.017 146.908 223.947 146.883 223.877L146.845 223.78C146.815 223.707 146.782 223.637 146.75 223.567L146.712 223.492L146.645 223.37C146.645 223.345 146.617 223.322 146.602 223.297C146.587 223.272 146.572 223.25 146.56 223.225C146.547 223.2 146.5 223.13 146.467 223.085L146.402 222.992C146.367 222.947 146.335 222.902 146.3 222.86L146.19 222.732C146.166 222.703 146.14 222.676 146.113 222.65C146.077 222.611 146.039 222.575 146 222.54L145.883 222.435L145.803 222.367L145.69 222.282L145.613 222.227L145.492 222.147L145.37 222.075C145.342 222.058 145.314 222.043 145.285 222.03L145.2 221.987L145.12 221.95L145.01 221.902L144.928 221.867H144.89L144.85 221.852L144.77 221.825L144.67 221.792C144.59 221.767 144.507 221.745 144.42 221.727L144.303 221.702L144.193 221.682H144.155H144.137L144.045 221.67H143.93H143.878H143.79H143.65H143.5C143.42 221.67 143.342 221.67 143.25 221.67H143.173L143.015 221.69L142.86 221.717L142.705 221.75L142.553 221.79L142.415 221.832H142.385L142.283 221.867L142.238 221.885L142.11 221.937L142.003 221.987L141.91 222.032H141.885L141.795 222.08C141.672 222.146 141.554 222.221 141.443 222.305Z" fill="#82635A"/>
<path d="M149.46 229.112V229.13L149.263 229.172L149.405 229.13L149.46 229.112Z" fill="#82635A"/>
<path d="M145.34 233.04L142.34 231.902C142.895 231.733 143.491 231.752 144.034 231.958C144.577 232.164 145.037 232.545 145.34 233.04Z" fill="#101029"/>
<path d="M137.975 232.25L135.4 233.05C135.702 232.677 136.108 232.402 136.566 232.259C137.024 232.117 137.515 232.113 137.975 232.25Z" fill="#101029"/>
<path d="M137.058 233.062C137.4 232.955 137.808 233.277 137.96 233.78C138.113 234.282 137.96 234.78 137.625 234.88C137.29 234.98 136.875 234.667 136.723 234.165C136.57 233.662 136.718 233.17 137.058 233.062Z" fill="#101029"/>
<path d="M142.72 233.137C143.075 233.105 143.403 233.502 143.45 234.027C143.498 234.552 143.248 235.002 142.89 235.027C142.533 235.052 142.208 234.66 142.16 234.137C142.113 233.615 142.363 233.17 142.72 233.137Z" fill="#101029"/>
<path d="M139.148 232.75C139.293 233.46 139.435 234.17 139.58 234.88C139.554 234.791 139.506 234.709 139.442 234.641C139.377 234.574 139.298 234.523 139.21 234.493C139.121 234.462 139.027 234.453 138.935 234.467C138.843 234.48 138.755 234.515 138.679 234.57C138.603 234.624 138.541 234.695 138.499 234.778C138.456 234.861 138.434 234.953 138.434 235.046C138.434 235.14 138.456 235.231 138.499 235.314C138.542 235.397 138.604 235.468 138.68 235.522L140.247 236.633" fill="#FB6562"/>
<path d="M138.728 237.702C139.669 237.96 140.668 237.915 141.583 237.573C142.498 237.232 143.282 236.612 143.825 235.8C143.884 236.43 143.738 237.063 143.409 237.603C143.08 238.144 142.585 238.564 141.998 238.8C140.815 239.25 139.358 238.787 138.728 237.702Z" fill="white"/>
<path d="M115.725 237.307C115.975 235.611 116.225 233.914 116.475 232.217C116.542 231.755 116.025 231.352 115.562 231.425C115.334 231.479 115.124 231.596 114.958 231.762C114.791 231.928 114.673 232.136 114.617 232.365C114.511 232.822 114.491 233.295 114.56 233.76C114.078 233.536 113.563 233.394 113.035 233.337C112.77 233.312 112.503 233.351 112.257 233.451C112.01 233.551 111.792 233.709 111.62 233.912C111.35 234.278 111.179 234.708 111.124 235.16C111.069 235.611 111.132 236.07 111.306 236.49C111.481 236.91 111.762 237.278 112.121 237.557C112.48 237.837 112.905 238.019 113.355 238.085C113.38 238.242 113.402 238.4 113.427 238.557C114.099 237.987 114.881 237.561 115.725 237.307Z" fill="#FBB089"/>
<path d="M117.415 239L113.165 240.405C113.028 239.79 112.895 239.155 112.765 238.505L115.965 237.185C115.965 237.185 116.525 237.865 117.415 239Z" fill="#F75C3D"/>
<path d="M149.48 228.5C149.48 228.71 149.48 228.92 149.46 229.125L149.403 229.142H130.673C130.658 228.93 130.65 228.717 130.65 228.5C130.65 228.282 130.65 228 130.68 227.75C130.767 226.632 131.055 225.538 131.53 224.522C131.781 223.982 132.084 223.467 132.435 222.985C133.449 221.582 134.831 220.486 136.427 219.817C138.023 219.148 139.773 218.931 141.484 219.191C143.196 219.451 144.803 220.177 146.128 221.29C147.454 222.403 148.448 223.859 149 225.5C149.07 225.707 149.133 225.92 149.188 226.132C149.383 226.906 149.481 227.702 149.48 228.5Z" fill="#F75C3D"/>
<path d="M149.403 229.13L149.26 229.172C148.925 229.245 148.205 229.392 147.213 229.58C146.85 229.647 146.463 229.722 146.023 229.797C145.088 229.962 144.008 230.142 142.838 230.315C139.42 230.815 135.248 231.262 131.74 231.13C129.99 231.065 128.413 230.855 127.17 230.437C127.153 230.437 127.17 230.437 127.17 230.407C127.088 228.907 130.67 229.132 130.67 229.132H149.42L149.403 229.13Z" fill="#E44531"/>
<path d="M184.022 283.475V329.065C184.023 329.927 183.961 330.789 183.837 331.642H59.7025C59.5788 330.789 59.5169 329.927 59.5175 329.065V283.475C59.5175 278.713 61.4091 274.146 64.7764 270.779C68.1436 267.412 72.7105 265.52 77.4725 265.52H166.065C168.423 265.52 170.758 265.984 172.937 266.886C175.116 267.788 177.095 269.111 178.763 270.778C180.43 272.445 181.753 274.425 182.655 276.603C183.558 278.782 184.022 281.117 184.022 283.475Z" fill="#829709"/>
<path d="M106.945 265.52H106.865V265.517L106.945 265.52Z" fill="#A54545"/>
<path d="M95.3126 262.09V262.177H103.333L95.3126 262.09ZM95.3126 262.09V262.177H103.333L95.3126 262.09ZM95.3126 262.09V262.177H103.333L95.3126 262.09ZM120.535 209.323C116.009 209.323 111.604 210.786 107.978 213.496C104.353 216.205 101.7 220.014 100.418 224.355L88.3101 265.332L104.86 265.517H163.055V263.14H105.973L90.2401 262.97L95.3126 246.44L101.75 225.46C104.25 217.3 112.035 211.71 120.87 211.71H164.393V212.638H166.32V209.332L120.535 209.323ZM95.3126 262.09V262.177H103.333L95.3126 262.09ZM95.3126 262.09V262.177H103.333L95.3126 262.09Z" fill="#38385C"/>
<path d="M95.3125 262.09V262.177H103.332L95.3125 262.09Z" fill="#E87979"/>
<path d="M164.395 212.627V211.7H120.87C112.035 211.7 104.253 217.3 101.75 225.45L95.3125 246.43L90.25 262.97L105.982 263.14H163.057V322.955H166.322V212.625H164.395V212.627ZM106.815 262.215H106.75L103.34 262.177H95.3125V249.877L96.3675 246.442L102.673 225.895C105.085 218.03 112.588 212.645 121.105 212.645H163.057V262.23H106.808L106.815 262.215Z" fill="#1A1A35"/>
<path d="M103.332 262.177H95.3125V262.09L103.332 262.177Z" fill="#F7BCBC"/>
<path d="M59.55 303.25V318.408H59.34C58.0079 318.407 56.6993 318.056 55.5461 317.389C54.3929 316.722 53.4356 315.763 52.7706 314.609C52.1056 313.454 51.7564 312.145 51.7581 310.813C51.7597 309.481 52.1122 308.173 52.78 307.02C53.4486 305.873 54.4061 304.921 55.5572 304.26C56.7082 303.598 58.0125 303.25 59.34 303.25H59.55Z" fill="#FBB750"/>
<path d="M59.55 315V318.417H59.34C58.0079 318.417 56.6993 318.066 55.5461 317.399C54.3929 316.732 53.4356 315.773 52.7706 314.619C52.1056 313.464 51.7564 312.155 51.7581 310.823C51.7597 309.491 52.1122 308.183 52.78 307.03C53.1129 306.455 53.5206 305.927 53.9925 305.46C54.7006 309.182 56.6619 312.548 59.55 315Z" fill="#FDEC88"/>
<path d="M58.25 318.332C57.0242 318.153 55.861 317.675 54.8623 316.942C53.8635 316.209 53.0595 315.243 52.5206 314.127C51.9817 313.011 51.7242 311.781 51.7707 310.543C51.8173 309.305 52.1664 308.097 52.7875 307.025C52.75 311.327 54.875 315.642 58.25 318.332Z" fill="#FDFDFC"/>
<path d="M59.72 302.93C62.99 307.552 62.8024 314.325 59.2849 318.76C59.2499 313.612 59.205 308.465 59.72 302.93Z" fill="#1A1A35"/>
<path d="M339.348 192.5H166.323V322.957H339.348V192.5Z" fill="#5F6730"/>
<path d="M146.72 323.452H80.395C82.2283 316.043 86.4902 309.461 92.5008 304.756C98.5115 300.051 105.925 297.495 113.558 297.495C121.19 297.495 128.604 300.051 134.614 304.756C140.625 309.461 144.887 316.043 146.72 323.452Z" fill="#1A1A35"/>
<path d="M321.402 323.452H253.1C253.1 309.115 268.39 297.492 287.25 297.492C306.11 297.492 321.402 309.115 321.402 323.452Z" fill="#1A1A35"/>
<path d="M349.17 327.3C349.169 328.451 348.712 329.556 347.897 330.37C347.083 331.184 345.979 331.642 344.828 331.642H54.5775C53.4258 331.642 52.3213 331.185 51.5069 330.371C50.6925 329.556 50.235 328.452 50.235 327.3C50.235 326.148 50.6925 325.044 51.5069 324.229C52.3213 323.415 53.4258 322.957 54.5775 322.957H344.828C345.398 322.957 345.962 323.07 346.489 323.288C347.016 323.506 347.495 323.826 347.898 324.229C348.301 324.633 348.621 325.111 348.839 325.638C349.058 326.165 349.17 326.73 349.17 327.3Z" fill="#1A1A35"/>
<path d="M113.558 359.792C129.976 359.792 143.285 347.189 143.285 331.642C143.285 316.096 129.976 303.492 113.558 303.492C97.1395 303.492 83.8301 316.096 83.8301 331.642C83.8301 347.189 97.1395 359.792 113.558 359.792Z" fill="#030303"/>
<path d="M113.558 353.345C126.215 353.345 136.475 343.628 136.475 331.642C136.475 319.656 126.215 309.94 113.558 309.94C100.901 309.94 90.64 319.656 90.64 331.642C90.64 343.628 100.901 353.345 113.558 353.345Z" fill="#38385C"/>
<path d="M113.558 349.735C124.109 349.735 132.663 341.635 132.663 331.642C132.663 321.65 124.109 313.55 113.558 313.55C103.006 313.55 94.4525 321.65 94.4525 331.642C94.4525 341.635 103.006 349.735 113.558 349.735Z" fill="#CFCFCF"/>
<path d="M287.253 359.792C303.671 359.792 316.98 347.189 316.98 331.642C316.98 316.096 303.671 303.492 287.253 303.492C270.834 303.492 257.525 316.096 257.525 331.642C257.525 347.189 270.834 359.792 287.253 359.792Z" fill="#030303"/>
<path d="M287.252 353.345C299.909 353.345 310.17 343.628 310.17 331.642C310.17 319.656 299.909 309.94 287.252 309.94C274.595 309.94 264.335 319.656 264.335 331.642C264.335 343.628 274.595 353.345 287.252 353.345Z" fill="#38385C"/>
<path d="M287.252 349.735C297.804 349.735 306.357 341.635 306.357 331.642C306.357 321.65 297.804 313.55 287.252 313.55C276.701 313.55 268.147 321.65 268.147 331.642C268.147 341.635 276.701 349.735 287.252 349.735Z" fill="#CFCFCF"/>
<path d="M97.985 249.877H95.3125V271.255H97.985V249.877Z" fill="#F8A23A"/>
<path d="M95.3125 262.09H88.3125V265.332H95.3125V262.09Z" fill="#F8A23A"/>
<path d="M106.36 263.142V244.573C106.36 243.744 106.689 242.949 107.275 242.363C107.861 241.777 108.656 241.448 109.485 241.448V263.142H106.36Z" fill="#1A1A35"/>
<path d="M462.512 305.357H359.512V358.75H462.512V305.357Z" fill="#FEBE3D"/>
<path d="M384.637 305.357H359.512V358.75H384.637V305.357Z" fill="#F8A23A"/>
<path d="M432.7 255.062H372.078V305.358H432.7V255.062Z" fill="#FEBE3D"/>
<path d="M387.38 255.062H372.078V305.358H387.38V255.062Z" fill="#F8A23A"/>
<path d="M371.92 305.48L387.378 303.98L418.728 305.712L371.92 305.48Z" fill="#EC7F37"/>
<path d="M459.445 309.938H438.402V314.878H459.445V309.938Z" fill="white"/>
<path d="M459.783 317.475H438.74V322.415H459.783V317.475Z" fill="white"/>
<path d="M430.502 257.957H415.787V262.897H430.502V257.957Z" fill="white"/>
<path d="M430.502 264.71H415.787V269.65H430.502V264.71Z" fill="white"/>
<path d="M377.89 200.895C377.89 186.895 388.938 175.56 402.568 175.56C416.198 175.56 427.25 186.902 427.25 200.895C427.25 214.887 403.575 240.5 403.575 240.5C403.575 240.5 377.89 214.887 377.89 200.895Z" fill="#5F6730"/>
<path d="M402.568 214.295C409.953 214.295 415.94 208.308 415.94 200.922C415.94 193.537 409.953 187.55 402.568 187.55C395.182 187.55 389.195 193.537 389.195 200.922C389.195 208.308 395.182 214.295 402.568 214.295Z" fill="white"/>
<path d="M238.295 273.882C238.295 273.282 238.534 272.706 238.958 272.281C239.383 271.856 239.959 271.617 240.56 271.617H327.06C327.661 271.617 328.237 271.856 328.662 272.281C329.086 272.706 329.325 273.282 329.325 273.882C329.325 274.483 329.086 275.059 328.662 275.484C328.237 275.909 327.661 276.147 327.06 276.147H240.56C239.959 276.147 239.383 275.909 238.958 275.484C238.534 275.059 238.295 274.483 238.295 273.882Z" fill="white"/>
<path d="M171.795 200C171.795 199.399 172.034 198.823 172.458 198.398C172.883 197.974 173.459 197.735 174.06 197.735H332.532C333.133 197.735 333.709 197.974 334.134 198.398C334.559 198.823 334.797 199.399 334.797 200C334.797 200.601 334.559 201.177 334.134 201.602C333.709 202.026 333.133 202.265 332.532 202.265H174.06C173.459 202.265 172.883 202.026 172.458 201.602C172.034 201.177 171.795 200.601 171.795 200Z" fill="white"/>
<path d="M271.56 282.132C271.56 281.532 271.799 280.956 272.223 280.531C272.648 280.106 273.224 279.867 273.825 279.867H326.547C327.148 279.867 327.724 280.106 328.149 280.531C328.574 280.956 328.812 281.532 328.812 282.132C328.812 282.733 328.574 283.309 328.149 283.734C327.724 284.159 327.148 284.397 326.547 284.397H273.825C273.224 284.397 272.648 284.159 272.223 283.734C271.799 283.309 271.56 282.733 271.56 282.132Z" fill="white"/>
<path d="M287.31 290.382C287.31 289.782 287.549 289.206 287.973 288.781C288.398 288.356 288.974 288.117 289.575 288.117H327.047C327.648 288.117 328.224 288.356 328.649 288.781C329.074 289.206 329.312 289.782 329.312 290.382C329.312 290.983 329.074 291.559 328.649 291.984C328.224 292.409 327.648 292.647 327.047 292.647H289.575C288.974 292.647 288.398 292.409 287.973 291.984C287.549 291.559 287.31 290.983 287.31 290.382Z" fill="white"/>
<path d="M282.853 160.88H256.288V161.08C252.559 161.037 248.816 161.089 245.058 161.237V160.88H215.973C215.426 159.631 215.183 158.271 215.264 156.91C215.345 155.55 215.747 154.228 216.438 153.052C218.54 149.6 222.688 147.802 226.708 147.507C230.728 147.212 234.745 148.192 238.665 149.165C235.603 144.317 236.275 137.415 240.223 133.265C244.17 129.115 251.015 128.062 256.018 130.865C261.02 133.667 263.713 140.05 262.225 145.59C267.15 142.177 274.378 142.59 278.89 146.532C282.845 150 284.38 155.885 282.853 160.88Z" fill="#FEBE3D"/>
<path d="M256.445 155.7H245.215V173.33H256.445V155.7Z" fill="#38385C"/>
<path d="M250.922 142.995L241.232 156.635H260.612L250.922 142.995Z" fill="#38385C"/>
<path d="M59.735 181V164.122C59.735 160.725 61.0846 157.467 63.4869 155.064C65.8893 152.662 69.1476 151.312 72.545 151.312H146.425C149.822 151.312 153.081 152.662 155.483 155.064C157.885 157.467 159.235 160.725 159.235 164.122V181C159.235 184.397 157.885 187.656 155.483 190.058C153.081 192.46 149.822 193.81 146.425 193.81H72.5475C70.8649 193.811 69.1988 193.48 67.6442 192.836C66.0895 192.193 64.6769 191.249 63.4871 190.06C62.2973 188.87 61.3535 187.458 60.7097 185.903C60.0659 184.349 59.7347 182.683 59.735 181Z" fill="#FEBE3D"/>
<path d="M75.49 165.1L77.2725 170.865H83.0375L78.3725 174.43L80.155 180.195L75.49 176.632L70.825 180.195L72.6075 174.43L67.9425 170.865H73.7075L75.49 165.1Z" fill="#38385C"/>
<path d="M92.4674 165.1L94.2474 170.865H100.015L95.3499 174.43L97.1299 180.195L92.4674 176.632L87.8024 180.195L89.5849 174.43L84.9199 170.865H90.6849L92.4674 165.1Z" fill="#38385C"/>
<path d="M109.448 164.927L111.23 170.692H116.995L112.33 174.257L114.113 180.022L109.448 176.46L104.783 180.022L106.565 174.257L101.9 170.692H107.665L109.448 164.927Z" fill="#38385C"/>
<path d="M126.548 164.927L128.33 170.692H134.095L129.43 174.257L131.212 180.022L126.548 176.46L121.885 180.022L123.665 174.257L119 170.692H124.768L126.548 164.927Z" fill="#38385C"/>
<path d="M143.48 164.927L145.262 170.692H151.027L146.363 174.257L148.145 180.022L143.48 176.46L138.815 180.022L140.598 174.257L135.932 170.692H141.697L143.48 164.927Z" fill="#38385C"/>
<path d="M158.93 181.51L157.765 220.9L143.677 193.893L158.93 181.51Z" fill="#FEBE3D"/>
</svg>
