<svg width="500" height="302" viewBox="0 0 500 302" fill="none" xmlns="http://www.w3.org/2000/svg">
<g clip-path="url(#clip0_780_825)">
<path d="M64.5975 290.015C64.5975 290.015 -10.735 201.977 96.3825 173.692C203.5 145.407 231.725 121.205 282.367 47.8999C333.01 -25.4051 550.89 -5.79007 462.262 293.4L64.5975 290.015Z" fill="#E2EEFC"/>
<path d="M455.098 188.547H373.098V286.92H455.098V188.547Z" fill="#CCDEFF"/>
<path d="M398.492 193.695H378.242V197.445H398.492V193.695Z" fill="#E2EEFC"/>
<path d="M422.992 193.695H402.742V197.445H422.992V193.695Z" fill="#E2EEFC"/>
<path d="M446.992 193.695H426.742V197.445H446.992V193.695Z" fill="#E2EEFC"/>
<path d="M398.742 200.445H378.492V204.195H398.742V200.445Z" fill="#E2EEFC"/>
<path d="M423.242 200.445H402.992V204.195H423.242V200.445Z" fill="#E2EEFC"/>
<path d="M447.242 200.445H426.992V204.195H447.242V200.445Z" fill="#E2EEFC"/>
<path d="M398.742 207.195H378.492V210.945H398.742V207.195Z" fill="#E2EEFC"/>
<path d="M423.242 207.195H402.992V210.945H423.242V207.195Z" fill="#E2EEFC"/>
<path d="M447.242 207.195H426.992V210.945H447.242V207.195Z" fill="#E2EEFC"/>
<path d="M398.992 213.945H378.742V217.695H398.992V213.945Z" fill="#E2EEFC"/>
<path d="M423.492 213.945H403.242V217.695H423.492V213.945Z" fill="#E2EEFC"/>
<path d="M447.492 213.945H427.242V217.695H447.492V213.945Z" fill="#E2EEFC"/>
<path d="M399.242 220.695H378.992V224.445H399.242V220.695Z" fill="#E2EEFC"/>
<path d="M423.742 220.695H403.492V224.445H423.742V220.695Z" fill="#E2EEFC"/>
<path d="M447.742 220.695H427.492V224.445H447.742V220.695Z" fill="#E2EEFC"/>
<path d="M399.242 227.445H378.992V231.195H399.242V227.445Z" fill="#E2EEFC"/>
<path d="M423.742 227.445H403.492V231.195H423.742V227.445Z" fill="#E2EEFC"/>
<path d="M447.742 227.445H427.492V231.195H447.742V227.445Z" fill="#E2EEFC"/>
<path d="M447.742 237.732H378.992V262.732H447.742V237.732Z" fill="#E2EEFC"/>
<path d="M456.938 166.382H431.438V286.92H456.938V166.382Z" fill="#CCDEFF"/>
<path d="M462.025 177.42H454.525V286.92H462.025V177.42Z" fill="#CCDEFF"/>
<path d="M125.325 223.67H85.825V287.17H125.325V223.67Z" fill="#CCDEFF"/>
<path d="M119.343 229.942H89.9675V235.692H119.343V229.942Z" fill="#E2EEFC"/>
<path d="M119.343 239.545H89.9675V245.295H119.343V239.545Z" fill="#E2EEFC"/>
<path d="M119.358 249.15H89.9825V254.9H119.358V249.15Z" fill="#E2EEFC"/>
<path d="M119.358 258.557H89.9825V264.307H119.358V258.557Z" fill="#E2EEFC"/>
<path d="M154.103 203.42H114.603V287.17H154.103V203.42Z" fill="#CCDEFF"/>
<path d="M238.63 219.92H150.352V287.17H238.63V219.92Z" fill="#CCDEFF"/>
<path d="M85.8249 249.92H63.825V287.17H85.8249V249.92Z" fill="#CCDEFF"/>
<path d="M165.76 188.387H165.01V219.922H165.76V188.387Z" fill="#CCDEFF"/>
<path d="M174.18 195.645H173.43V219.92H174.18V195.645Z" fill="#CCDEFF"/>
<path d="M159.113 183.352H157.363V219.92H159.113V183.352Z" fill="#CCDEFF"/>
<path d="M97.715 214.57H90.465V223.672H97.715V214.57Z" fill="#CCDEFF"/>
<path d="M133.353 193.585H117.603V203.42H133.353V193.585Z" fill="#CCDEFF"/>
<path d="M147.127 183.352H140.377V203.42H147.127V183.352Z" fill="#CCDEFF"/>
<path d="M107.67 201.637H101.67V223.672H107.67V201.637Z" fill="#CCDEFF"/>
<path d="M72.4525 253.545H66.5775V259.42H72.4525V253.545Z" fill="#E2EEFC"/>
<path d="M82.0775 253.545H76.2025V259.42H82.0775V253.545Z" fill="#E2EEFC"/>
<path d="M72.4525 263.42H66.5775V269.295H72.4525V263.42Z" fill="#E2EEFC"/>
<path d="M82.0775 263.42H76.2025V269.295H82.0775V263.42Z" fill="#E2EEFC"/>
<path d="M72.4525 273.295H66.5775V279.17H72.4525V273.295Z" fill="#E2EEFC"/>
<path d="M82.0775 273.295H76.2025V279.17H82.0775V273.295Z" fill="#E2EEFC"/>
<path d="M121.607 208.742H119.357V284.492H121.607V208.742Z" fill="#E2EEFC"/>
<path d="M131.607 208.742H129.357V284.492H131.607V208.742Z" fill="#E2EEFC"/>
<path d="M140.61 208.742H138.36V284.492H140.61V208.742Z" fill="#E2EEFC"/>
<path d="M150.113 208.742H147.863V284.492H150.113V208.742Z" fill="#E2EEFC"/>
<path d="M373.098 256.307H332.598V287.135H373.098V256.307Z" fill="#CCDEFF"/>
<path d="M411.108 279.352H409.608V280.852H411.108V279.352Z" fill="#CCDEFF"/>
<path d="M472.848 287.17H33.365V302.17H472.848V287.17Z" fill="#1A1A35"/>
<path d="M357.095 25.165C357.095 11.165 368.142 -0.170044 381.772 -0.170044C395.402 -0.170044 406.45 11.1725 406.45 25.165C406.45 39.1575 382.78 64.75 382.78 64.75C382.78 64.75 357.095 39.1575 357.095 25.165Z" fill="#F75C3D"/>
<path d="M381.773 38.5649C389.158 38.5649 395.145 32.5779 395.145 25.1924C395.145 17.807 389.158 11.8199 381.773 11.8199C374.387 11.8199 368.4 17.807 368.4 25.1924C368.4 32.5779 374.387 38.5649 381.773 38.5649Z" fill="#1A1A35"/>
<path d="M130.155 105.91V263.017H387.905V182.767C385.862 182.951 383.816 183.072 381.768 183.13L380.295 183.162C369.435 183.344 358.617 181.785 348.25 178.545C348.213 178.405 348.178 178.262 348.138 178.125L345.975 170.005L345.763 169.205C347.249 167.97 348.791 166.803 350.388 165.705C358.413 158.077 369.265 153.592 380.313 152.955C380.813 152.927 381.295 152.907 381.785 152.895H382.3C384.178 152.863 386.055 152.947 387.923 153.145V105.895L130.155 105.91Z" fill="#38385C"/>
<path d="M113.315 263.017V266.317C113.315 272.839 115.906 279.094 120.517 283.705C125.129 288.317 131.383 290.907 137.905 290.907H379.73C386.252 290.907 392.506 288.317 397.118 283.705C401.729 279.094 404.32 272.839 404.32 266.317V263.017H113.315Z" fill="#1A1A35"/>
<path d="M136.292 119.077V258.11H381.772V183.132L380.3 183.165C369.439 183.347 358.618 181.788 348.25 178.547C348.212 178.407 348.177 178.265 348.137 178.127L345.975 170.007L345.762 169.207C347.249 167.972 348.791 166.806 350.387 165.707C358.412 158.08 369.265 153.595 380.312 152.957C380.812 152.93 381.295 152.91 381.785 152.897V119.077H136.292Z" fill="#1A1A35"/>
<path d="M349.785 165.887C348.19 166.981 346.648 168.147 345.16 169.387L345.372 170.187L347.535 178.307C347.575 178.447 347.612 178.59 347.647 178.727C358.019 181.97 368.843 183.528 379.707 183.345V255.615H138.355V120.812H379.707V153.137C368.662 153.775 357.81 158.25 349.785 165.887Z" fill="white"/>
<path d="M253.223 183.782C254.589 181.081 256.608 178.763 259.096 177.038C261.584 175.313 264.463 174.236 267.473 173.905L262.208 180.327C264.728 177.237 268.708 175.19 272.67 175.632C276.633 176.075 280.285 179.357 280.533 183.335C280.78 187.312 276.988 191.232 273.055 190.585C266.217 189.467 259.201 190.48 252.958 193.485C253.18 189.95 253.403 186.42 253.223 183.782Z" fill="#FFCBBD"/>
<path d="M380.297 145.43H345.777V196.475H380.297V145.43Z" fill="white"/>
<path d="M272.533 109.032H245.53V114.432H272.533V109.032Z" fill="#4C231F"/>
<path d="M387.817 145.43H381.772V196.475H387.817V145.43Z" fill="#38385C"/>
<path d="M381.772 145.43H379.71V196.475H381.772V145.43Z" fill="#1A1A35"/>
<path d="M298.367 55.9275C297.22 59.4738 295.011 62.5822 292.04 64.8325C289.228 65.0625 286.412 65.2383 283.59 65.36C283.154 64.639 282.505 64.0715 281.732 63.736C280.96 63.4005 280.102 63.3136 279.277 63.4875C277.53 63.8588 275.732 63.9222 273.962 63.675C271.877 63.3959 269.89 62.6134 268.175 61.395L267.972 61.26C267.537 60.9932 267.043 60.8356 266.534 60.8006C266.024 60.7656 265.514 60.8542 265.046 61.059C264.578 61.2637 264.166 61.5785 263.846 61.9765C263.526 62.3746 263.307 62.844 263.207 63.345C263.177 63.49 263.15 63.635 263.127 63.78C263.052 64.17 262.99 64.5625 262.937 64.9575C262.917 65.09 262.9 65.225 262.882 65.36C262.28 70.137 262.945 74.9886 264.81 79.4275C262.81 78.7125 261.392 76.9875 259.912 75.4725C258.432 73.9575 256.585 72.4975 254.47 72.585C252.355 72.6725 251.067 76.51 250.72 79.3225C247.275 76.585 245.267 71.9725 244.67 67.0725C244.409 64.9442 244.415 62.7918 244.687 60.665C246.407 52.7775 253.475 46.385 262.575 45.325C271.81 44.25 280.265 49.0025 283.655 56.4675C287.365 55.8657 291.123 55.6146 294.88 55.7175C293.848 57.4565 292.405 58.9159 290.677 59.9675C293.502 59.8 296.162 58.1925 297.755 55.8725C297.96 55.8925 298.165 55.9075 298.367 55.9275Z" fill="#38385C"/>
<path d="M273.92 100.5C268.516 103.041 262.331 103.362 256.693 101.395C258.17 99.38 259.832 97.47 260.775 95.1625C261.095 94.377 261.32 93.5562 261.445 92.7175C261.769 90.4899 261.452 88.2161 260.53 86.1625C260.971 86.1733 261.411 86.2092 261.848 86.27C264.668 88.77 267.487 91.27 270.305 93.77L270.508 93.95C270.945 96.432 272.137 98.7189 273.92 100.5Z" fill="#FFCBBD"/>
<path d="M279.5 91.06C278.089 91.2056 276.663 91.1143 275.282 90.79C273.696 90.4091 272.145 89.8922 270.647 89.245C270.187 89.055 269.73 88.86 269.277 88.665C266.885 87.64 264.395 86.5925 261.842 86.2575C261.406 86.1969 260.966 86.161 260.525 86.15C260.037 86.1329 259.548 86.1496 259.062 86.2C255.702 86.55 252.242 84.3725 251.107 81.2C250.894 80.5988 250.764 79.9714 250.72 79.335C251.067 76.5225 252.35 72.68 254.47 72.585C256.59 72.49 258.435 73.955 259.915 75.475C261.395 76.995 262.817 78.725 264.81 79.43C262.68 74.3499 262.122 68.748 263.207 63.3475C263.31 62.826 263.543 62.3388 263.884 61.9308C264.225 61.5228 264.663 61.2071 265.158 61.0129C265.652 60.8186 266.188 60.752 266.715 60.8192C267.243 60.8865 267.745 61.0853 268.175 61.3975C271.295 63.6475 275.392 64.3 279.277 63.4875C280.191 63.2938 281.144 63.422 281.974 63.8503C282.804 64.2785 283.461 64.9806 283.832 65.8375C284.082 66.4175 284.332 66.9925 284.532 67.5375C285.077 73.0775 285.622 78.6183 286.165 84.16C286.5 87.685 283.027 90.645 279.5 91.06Z" fill="#FFCBBD"/>
<path d="M270.482 93.7799C270.482 93.8324 270.5 93.8849 270.507 93.9374L270.305 93.7574L261.847 86.2574C264.397 86.5924 266.887 87.6399 269.282 88.6649C269.734 88.8599 270.191 89.0533 270.652 89.2449C270.365 90.4728 270.274 91.7387 270.385 92.9949C270.408 93.2616 270.441 93.5233 270.482 93.7799Z" fill="#EA5C46"/>
<path d="M184.38 194.59C183.433 195.403 182.509 196.247 181.607 197.12C182.486 196.228 183.412 195.384 184.38 194.59V194.59Z" stroke="#4A4540" stroke-miterlimit="10"/>
<path d="M184.38 194.59C183.433 195.403 182.509 196.247 181.607 197.12C182.486 196.228 183.412 195.384 184.38 194.59V194.59Z" stroke="#4A4540" stroke-miterlimit="10"/>
<path d="M270.5 93.9374L270.297 93.7574L270.475 93.7799C270.5 93.8324 270.5 93.8849 270.5 93.9374Z" fill="#EB624D"/>
<path d="M281.865 103.86C280.833 104.784 279.718 105.61 278.535 106.33C274.564 108.702 270.032 109.971 265.407 110.005C261.412 110.077 257.45 109.255 253.812 107.6C253.097 107.267 252.401 106.903 251.722 106.51C250.131 105.586 248.658 104.473 247.335 103.195C247.747 102.555 248.162 101.915 248.627 101.275C249.372 100.234 250.233 99.2799 251.192 98.4324C252.862 99.6955 254.717 100.692 256.692 101.385C262.331 103.352 268.516 103.031 273.92 100.49C275.465 99.7509 276.91 98.8166 278.217 97.71L279.167 99.31C280.066 100.825 280.965 102.342 281.865 103.86Z" fill="#38385C"/>
<path d="M219.275 178.937C218.81 179.771 218.316 180.587 217.792 181.387C217.67 181.577 217.542 181.767 217.42 181.957C217.517 181.77 217.615 181.585 217.71 181.397C218.115 180.607 218.495 179.807 218.857 179C227.415 159.75 223.645 135.467 210.495 119.75C226.127 134.517 229.725 160.265 219.275 178.937Z" fill="#3E431F"/>
<path d="M219.275 178.937C218.81 179.771 218.316 180.587 217.792 181.387H217.708C216.855 181.485 216.002 181.595 215.152 181.722C203.525 183.445 191.925 188.36 184.38 194.585C194.068 186.247 206.205 180.927 218.852 178.992C219 178.975 219.132 178.952 219.275 178.937Z" fill="#3E431F"/>
<path d="M338.627 149.625C332.935 153.565 328.895 159.537 326.177 165.905C323.46 172.272 321.96 179.08 320.097 184.52C318.75 170.63 326.365 156.285 338.627 149.625Z" fill="#E44531"/>
<path d="M338.627 149.625C332.935 153.565 328.895 159.537 326.177 165.905C323.46 172.272 321.96 179.08 320.097 184.52C318.75 170.63 326.365 156.285 338.627 149.625Z" fill="#E44531"/>
<path d="M329.605 250.7V255.432H199.84V251.232C199.932 250.812 200.022 250.392 200.115 249.982C201.415 244.004 202.716 238.027 204.017 232.05C223.75 228 242.182 217.5 255.395 202.25C256.215 201.305 257.015 200.342 257.795 199.36C257.495 198.052 257.195 196.743 256.895 195.435C257.397 195.427 257.888 195.29 258.32 195.035L260.107 193.962C259.941 197.047 259.702 200.125 259.392 203.195C258.635 210.689 257.466 218.136 255.892 225.502C272.695 222.885 289.497 220.975 306.302 219.07C306.517 213.353 306.743 207.603 306.98 201.82C307.025 200.78 307.065 199.742 307.11 198.7L307.43 198.73C307.77 199.34 308.117 199.947 308.465 200.555C309.165 201.78 309.88 203.001 310.61 204.217C314.36 210.487 321.507 214.527 328.792 214.717L329.587 249.982C329.595 250.215 329.6 250.46 329.605 250.7Z" fill="#5F6730"/>
<path d="M307.133 198.205C307.133 198.37 307.118 198.535 307.113 198.705" stroke="#4A4540" stroke-miterlimit="10"/>
<path d="M307.43 198.73C307.322 198.73 307.217 198.71 307.11 198.7C307.11 198.535 307.125 198.37 307.13 198.2L307.43 198.73Z" stroke="#4A4540" stroke-miterlimit="10"/>
<path d="M381.265 102.342L370.677 95.9999L367.122 93.8724L336.872 147.372C333.542 133.492 326.47 120.107 315.692 110.957C309.157 105.412 302.002 102.007 294.247 100.375C289.285 99.3666 284.213 99.002 279.157 99.2899C280.057 100.807 280.958 102.324 281.858 103.842C280.826 104.766 279.711 105.593 278.527 106.312C274.557 108.684 270.025 109.953 265.4 109.987C261.404 110.059 257.443 109.238 253.805 107.582C253.09 107.249 252.393 106.886 251.715 106.492C250.124 105.569 248.651 104.456 247.327 103.177C247.74 102.537 248.155 101.897 248.62 101.257C242.202 101.482 235.814 102.242 229.522 103.53C221.393 105.205 213.429 107.598 205.722 110.68C201.891 112.2 198.439 114.541 195.611 117.539C192.782 120.537 190.645 124.119 189.35 128.032C180.695 154.119 172.039 180.208 163.382 206.3C159.315 218.55 169.502 233.3 182.405 233.8C189.651 234.084 196.905 233.486 204.007 232.02C223.75 228 242.182 217.5 255.395 202.27C256.215 201.325 257.015 200.362 257.795 199.38C257.495 198.072 257.195 196.763 256.895 195.455C256.222 192.51 255.555 189.565 254.915 186.617C254.855 186.227 254.792 185.837 254.732 185.447C254.652 184.665 254.562 183.905 254.482 183.145C254.497 183.112 254.515 183.085 254.53 183.055H254.47C249.16 182.39 243.822 181.73 238.47 181.305C231.56 180.765 224.645 180.63 217.787 181.402C217.665 181.592 217.537 181.782 217.415 181.972C217.512 181.785 217.61 181.6 217.705 181.412C216.852 181.51 216 181.62 215.15 181.747C203.522 183.47 191.922 188.385 184.377 194.61C183.431 195.423 182.507 196.267 181.605 197.14C182.483 196.248 183.409 195.403 184.377 194.61C194.065 186.272 206.202 180.952 218.85 179.017C227.407 159.767 223.637 135.485 210.487 119.767C226.122 134.517 229.72 160.267 219.27 178.95C225.481 178.028 231.787 177.944 238.02 178.7C243.659 179.378 249.184 180.795 254.452 182.915L254.577 182.965C255.93 180.453 257.895 178.324 260.29 176.775C259.984 167.556 259.015 158.372 257.39 149.292L285.48 144.14L301.577 141.187L309.78 139.687C309.435 147.061 309.092 154.429 308.75 161.792C308.187 174 307.64 186.165 307.135 198.212C307.232 198.39 307.332 198.56 307.432 198.737C307.772 199.347 308.12 199.955 308.467 200.562C309.167 201.787 309.882 203.008 310.612 204.225C314.362 210.495 321.51 214.535 328.795 214.725C329.639 214.746 330.484 214.714 331.325 214.63C339.435 213.81 346.825 207.995 349.542 200.305L383.557 103.725C382.79 103.25 382.03 102.797 381.265 102.342ZM326.177 165.902C323.457 172.267 321.96 179.077 320.097 184.517C318.747 170.63 326.367 156.285 338.627 149.622C332.935 153.565 328.892 159.535 326.177 165.902Z" fill="#5F6730"/>
<path d="M332.162 138.277H234.662V226.777H332.162V138.277Z" fill="#FEBE3D"/>
<path d="M258.447 138.277H234.662V226.777H258.447V138.277Z" fill="#F8A23A"/>
<path d="M329.257 145.87H309.34V154.057H329.257V145.87Z" fill="white"/>
<path d="M329.578 158.362H309.66V166.55H329.578V158.362Z" fill="white"/>
<path d="M254.575 182.95C254.558 182.98 254.543 183.01 254.528 183.04H254.468C249.158 182.375 243.82 181.715 238.468 181.29C231.558 180.75 224.643 180.615 217.785 181.387C218.31 180.585 218.8 179.77 219.268 178.937C225.478 178.015 231.785 177.931 238.018 178.687C243.656 179.366 249.181 180.783 254.45 182.902L254.575 182.95Z" fill="#3E431F"/>
<path d="M395.663 94.6125C390.603 96.671 385.777 99.2614 381.265 102.34L370.677 96C370.885 89.2197 372.303 82.5311 374.865 76.25C375.432 74.8625 377.882 74.9875 378.302 76.43C379.315 79.9294 379.57 83.6041 379.052 87.21C382.832 81.9483 386.614 76.6875 390.397 71.4275C390.733 70.9629 391.217 70.6257 391.769 70.4706C392.321 70.3156 392.909 70.3518 393.438 70.5734C393.966 70.7951 394.405 71.1891 394.681 71.6914C394.957 72.1937 395.056 72.7747 394.96 73.34C394.52 75.89 395.44 78.465 396.487 80.84C397.535 83.215 398.737 85.5725 398.957 88.15C399.177 90.7275 398.058 93.64 395.663 94.6125Z" fill="#FFCBBD"/>
<path d="M199.84 249.975H200.115C200.022 250.395 199.932 250.815 199.84 251.225V249.975Z" stroke="#4A4540" stroke-miterlimit="10"/>
<path d="M329.605 249.975V250.702C329.605 250.452 329.605 250.217 329.588 249.975H329.605Z" stroke="#4A4540" stroke-miterlimit="10"/>
<path d="M280.978 70.3224C281.713 70.3224 282.31 71.62 282.31 73.2225C282.31 74.825 281.713 76.1225 280.978 76.1225C280.243 76.1225 279.645 74.825 279.645 73.2225C279.645 71.62 280.25 70.3224 280.978 70.3224Z" fill="#1A1A35"/>
<path d="M274.05 70.655C274.89 70.655 275.572 71.9525 275.572 73.555C275.572 75.1575 274.89 76.455 274.05 76.455C273.21 76.455 272.527 75.1575 272.527 73.555C272.527 71.9525 273.21 70.655 274.05 70.655Z" fill="#1A1A35"/>
<path d="M278.925 67.4824C279.15 66.5474 280.175 65.9424 281.142 66.0399C282.11 66.1374 282.93 66.82 283.392 67.66C283.825 68.525 284.039 69.483 284.015 70.4499C283.165 68.2974 280.727 66.8924 278.925 67.4824Z" fill="#1A1A35"/>
<path d="M273.28 66.0124C272.225 65.8988 271.158 66.0344 270.165 66.4082C269.172 66.782 268.281 67.3836 267.563 68.1647C266.845 68.9458 266.32 69.8846 266.031 70.9054C265.741 71.9263 265.696 73.0008 265.897 74.0424C266.975 70.2674 270.04 67.1199 273.28 66.0124Z" fill="#1A1A35"/>
<path d="M277.91 72.7324C277.955 74.6158 278.001 76.4991 278.047 78.3824C278.268 77.7121 278.668 77.1152 279.205 76.6574C279.762 76.2324 280.567 76.0699 281.177 76.4074C281.787 76.7449 282.04 77.6774 281.573 78.1999L279.095 80.9674L280.733 78.0149C280.819 77.8494 280.845 77.6591 280.807 77.4763C280.769 77.2936 280.669 77.1295 280.524 77.0119C280.379 76.8943 280.198 76.8304 280.012 76.8309C279.825 76.8315 279.644 76.8965 279.5 77.0149L277.182 78.9899C277.4 77.0724 277.62 75.1574 277.91 72.7324Z" fill="#EA5C46"/>
<path d="M270.25 81.475C271.787 82.4605 273.526 83.0898 275.338 83.3169C277.15 83.544 278.989 83.3631 280.723 82.7875C280.029 83.4295 279.195 83.8998 278.286 84.1603C277.378 84.4208 276.421 84.4644 275.492 84.2875C273.655 83.91 272.023 82.6025 270.25 81.475Z" fill="#EA5C46"/>
<path d="M270.21 194.857C265.399 194.353 260.547 194.38 255.742 194.94L250.627 185.25C253.886 179.86 258.027 175.057 262.877 171.04C263.945 170.157 265.745 171.312 265.4 172.662C264.558 175.947 263.07 179.03 261.022 181.732L276.877 173.807C277.329 173.584 277.844 173.522 278.336 173.633C278.827 173.744 279.266 174.021 279.577 174.417C279.865 174.852 280.009 175.366 279.987 175.887C279.966 176.408 279.78 176.908 279.457 177.317C277.957 179.197 277.457 181.68 277.172 184.05C276.887 186.42 276.712 188.86 275.672 191.05C274.632 193.24 272.472 195.095 270.21 194.857Z" fill="#FFCBBD"/>
<path d="M228.5 181.057L254.087 180.357C252.93 182.96 254.453 185.895 255.74 188.437C257.028 190.98 258.015 194.332 256.108 196.437L233.64 221.327C231.25 223.977 226.047 222.75 225.09 219.312C223.215 212.577 221.323 205.712 221.568 198.727C221.813 191.742 224.528 184.5 228.5 181.057Z" fill="#F75C3D"/>
<path d="M138.355 143.215C167.119 143.215 190.437 119.897 190.437 91.1324C190.437 62.3681 167.119 39.0499 138.355 39.0499C109.591 39.0499 86.2725 62.3681 86.2725 91.1324C86.2725 119.897 109.591 143.215 138.355 143.215Z" fill="#CCDEFF"/>
<path d="M138.355 135.692C162.965 135.692 182.915 115.742 182.915 91.1325C182.915 66.5227 162.965 46.5724 138.355 46.5724C113.745 46.5724 93.795 66.5227 93.795 91.1325C93.795 115.742 113.745 135.692 138.355 135.692Z" fill="#E2EEFC"/>
<path d="M138.355 95.8824C140.978 95.8824 143.105 93.7558 143.105 91.1324C143.105 88.5091 140.978 86.3824 138.355 86.3824C135.732 86.3824 133.605 88.5091 133.605 91.1324C133.605 93.7558 135.732 95.8824 138.355 95.8824Z" fill="#CCDEFF"/>
<path d="M137.32 83.91V54.41C137.32 54.0785 137.452 53.7605 137.686 53.5261C137.92 53.2917 138.238 53.16 138.57 53.16C138.901 53.16 139.219 53.2917 139.454 53.5261C139.688 53.7605 139.82 54.0785 139.82 54.41V83.91C139.82 84.2415 139.688 84.5594 139.454 84.7939C139.219 85.0283 138.901 85.16 138.57 85.16C138.238 85.16 137.92 85.0283 137.686 84.7939C137.452 84.5594 137.32 84.2415 137.32 83.91Z" fill="#CCDEFF"/>
<path d="M131.07 92.3824H101.57C101.238 92.3824 100.92 92.2507 100.686 92.0163C100.452 91.7819 100.32 91.464 100.32 91.1324C100.32 90.8009 100.452 90.483 100.686 90.2486C100.92 90.0141 101.238 89.8824 101.57 89.8824H131.07C131.401 89.8824 131.719 90.0141 131.954 90.2486C132.188 90.483 132.32 90.8009 132.32 91.1324C132.32 91.464 132.188 91.7819 131.954 92.0163C131.719 92.2507 131.401 92.3824 131.07 92.3824Z" fill="#CCDEFF"/>
<path d="M285.172 62.3699L273.962 63.6749L262.937 64.9574L260.797 65.2074L244.672 67.0849L244.495 67.1049C244.46 66.8824 244.43 66.6574 244.402 66.4349C244.178 64.5156 244.275 62.5722 244.69 60.6849C246.41 52.7974 253.477 46.4049 262.577 45.3449C271.812 44.2699 280.267 49.0224 283.657 56.4874C284.409 58.1406 284.898 59.901 285.107 61.7049C285.135 61.9199 285.155 62.1449 285.172 62.3699Z" fill="#F75C3D"/>
<path d="M306.113 60.1399C306.076 60.9913 305.747 61.8041 305.182 62.4416C304.616 63.079 303.848 63.5022 303.008 63.6399C299.366 64.1399 295.71 64.5391 292.04 64.8374C289.228 65.0674 286.412 65.2433 283.59 65.3649C276.705 65.6674 269.793 65.6549 262.883 65.3649C262.16 65.3349 261.435 65.3024 260.713 65.2649L260.798 65.2099C261.563 64.7099 262.34 64.2374 263.128 63.7849C264.703 62.8649 266.318 62.0249 267.973 61.2649C276.399 57.3799 285.607 55.4868 294.883 55.7324C295.843 55.7574 296.801 55.8066 297.758 55.8799C297.96 55.8974 298.165 55.9124 298.368 55.9324C299.963 56.0691 301.546 56.2733 303.118 56.5449C303.954 56.7086 304.708 57.1555 305.254 57.8103C305.799 58.465 306.103 59.2878 306.113 60.1399Z" fill="#E44531"/>
<path d="M293.843 193.825L299.16 208.885C305.855 198.825 317.005 191.245 329.588 188.207L293.795 220.207C293.865 211.655 293.933 203.102 293.843 193.825Z" fill="#F75C3D"/>
</g>
<defs>
<clipPath id="clip0_780_825">
<rect width="500" height="302" fill="white"/>
</clipPath>
</defs>
</svg>
