<svg width="1217" height="730" viewBox="0 0 1217 730" fill="none" xmlns="http://www.w3.org/2000/svg">
<g opacity="0.4">
<path d="M1155.88 609.821L1143.64 650.534C1143.43 651.196 1143.5 651.919 1143.83 652.566C1144.17 653.213 1144.75 653.738 1145.46 654.04C1145.55 654.076 1145.65 654.111 1145.75 654.14C1146.47 654.359 1147.25 654.327 1147.91 654.048C1148.29 653.892 1148.62 653.664 1148.88 653.379C1149.15 653.094 1149.34 652.759 1149.45 652.394L1161.82 611.278L1155.88 609.821Z" fill="#809500"/>
<path d="M1098.62 592.579L1086.38 633.293C1086.17 633.954 1086.24 634.677 1086.58 635.324C1086.91 635.971 1087.49 636.496 1088.2 636.799C1088.29 636.834 1088.39 636.869 1088.49 636.898C1089.21 637.118 1089.99 637.085 1090.65 636.807C1091.03 636.65 1091.36 636.422 1091.62 636.137C1091.89 635.852 1092.08 635.517 1092.19 635.152L1104.56 594.036L1098.62 592.579Z" fill="#809500"/>
<path d="M1169.03 659.06C1169.3 658.135 1169.2 657.132 1168.74 656.23C1168.29 655.328 1167.5 654.584 1166.53 654.131L1163.29 652.608L1157.7 649.986L1151.11 646.895L1145.52 644.269L1106.99 626.184C1106.42 625.918 1105.8 625.758 1105.18 625.716L1095.22 625.08L1091.21 624.819L1089.57 624.714L1089.56 624.713L1089.55 624.716L1088.97 624.677L1083.04 624.294L1081.17 624.172L1080.59 624.132L1074.92 623.766L1064.05 623.07C1063.32 623.023 1062.6 623.138 1061.96 623.405L1061.96 623.414C1061.39 623.641 1060.9 623.977 1060.5 624.401C1060.1 624.824 1059.81 625.326 1059.65 625.872L1045.86 671.724C1045.76 672.049 1045.71 672.388 1045.71 672.731C1045.7 673.497 1045.92 674.262 1046.36 674.942C1046.79 675.621 1047.41 676.189 1048.16 676.583L1102.56 704.989L1107.97 707.813C1108.2 707.934 1108.44 708.035 1108.68 708.112C1108.74 708.137 1108.79 708.157 1108.85 708.173C1109.05 708.23 1109.24 708.276 1109.44 708.311L1109.45 708.308C1109.7 708.356 1109.96 708.381 1110.22 708.383L1132.5 708.743L1151.14 709.047C1152.1 709.066 1153.03 708.8 1153.78 708.288C1154.53 707.777 1155.07 707.047 1155.31 706.207L1169.03 659.06Z" fill="white"/>
<path d="M1165.21 657.934C1165.25 657.819 1165.23 657.694 1165.18 657.582C1165.12 657.47 1165.02 657.378 1164.9 657.323L1164.49 657.131L1162.24 656.076L1162.02 655.97L1162.02 655.969L1162.01 655.961L1156.66 653.454L1150.07 650.358L1144.48 647.737L1105.36 629.371C1105.33 629.362 1105.31 629.35 1105.27 629.34C1105.23 629.325 1105.18 629.318 1105.13 629.318L1101.51 629.084L1097.69 628.838L1094.16 628.611L1087.91 628.208L1087.33 628.173L1087.33 628.171L1080.1 627.708L1073.86 627.302L1069.73 627.039L1067.05 626.866L1067.04 626.868L1064.01 626.667C1063.88 626.659 1063.76 626.689 1063.66 626.753C1063.56 626.817 1063.49 626.911 1063.46 627.02L1049.67 672.872C1049.64 672.982 1049.65 673.103 1049.7 673.212C1049.75 673.322 1049.84 673.414 1049.95 673.474L1052.38 674.74L1104.61 702.017L1109.51 704.573L1109.51 704.575L1109.77 704.706C1109.85 704.753 1109.95 704.779 1110.05 704.78L1110.63 704.789L1127.1 705.055L1127.1 705.057L1133.43 705.162L1150.97 705.441C1151.09 705.444 1151.21 705.412 1151.3 705.349C1151.39 705.286 1151.46 705.196 1151.49 705.092L1165.21 657.934Z" fill="#3F3D56"/>
<path d="M1169.03 659.06C1169.3 658.135 1169.2 657.132 1168.74 656.23C1168.29 655.328 1167.5 654.584 1166.53 654.131L1163.29 652.608L1157.7 649.986L1151.11 646.895L1145.52 644.269L1106.99 626.184C1106.42 625.918 1105.8 625.758 1105.18 625.716L1095.22 625.08L1091.21 624.819L1089.57 624.714L1089.56 624.713L1089.55 624.716L1088.97 624.677L1083.04 624.294L1081.17 624.172L1080.59 624.132L1074.92 623.766L1064.05 623.07C1063.32 623.023 1062.6 623.138 1061.96 623.405L1061.96 623.414C1061.39 623.641 1060.9 623.977 1060.5 624.401C1060.1 624.824 1059.81 625.326 1059.65 625.872L1045.86 671.724C1045.76 672.049 1045.71 672.388 1045.71 672.731C1045.7 673.497 1045.92 674.262 1046.36 674.942C1046.79 675.621 1047.41 676.189 1048.16 676.583L1102.56 704.989L1107.97 707.813C1108.2 707.934 1108.44 708.035 1108.68 708.112C1108.74 708.137 1108.79 708.157 1108.85 708.173C1109.05 708.23 1109.24 708.276 1109.44 708.311L1109.45 708.308C1109.7 708.356 1109.96 708.381 1110.22 708.383L1132.5 708.743L1151.14 709.047C1152.1 709.066 1153.03 708.8 1153.78 708.288C1154.53 707.777 1155.07 707.047 1155.31 706.207L1169.03 659.06ZM1151.09 708.019L1132.67 707.721L1126.46 707.622L1110.17 707.358C1110.07 707.355 1109.98 707.348 1109.9 707.341C1109.52 707.303 1109.14 707.212 1108.79 707.072L1108.78 707.07C1108.69 707.027 1108.59 706.977 1108.49 706.927L1103.14 704.135L1048.67 675.693C1048.15 675.422 1047.71 675.038 1047.39 674.58C1047.07 674.121 1046.88 673.602 1046.84 673.071C1046.81 672.725 1046.85 672.381 1046.95 672.052L1060.74 626.2C1060.96 625.474 1061.47 624.863 1062.17 624.486L1062.17 624.488L1062.18 624.483C1062.64 624.239 1063.16 624.106 1063.71 624.093C1063.82 624.086 1063.93 624.086 1064.03 624.094L1074.61 624.781L1080.86 625.182L1081.52 625.218L1081.54 625.223L1088.67 625.687L1091.88 625.894L1094.5 626.061L1094.92 626.09L1105.16 626.748C1105.44 626.766 1105.73 626.817 1106 626.9C1106.18 626.954 1106.36 627.02 1106.53 627.096L1145.22 645.261L1150.81 647.883L1157.4 650.974L1162.99 653.6L1166.07 655.043C1166.66 655.32 1167.16 655.745 1167.51 656.266L1167.52 656.269C1167.77 656.642 1167.94 657.053 1168.01 657.478C1168.08 657.902 1168.06 658.33 1167.94 658.736L1154.22 705.887C1154.04 706.518 1153.63 707.065 1153.07 707.449C1152.51 707.834 1151.81 708.033 1151.09 708.019Z" fill="#3F3D56"/>
<path d="M1167.98 657.3C1167.93 657.312 1167.87 657.316 1167.82 657.313L1148.16 656.243L1142.04 655.909L1124.62 654.96C1124.58 654.957 1124.53 654.948 1124.48 654.934C1124.45 654.924 1124.41 654.912 1124.38 654.898L1062.18 624.486L1061.97 624.384C1061.83 624.318 1061.73 624.207 1061.68 624.075C1061.63 623.944 1061.64 623.803 1061.7 623.683C1061.77 623.564 1061.88 623.475 1062.02 623.437C1062.16 623.399 1062.32 623.414 1062.45 623.479L1063.71 624.091L1124.75 653.938L1139.76 654.756L1148.15 655.213L1167.52 656.266L1167.82 656.284C1167.96 656.292 1168.08 656.342 1168.19 656.426C1168.29 656.51 1168.35 656.621 1168.38 656.742C1168.38 656.771 1168.39 656.801 1168.39 656.83C1168.39 656.941 1168.34 657.047 1168.27 657.132C1168.2 657.217 1168.09 657.275 1167.98 657.3Z" fill="#3F3D56"/>
<path d="M1109.01 708.342C1108.86 708.299 1108.74 708.206 1108.67 708.085C1108.59 707.964 1108.57 707.823 1108.61 707.694L1124.08 654.286C1124.12 654.156 1124.21 654.049 1124.34 653.987C1124.47 653.925 1124.62 653.913 1124.77 653.956L1124.77 653.957C1124.92 654 1125.04 654.093 1125.11 654.214C1125.19 654.335 1125.21 654.476 1125.17 654.605L1109.7 708.013C1109.66 708.143 1109.57 708.25 1109.44 708.312C1109.31 708.374 1109.16 708.385 1109.01 708.343L1109.01 708.342Z" fill="#3F3D56"/>
<path d="M1132.48 708.347L1126.36 708.013L1139.76 654.756L1081.7 625.319C1081.64 625.291 1081.59 625.26 1081.54 625.226C1081.1 624.964 1080.77 624.579 1080.59 624.135L1089.55 624.711L1091.88 625.892L1146.98 653.821C1147.27 653.967 1147.52 654.167 1147.72 654.408C1147.93 654.648 1148.07 654.922 1148.15 655.213C1148.25 655.551 1132.58 708.008 1132.48 708.347Z" fill="#809500"/>
<path d="M1195.58 610.307C1194.66 609.767 1193.72 609.233 1192.78 608.706L1194.02 604.611C1194.47 603.141 1194.27 601.534 1193.48 600.121C1193.13 599.495 1192.67 598.924 1192.11 598.436C1191.99 598.322 1191.86 598.216 1191.72 598.116C1191.19 597.716 1190.6 597.395 1189.97 597.167C1189.3 596.918 1188.59 596.772 1187.88 596.735C1187.46 596.713 1187.03 596.728 1186.62 596.781C1186.01 596.864 1185.44 597.026 1184.89 597.261C1184.77 597.313 1184.66 597.367 1184.54 597.429C1183.16 598.133 1182.15 599.308 1181.73 600.715L1181.2 602.487C1151.8 587.526 1119.78 577.886 1087.01 574.127L1087.49 572.535C1087.94 571.065 1087.75 569.458 1086.95 568.045C1086.61 567.419 1086.15 566.849 1085.59 566.361C1085.47 566.248 1085.33 566.141 1085.2 566.04C1084.67 565.64 1084.08 565.319 1083.45 565.091C1082.78 564.842 1082.07 564.696 1081.36 564.659C1080.94 564.637 1080.51 564.653 1080.1 564.706C1079.49 564.788 1078.91 564.949 1078.37 565.185C1078.25 565.237 1078.14 565.291 1078.02 565.354C1076.64 566.058 1075.63 567.232 1075.21 568.639L1073.92 572.914C1072.85 572.839 1071.78 572.766 1070.71 572.704L1070.45 572.69L1070.38 572.911C1069.83 574.753 1069.73 576.709 1070.1 578.64L1070.43 579.94C1071.11 582.174 1072.4 584.243 1074.18 585.946C1075.96 587.648 1078.16 588.926 1080.57 589.653L1084.8 590.925L1072.46 631.943C1072.25 632.604 1072.32 633.327 1072.66 633.974C1072.99 634.621 1073.57 635.145 1074.28 635.447C1074.68 635.606 1075.1 635.69 1075.52 635.691C1075.94 635.693 1076.36 635.613 1076.73 635.457C1077.11 635.301 1077.44 635.073 1077.7 634.788C1077.97 634.502 1078.16 634.166 1078.27 633.801L1090.55 592.991C1091.74 593.694 1092.78 594.611 1093.58 595.683C1094.39 596.754 1094.95 597.956 1095.22 599.209C1095.4 599.996 1095.63 600.774 1095.93 601.537C1096.86 603.904 1098.39 606.066 1100.38 607.839C1102.38 609.612 1104.79 610.944 1107.4 611.723L1143.46 622.583C1146.21 623.413 1149.09 623.619 1151.86 623.185C1154.59 622.769 1157.11 621.7 1159.17 620.084C1159.6 619.744 1160.01 619.381 1160.39 618.995C1161.31 618.061 1162.45 617.332 1163.74 616.861C1165.03 616.39 1166.43 616.187 1167.84 616.266L1155.6 656.977C1155.39 657.638 1155.46 658.361 1155.79 659.008C1156.13 659.655 1156.71 660.179 1157.42 660.481C1157.51 660.519 1157.61 660.553 1157.71 660.582C1158.43 660.802 1159.21 660.77 1159.87 660.493C1160.25 660.335 1160.58 660.107 1160.84 659.822C1161.11 659.537 1161.3 659.201 1161.41 658.836L1173.78 617.72L1178 618.99C1180.42 619.717 1182.96 619.869 1185.38 619.431C1187.8 618.993 1190.02 617.98 1191.82 616.491C1192.17 616.207 1192.5 615.907 1192.81 615.59C1194.19 614.186 1195.19 612.502 1195.74 610.659L1195.81 610.438L1195.58 610.307Z" fill="#809500"/>
<path d="M1122.46 622.303C1131.07 624.896 1139.94 620.731 1142.26 613C1144.59 605.27 1139.49 596.902 1130.88 594.309C1122.27 591.717 1113.41 595.882 1111.08 603.612C1108.76 611.342 1113.85 619.711 1122.46 622.303Z" fill="#3F3D56"/>
<path d="M1124.43 615.771C1129.02 617.154 1133.75 614.933 1134.99 610.81C1136.23 606.687 1133.51 602.224 1128.92 600.841C1124.33 599.459 1119.6 601.68 1118.36 605.803C1117.12 609.926 1119.84 614.389 1124.43 615.771Z" fill="#809500"/>
<path d="M1213 601.545L1192.54 595.383L1191.66 598.301L1215.68 605.533C1215.84 604.712 1215.65 603.848 1215.16 603.111C1214.66 602.373 1213.89 601.815 1213 601.545Z" fill="#809500"/>
<path d="M1168.19 588.049C1167.29 587.783 1166.35 587.825 1165.52 588.166C1164.7 588.507 1164.07 589.123 1163.75 589.895L1187.77 597.127L1188.64 594.209L1168.19 588.049Z" fill="#809500"/>
<path d="M1194.83 599.254C1194.94 598.045 1194.58 596.815 1193.83 595.77C1193.26 594.985 1192.48 594.34 1191.57 593.899C1190.66 593.458 1189.66 593.238 1188.66 593.259C1187.66 593.281 1186.7 593.544 1185.87 594.022C1185.05 594.5 1184.39 595.176 1183.96 595.982C1183.81 596.252 1183.69 596.535 1183.6 596.828L1183.52 597.121L1194.56 600.447L1194.65 600.154C1194.74 599.86 1194.79 599.559 1194.83 599.254Z" fill="#3F3D56"/>
<path d="M1106.48 569.469L1086.02 563.307L1085.14 566.225L1109.16 573.457C1109.32 572.636 1109.13 571.772 1108.63 571.035C1108.14 570.297 1107.37 569.739 1106.48 569.469Z" fill="#809500"/>
<path d="M1061.66 555.973C1060.77 555.707 1059.82 555.749 1059 556.09C1058.18 556.431 1057.55 557.047 1057.22 557.819L1081.24 565.051L1082.12 562.133L1061.66 555.973Z" fill="#809500"/>
<path d="M1088.3 567.178C1088.42 565.963 1088.07 564.724 1087.3 563.677C1086.53 562.63 1085.4 561.842 1084.1 561.452C1082.81 561.061 1081.43 561.093 1080.21 561.542C1078.99 561.991 1078.01 562.828 1077.44 563.906C1077.29 564.176 1077.17 564.46 1077.09 564.754L1077 565.047L1088.04 568.371L1088.13 568.078C1088.21 567.784 1088.27 567.483 1088.3 567.178Z" fill="#3F3D56"/>
<path d="M1070.1 578.64C1112.24 586.242 1153.48 598.658 1192.81 615.59C1192.5 615.907 1192.17 616.208 1191.82 616.493C1172.5 608.197 1152.71 600.986 1132.56 594.904L1132.55 594.9C1131.4 594.553 1130.24 594.205 1129.09 593.871L1129.07 593.865C1109.78 588.171 1090.2 583.521 1070.43 579.942L1070.1 578.64Z" fill="#3F3D56"/>
<path d="M1082.37 678.696C1082.29 678.674 1082.22 678.645 1082.16 678.609L1063.25 668.464C1063.13 668.401 1063.03 668.318 1062.94 668.221C1062.86 668.123 1062.8 668.012 1062.76 667.894C1062.72 667.777 1062.7 667.654 1062.72 667.534C1062.73 667.415 1062.77 667.3 1062.83 667.196C1062.89 667.093 1062.98 667.002 1063.08 666.931C1063.18 666.859 1063.3 666.807 1063.42 666.779C1063.55 666.75 1063.68 666.744 1063.82 666.763C1063.95 666.781 1064.08 666.823 1064.19 666.886L1083.1 677.031C1083.32 677.149 1083.49 677.335 1083.58 677.552C1083.66 677.769 1083.66 678.003 1083.57 678.209C1083.48 678.414 1083.3 678.578 1083.08 678.668C1082.86 678.758 1082.61 678.768 1082.37 678.696L1082.37 678.696Z" fill="#809500"/>
<path d="M1080.5 666.05C1080.43 666.028 1080.36 665.999 1080.3 665.964L1061.39 655.818C1061.15 655.691 1060.97 655.487 1060.89 655.249C1060.82 655.011 1060.84 654.76 1060.97 654.551C1061.09 654.342 1061.31 654.191 1061.56 654.133C1061.82 654.075 1062.09 654.114 1062.33 654.241L1081.24 664.386C1081.46 664.504 1081.63 664.689 1081.71 664.906C1081.8 665.123 1081.8 665.357 1081.71 665.563C1081.61 665.769 1081.44 665.933 1081.22 666.022C1081 666.112 1080.74 666.122 1080.5 666.05Z" fill="#809500"/>
</g>
<g opacity="0.4">
<path d="M112.204 41.0807L124.401 81.8088C124.591 82.476 125.048 83.0409 125.685 83.3955C126.322 83.7502 127.093 83.8696 127.852 83.7309C127.951 83.7075 128.05 83.6841 128.148 83.6549C128.874 83.438 129.501 82.9846 129.906 82.3841C130.132 82.0471 130.282 81.675 130.346 81.2914C130.41 80.9078 130.387 80.5208 130.279 80.155L117.961 39.0242L112.204 41.0807Z" fill="#809500"/>
<path d="M54.9235 58.2522L67.1207 98.9804C67.3106 99.6475 67.7675 100.212 68.4042 100.567C69.0408 100.922 69.8124 101.041 70.5712 100.902C70.6704 100.879 70.7696 100.856 70.8671 100.826C71.5935 100.61 72.2207 100.156 72.625 99.5556C72.851 99.2186 73.0008 98.8466 73.0651 98.4629C73.1293 98.0793 73.1066 97.6924 72.9983 97.3265L60.6806 56.1958L54.9235 58.2522Z" fill="#809500"/>
<path d="M150.289 74.9266C150.006 74.0051 149.369 73.2246 148.49 72.7238C147.611 72.223 146.548 72.0344 145.489 72.1913L141.942 72.7088L135.835 73.6004L128.632 74.6534L122.524 75.5405L80.4108 81.6853C79.7877 81.7775 79.1844 81.9851 78.6386 82.2952L69.9815 87.2503L66.4839 89.2478L65.0581 90.0636L65.0531 90.0651L65.0494 90.0711L64.5395 90.3616L59.3824 93.3088L57.7504 94.2406L57.2492 94.5236L52.3121 97.3458L42.8552 102.757C42.2235 103.118 41.6884 103.609 41.2961 104.188L41.2988 104.197C40.9543 104.697 40.7253 105.251 40.6269 105.824C40.5285 106.396 40.5629 106.974 40.7278 107.52L54.4644 153.389C54.5605 153.715 54.7051 154.026 54.8943 154.312C55.3094 154.955 55.9185 155.469 56.654 155.798C57.3894 156.127 58.2225 156.258 59.0608 156.175L120.102 149.897L126.174 149.272C126.431 149.247 126.686 149.198 126.935 149.127C126.994 149.118 127.052 149.103 127.109 149.085C127.302 149.026 127.491 148.956 127.676 148.875L127.68 148.869C127.92 148.769 128.149 148.648 128.365 148.507L147.161 136.525L162.878 126.508C163.694 125.992 164.321 125.259 164.667 124.418C165.013 123.576 165.058 122.671 164.797 121.837L150.289 74.9266Z" fill="white"/>
<path d="M146.482 76.0924C146.447 75.9774 146.367 75.8801 146.257 75.8184C146.147 75.7566 146.014 75.7343 145.883 75.7557L145.437 75.8206L142.981 76.1782L142.739 76.2114L142.734 76.2129L142.723 76.2114L136.874 77.0698L129.67 78.1183L123.563 79.0099L80.8034 85.2452C80.7732 85.2542 80.7468 85.2572 80.7116 85.2678C80.6669 85.2801 80.6245 85.2995 80.5864 85.325L77.4348 87.1252L74.1109 89.0263L71.0394 90.7829L65.5974 93.8942L65.0976 94.1817L65.0926 94.1832L58.8097 97.7776L53.3714 100.883L49.7863 102.936L47.4533 104.27L47.4446 104.277L44.8016 105.782C44.693 105.844 44.6082 105.936 44.561 106.044C44.5138 106.152 44.5069 106.269 44.5415 106.377L58.2782 152.245C58.3118 152.356 58.3865 152.451 58.49 152.514C58.5935 152.576 58.7194 152.604 58.8471 152.591L61.567 152.312L120.181 146.284L125.674 145.719L125.679 145.718L125.965 145.686C126.062 145.678 126.157 145.647 126.239 145.594L126.731 145.28L140.621 136.425L140.626 136.424L145.965 133.024L160.755 123.59C160.857 123.526 160.936 123.436 160.979 123.331C161.023 123.227 161.03 123.115 160.998 123.011L146.482 76.0924Z" fill="#3F3D56"/>
<path d="M150.289 74.9266C150.006 74.0051 149.369 73.2246 148.49 72.7238C147.611 72.223 146.548 72.0344 145.489 72.1913L141.942 72.7088L135.835 73.6004L128.632 74.6534L122.524 75.5405L80.4108 81.6853C79.7877 81.7775 79.1844 81.9851 78.6386 82.2952L69.9815 87.2503L66.4839 89.2478L65.0581 90.0636L65.0531 90.0651L65.0494 90.0711L64.5395 90.3616L59.3824 93.3088L57.7504 94.2406L57.2492 94.5236L52.3121 97.3458L42.8552 102.757C42.2235 103.118 41.6884 103.609 41.2961 104.188L41.2988 104.197C40.9543 104.697 40.7253 105.251 40.6269 105.824C40.5285 106.396 40.5629 106.974 40.7278 107.52L54.4644 153.389C54.5605 153.715 54.7051 154.026 54.8943 154.312C55.3094 154.955 55.9185 155.469 56.654 155.798C57.3894 156.127 58.2225 156.258 59.0608 156.175L120.102 149.897L126.174 149.272C126.431 149.247 126.686 149.198 126.935 149.127C126.994 149.118 127.052 149.103 127.109 149.085C127.302 149.026 127.491 148.956 127.676 148.875L127.68 148.869C127.92 148.769 128.149 148.648 128.365 148.507L147.161 136.525L162.878 126.508C163.694 125.992 164.321 125.259 164.667 124.418C165.013 123.576 165.058 122.671 164.797 121.837L150.289 74.9266ZM162.273 125.677L146.736 135.58L141.5 138.92L127.756 147.681C127.678 147.729 127.598 147.773 127.523 147.815C127.185 147.992 126.824 148.122 126.45 148.201L126.445 148.202C126.34 148.219 126.229 148.232 126.119 148.246L120.116 148.865L58.9954 155.152C58.4161 155.21 57.8391 155.132 57.3192 154.925C56.7993 154.719 56.3538 154.391 56.0248 153.973C55.8132 153.698 55.6544 153.39 55.5548 153.062L41.8181 107.193C41.5995 106.467 41.6886 105.676 42.0682 104.974L42.0732 104.973L42.0718 104.968C42.3218 104.511 42.6865 104.11 43.1344 103.799C43.2213 103.733 43.313 103.673 43.4089 103.619L52.6161 98.3609L58.0531 95.2512L58.6215 94.9185L58.6366 94.914L64.8422 91.3722L67.6425 89.7707L69.9142 88.4702L70.2842 88.2609L79.19 83.1673C79.4389 83.0249 79.7045 82.9105 79.9807 82.827C80.1591 82.7744 80.3407 82.7331 80.5241 82.7034L122.822 76.5331L128.928 75.6415L136.131 74.5884L142.239 73.7013L145.602 73.2095C146.25 73.1127 146.903 73.1903 147.481 73.4328L147.491 73.4298C147.905 73.6039 148.27 73.8559 148.564 74.1704C148.858 74.4848 149.074 74.855 149.2 75.2579L163.71 122.173C163.906 122.798 163.872 123.477 163.613 124.108C163.355 124.74 162.885 125.29 162.273 125.677Z" fill="#3F3D56"/>
<path d="M148.439 74.0395C148.404 74.0772 148.363 74.1098 148.317 74.1362L131.317 84.0822L126.024 87.1776L110.971 95.9824C110.928 96.0065 110.882 96.0262 110.835 96.0411C110.802 96.0504 110.768 96.058 110.735 96.0639L42.0729 104.971L41.8445 105C41.6954 105.019 41.5479 104.983 41.434 104.901C41.3202 104.819 41.2494 104.697 41.2371 104.561C41.2248 104.426 41.2721 104.289 41.3685 104.179C41.4649 104.07 41.6027 103.997 41.7516 103.977L43.1331 103.797L110.516 95.0572L123.49 87.4687L130.747 83.2234L147.485 73.4307L147.752 73.2764C147.867 73.2099 148.001 73.1811 148.132 73.1952C148.263 73.2092 148.381 73.2651 148.466 73.3531C148.488 73.3738 148.507 73.3968 148.523 73.4215C148.583 73.515 148.608 73.6258 148.593 73.7372C148.577 73.8486 148.523 73.9547 148.439 74.0395Z" fill="#3F3D56"/>
<path d="M127.33 149.141C127.186 149.184 127.033 149.175 126.904 149.115C126.775 149.054 126.681 148.949 126.641 148.82L110.145 95.72C110.105 95.5908 110.124 95.4492 110.197 95.3264C110.271 95.2036 110.393 95.1097 110.537 95.0652L110.542 95.0637C110.685 95.0207 110.838 95.0303 110.967 95.0904C111.096 95.1505 111.191 95.2563 111.231 95.3848L127.726 148.485C127.766 148.614 127.748 148.756 127.674 148.879C127.601 149.001 127.479 149.095 127.335 149.14L127.33 149.141Z" fill="#3F3D56"/>
<path d="M146.926 136.205L141.634 139.301L123.49 87.4687L58.8276 94.9032C58.7646 94.9117 58.7013 94.9164 58.6381 94.9174C58.1305 94.9382 57.6405 94.801 57.2483 94.5282L65.0461 90.0676L67.6413 89.7688L128.997 82.7116C129.319 82.6741 129.642 82.7004 129.945 82.7887C130.247 82.8771 130.521 83.0253 130.747 83.2234C131.013 83.4524 146.821 135.868 146.926 136.205Z" fill="#809500"/>
<path d="M145.603 19.6039C144.532 19.6646 143.453 19.7373 142.385 19.8114L141.159 15.7149C140.726 14.2388 139.68 13.0042 138.236 12.2645C137.602 11.9326 136.902 11.7114 136.168 11.6111C136.002 11.5848 135.834 11.5678 135.665 11.5602C135.006 11.5165 134.336 11.5742 133.685 11.731C132.987 11.8933 132.317 12.1606 131.704 12.5215C131.336 12.7377 130.99 12.9846 130.671 13.259C130.215 13.6599 129.821 14.1142 129.498 14.6086C129.427 14.7184 129.361 14.8268 129.292 14.9456C128.529 16.2943 128.338 17.8277 128.759 19.2354L129.29 21.0084C96.5162 24.7269 64.4905 34.3275 35.0729 49.2527L34.596 47.6601C34.163 46.184 33.1172 44.9493 31.6735 44.2096C31.0418 43.8774 30.3428 43.6555 29.6102 43.5548C29.4426 43.5299 29.2732 43.5134 29.1026 43.5054C28.4432 43.4616 27.7739 43.5194 27.1222 43.6762C26.4246 43.8387 25.755 44.1059 25.1413 44.4667C24.7753 44.6824 24.431 44.9289 24.1132 45.2026C23.6552 45.603 23.2586 46.058 22.9354 46.5538C22.8643 46.6636 22.7981 46.7719 22.7347 46.8893C21.9695 48.2379 21.7771 49.7718 22.1964 51.1806L23.4772 55.4575C22.5449 55.9828 21.6089 56.5142 20.6806 57.053L20.457 57.184L20.5232 57.405C21.0726 59.2491 22.0692 60.9348 23.4417 62.3415L24.4346 63.2435C26.2306 64.7342 28.4474 65.7497 30.8686 66.1908C33.2897 66.6318 35.8322 66.4832 38.2477 65.7596L42.4735 64.4929L54.7617 105.525C54.9512 106.192 55.408 106.757 56.0447 107.112C56.6814 107.466 57.453 107.585 58.2117 107.446C58.6291 107.361 59.0276 107.198 59.381 106.966C59.7344 106.735 60.0349 106.441 60.2628 106.103C60.4894 105.766 60.6396 105.394 60.7037 105.01C60.7678 104.626 60.7444 104.239 60.6351 103.873L48.409 63.0479C49.7935 62.976 51.1616 63.1715 52.4239 63.6217C53.6863 64.0718 54.8144 64.7664 55.7348 65.6602C56.3137 66.2213 56.9395 66.7403 57.6071 67.213C59.6872 68.6758 62.1526 69.6375 64.7947 70.017C67.4369 70.3965 70.1782 70.1825 72.7871 69.3931L108.864 58.578C111.612 57.7575 114.135 56.3391 116.208 54.4492C118.256 52.5975 119.77 50.3165 120.6 47.8325C120.773 47.3115 120.913 46.7836 121.019 46.2515C121.271 44.9655 121.822 43.7284 122.636 42.626C123.451 41.5236 124.507 40.5824 125.733 39.8678L137.93 80.5934C138.119 81.2606 138.576 81.8256 139.213 82.18C139.849 82.5345 140.621 82.6534 141.38 82.514C141.479 82.494 141.578 82.4693 141.675 82.4402C142.402 82.2229 143.029 81.7699 143.436 81.17C143.661 80.8325 143.811 80.4602 143.875 80.0764C143.939 79.6925 143.916 79.3054 143.808 78.9393L131.49 37.8077L135.711 36.5424C138.126 35.8183 140.332 34.5438 142.112 32.8433C143.892 31.1428 145.185 29.0747 145.865 26.8413C146 26.4122 146.111 25.9784 146.199 25.5416C146.573 23.6114 146.481 21.6547 145.928 19.8113L145.862 19.5903L145.603 19.6039Z" fill="#809500"/>
<path d="M91.1848 69.9192C99.7974 67.3373 104.902 58.9754 102.586 51.2424C100.27 43.5093 91.4108 39.3334 82.7983 41.9153C74.1857 44.4971 69.0812 52.859 71.3971 60.5921C73.713 68.3252 82.5723 72.501 91.1848 69.9192Z" fill="#3F3D56"/>
<path d="M89.2279 63.385C93.8213 62.008 96.5437 57.5483 95.3085 53.424C94.0734 49.2997 89.3485 47.0725 84.7551 48.4495C80.1617 49.8265 77.4393 54.2862 78.6745 58.4105C79.9096 62.5348 84.6345 64.762 89.2279 63.385Z" fill="#809500"/>
<path d="M155.317 2.68959L134.846 8.82617L135.72 11.7451L159.748 4.54211C159.427 3.76999 158.796 3.15229 157.976 2.80972C157.157 2.46715 156.208 2.42432 155.317 2.68959Z" fill="#809500"/>
<path d="M110.482 16.1301C109.591 16.3998 108.822 16.9574 108.325 17.6944C107.829 18.4314 107.639 19.2949 107.793 20.117L131.821 12.914L130.947 9.99502L110.482 16.1301Z" fill="#809500"/>
<path d="M138.886 10.7961C138.313 9.72712 137.34 8.8948 136.133 8.44053C135.224 8.10037 134.219 7.99097 133.219 8.12335C132.218 8.25573 131.258 8.62522 130.435 9.19454C129.612 9.76387 128.956 10.5129 128.531 11.3661C128.107 12.2193 127.929 13.1465 128.018 14.0542C128.041 14.3614 128.097 14.664 128.184 14.9581L128.272 15.2513L139.321 11.939L139.233 11.6458C139.143 11.3533 139.027 11.0692 138.886 10.7961Z" fill="#3F3D56"/>
<path d="M48.7541 34.6348L28.2837 40.7714L29.1579 43.6904L53.1857 36.4873C52.8649 35.7152 52.2331 35.0975 51.4136 34.755C50.5941 34.4124 49.6458 34.3695 48.7541 34.6348Z" fill="#809500"/>
<path d="M3.9193 48.0753C3.02857 48.345 2.25992 48.9026 1.763 49.6396C1.26608 50.3766 1.07643 51.2401 1.23098 52.0622L25.2588 44.8592L24.3847 41.9402L3.9193 48.0753Z" fill="#809500"/>
<path d="M32.3234 42.7414C31.7541 41.6625 30.7745 40.8244 29.5568 40.374C28.339 39.9237 26.9607 39.89 25.6639 40.2787C24.367 40.6675 23.2344 41.454 22.4648 42.5001C21.6952 43.5462 21.3377 44.7851 21.4551 45.9995C21.4806 46.3062 21.5381 46.6084 21.6268 46.9018L21.7146 47.1951L32.7587 43.8843L32.6709 43.591C32.5802 43.2986 32.464 43.0145 32.3234 42.7414Z" fill="#3F3D56"/>
<path d="M23.444 62.3406C62.7992 45.4564 104.047 33.0911 146.198 25.5416C146.111 25.9788 146 26.4132 145.866 26.8429C125.18 30.5642 104.693 35.4551 84.5251 41.4867L84.512 41.4906C83.3619 41.8353 82.2054 42.1821 81.0588 42.5385L81.0393 42.5443C61.8026 48.4262 42.9012 55.3387 24.437 63.2446L23.444 62.3406Z" fill="#3F3D56"/>
<path d="M88.7736 139.083C88.7012 139.105 88.6269 139.119 88.552 139.126L67.1862 141.08C67.0538 141.093 66.9216 141.081 66.7971 141.046C66.6727 141.011 66.5585 140.954 66.461 140.877C66.3635 140.8 66.2847 140.706 66.229 140.599C66.1733 140.492 66.1419 140.375 66.1365 140.255C66.131 140.134 66.1518 140.013 66.1975 139.897C66.2432 139.78 66.3129 139.672 66.4027 139.579C66.4925 139.485 66.6007 139.407 66.721 139.35C66.8413 139.292 66.9714 139.256 67.1038 139.244L88.4696 137.29C88.7177 137.267 88.9608 137.329 89.1524 137.462C89.344 137.596 89.4707 137.792 89.5083 138.014C89.5459 138.236 89.4918 138.468 89.3563 138.665C89.2207 138.862 89.0133 139.011 88.7736 139.083L88.7736 139.083Z" fill="#809500"/>
<path d="M80.2559 129.557C80.1835 129.578 80.1092 129.593 80.0343 129.599L58.6684 131.554C58.4009 131.578 58.1401 131.505 57.9432 131.35C57.7464 131.196 57.6296 130.972 57.6187 130.728C57.6078 130.485 57.7035 130.242 57.885 130.052C58.0664 129.863 58.3185 129.742 58.586 129.718L79.9519 127.763C80.1999 127.741 80.443 127.802 80.6346 127.936C80.8262 128.069 80.9529 128.266 80.9905 128.488C81.0282 128.71 80.974 128.941 80.8385 129.138C80.703 129.336 80.4956 129.484 80.2559 129.557Z" fill="#809500"/>
</g>
<g opacity="0.5" clip-path="url(#clip0_514_15)">
<path d="M583.909 579.444H559.375V390.62H579.328C580.294 390.62 581.221 391.003 581.906 391.685C582.591 392.366 582.979 393.292 582.984 394.258L583.909 579.444Z" fill="#CCCCCC"/>
<path d="M561.668 580.444H298.203V445.969H561.668V580.444Z" fill="white"/>
<path d="M457.823 579.944H298.703V446.469H561.168V476.599C561.137 503.998 550.239 530.266 530.865 549.64C511.491 569.015 485.223 579.913 457.823 579.944Z" fill="#F2F2F2"/>
<path d="M579.913 395.984C579.781 396.235 579.678 396.5 579.607 396.774L570.522 431.792L560.668 450.455H299.203V445.806L314.089 431.792L331.455 398.576C332.221 397.11 333.228 395.782 334.433 394.648C337.182 392.061 340.816 390.62 344.591 390.62H576.681C577.311 390.62 577.93 390.783 578.479 391.093C579.027 391.403 579.487 391.85 579.812 392.389C580.137 392.929 580.317 393.543 580.335 394.173C580.353 394.803 580.208 395.427 579.913 395.984Z" fill="#F2F2F2"/>
<path d="M561.668 580.444H298.203V445.969H561.668V580.444ZM300.203 578.444H559.668V447.969H300.203V578.444Z" fill="#E6E6E6"/>
<path d="M575.376 413.898L570.522 431.792H314.09L322.376 416.898L575.376 413.898Z" fill="#CCCCCC"/>
<path d="M349.918 516.435H307.919V518.76H349.918V516.435Z" fill="white"/>
<path d="M349.918 524.57H307.919V526.894H349.918V524.57Z" fill="white"/>
<path d="M349.918 532.704H307.919V535.029H349.918V532.704Z" fill="white"/>
<path d="M324.188 490.546C332.531 490.546 339.295 483.782 339.295 475.439C339.295 467.096 332.531 460.332 324.188 460.332C315.844 460.332 309.081 467.096 309.081 475.439C309.081 483.782 315.844 490.546 324.188 490.546Z" fill="white"/>
<path d="M489.762 421.644H476.931V322.898H487.366C487.871 322.898 488.356 323.098 488.714 323.454C489.073 323.811 489.275 324.294 489.278 324.8L489.762 421.644Z" fill="#CCCCCC"/>
<path d="M478.131 422.166H340.351V351.842H478.131V422.166Z" fill="white"/>
<path d="M423.825 421.905H340.612V352.104H477.869V367.86C477.853 382.189 472.154 395.926 462.022 406.058C451.89 416.189 438.153 421.889 423.825 421.905Z" fill="#F2F2F2"/>
<path d="M487.672 325.703C487.603 325.834 487.549 325.972 487.512 326.116L482.761 344.428L477.607 354.188H340.874V351.757L348.658 344.428L357.74 327.058C358.141 326.291 358.667 325.597 359.297 325.004C360.735 323.651 362.635 322.898 364.609 322.898H485.982C486.311 322.898 486.635 322.983 486.922 323.145C487.209 323.307 487.449 323.54 487.619 323.823C487.789 324.105 487.883 324.426 487.893 324.756C487.902 325.085 487.826 325.411 487.672 325.703Z" fill="#F2F2F2"/>
<path d="M478.131 422.166H340.351V351.842H478.131V422.166ZM341.397 421.12H477.085V352.888H341.397V421.12Z" fill="#E6E6E6"/>
<path d="M485.299 335.071L482.761 344.428H348.659L352.992 336.639L485.299 335.071Z" fill="#CCCCCC"/>
<path d="M367.395 388.693H345.431V389.909H367.395V388.693Z" fill="white"/>
<path d="M367.395 392.947H345.431V394.162H367.395V392.947Z" fill="white"/>
<path d="M367.395 397.201H345.431V398.416H367.395V397.201Z" fill="white"/>
<path d="M353.939 375.154C358.303 375.154 361.84 371.617 361.84 367.254C361.84 362.891 358.303 359.354 353.939 359.354C349.576 359.354 346.039 362.891 346.039 367.254C346.039 371.617 349.576 375.154 353.939 375.154Z" fill="white"/>
<path d="M867.883 580.375L867.804 579.949C866.505 572.791 866.782 565.436 868.613 558.395C870.444 551.354 873.787 544.797 878.408 539.179C881.026 536.048 884.027 533.259 887.341 530.878L887.657 530.65L887.795 531.014C889.444 535.36 891.524 539.713 892.472 541.64L893.112 527.257L893.477 527.064C895.15 526.167 897.053 525.792 898.941 525.987C900.829 526.182 902.615 526.938 904.07 528.157C905.574 529.366 906.682 530.998 907.251 532.842C907.82 534.687 907.824 536.659 907.261 538.506C906.764 540.196 906.295 541.949 905.84 543.644C904.28 549.469 902.666 555.492 899.538 560.564C897.133 564.38 893.906 567.61 890.093 570.02C886.28 572.429 881.977 573.956 877.498 574.489L867.883 580.375Z" fill="#F2F2F2"/>
<path d="M907.676 580.199C907.676 580.356 907.646 580.511 907.586 580.655C907.526 580.8 907.439 580.931 907.328 581.042C907.218 581.152 907.086 581.24 906.942 581.3C906.797 581.359 906.642 581.39 906.486 581.389H270.196C269.88 581.389 269.577 581.264 269.354 581.041C269.131 580.817 269.006 580.515 269.006 580.199C269.006 579.884 269.131 579.581 269.354 579.358C269.577 579.135 269.88 579.009 270.196 579.009H906.486C906.642 579.009 906.797 579.039 906.942 579.099C907.086 579.158 907.218 579.246 907.328 579.357C907.439 579.467 907.526 579.599 907.586 579.743C907.646 579.888 907.676 580.043 907.676 580.199Z" fill="#CCCCCC"/>
<path d="M763.35 275.724L745.138 273.115C738.978 283.415 736.789 310.83 736.789 310.83L718.965 353.195C717.784 353.997 716.836 355.095 716.215 356.38C715.594 357.665 715.323 359.091 715.428 360.514C715.533 361.937 716.012 363.307 716.815 364.486C717.618 365.666 718.718 366.613 720.003 367.232C721.289 367.852 722.715 368.121 724.138 368.014C725.561 367.908 726.93 367.428 728.109 366.623C729.287 365.818 730.233 364.718 730.851 363.431C731.469 362.145 731.737 360.719 731.628 359.296L760.893 309.985L763.35 275.724Z" fill="#FFB8B8"/>
<path d="M760.451 225.161C763.27 225.598 765.959 226.65 768.325 228.244C770.691 229.838 772.676 231.933 774.14 234.381C775.605 236.829 776.511 239.57 776.796 242.408C777.08 245.247 776.736 248.113 775.787 250.803L771.922 261.758C771.922 261.758 769.818 294.743 761.794 304.054L737.174 301.825C737.174 301.825 741.675 285.183 738.219 277.132C736.103 272.201 736.22 255.17 738.306 241.315C738.697 238.799 739.58 236.385 740.905 234.211C742.23 232.037 743.971 230.145 746.028 228.645C748.085 227.145 750.418 226.064 752.893 225.467C755.368 224.869 757.936 224.765 760.451 225.161Z" fill="#E6E6E6"/>
<path d="M820.642 567.418L809.671 567.417L804.452 525.1L820.644 525.101L820.642 567.418Z" fill="#FFB6B6"/>
<path d="M821.028 578.863L787.291 578.862V578.435C787.291 574.952 788.675 571.612 791.137 569.15C793.6 566.687 796.94 565.304 800.422 565.304H800.423L806.585 560.629L818.083 565.304L821.028 565.305L821.028 578.863Z" fill="#2F2E41"/>
<path d="M772.945 514.973L762.811 519.174L741.779 482.085L756.737 475.883L772.945 514.973Z" fill="#FFB6B6"/>
<path d="M777.686 525.396L746.522 538.319L746.359 537.925C745.025 534.708 745.023 531.093 746.355 527.875C747.686 524.657 750.241 522.099 753.458 520.765L753.459 520.765L757.36 514.086L769.772 514L772.493 512.872L777.686 525.396Z" fill="#2F2E41"/>
<path d="M833.185 326.695L755.327 334.829L744.912 369.907L708.844 427.87L748.668 501.037L762.693 488.449L749.231 429.365L789.412 385.987L797.031 382.825L803.079 543.793L825.449 544.16L835.238 366.542C839.942 350.852 838.526 337.896 833.185 326.695Z" fill="#2F2E41"/>
<path d="M804.64 215.648L791.861 201.258L771.667 203.502L758.739 221.595C751.858 223.177 745.844 227.336 741.936 233.217C738.027 239.097 736.522 246.253 737.728 253.21C742.745 282.098 759.795 310.117 754.165 324.371C745.619 346.008 745.098 354.832 765.554 351.799C786.01 348.765 854.543 341.772 841.256 328.485C827.969 315.198 825.051 292.995 825.051 292.995L824.518 242.198C825.083 239.135 825.008 235.987 824.297 232.954C823.586 229.921 822.256 227.067 820.388 224.573C818.521 222.08 816.158 219.999 813.448 218.463C810.738 216.927 807.739 215.968 804.64 215.648L804.64 215.648Z" fill="#E6E6E6"/>
<path d="M779.667 197.576C792.046 197.576 802.082 187.54 802.082 175.16C802.082 162.781 792.046 152.745 779.667 152.745C767.287 152.745 757.251 162.781 757.251 175.16C757.251 187.54 767.287 197.576 779.667 197.576Z" fill="#FFB8B8"/>
<path d="M807.286 173.829C806.285 178.371 804.479 182.697 801.954 186.602C801.284 187.934 800.283 189.071 799.047 189.904C798.421 190.306 797.674 190.475 796.936 190.383C796.198 190.291 795.515 189.943 795.008 189.399L794.462 188.955C795.532 188.296 796.487 187.467 797.29 186.501C797.687 186.017 797.963 185.444 798.095 184.831C798.227 184.218 798.21 183.583 798.047 182.977C797.853 182.38 797.436 181.882 796.882 181.586C796.329 181.291 795.682 181.221 795.078 181.392C793.766 181.907 792.968 183.805 791.595 183.513C790.484 183.27 790.252 181.806 790.252 180.655C790.292 174.637 787.384 166.085 785.132 166.347C782.858 166.472 780.58 166.167 778.418 165.449C776.253 164.729 773.969 164.438 771.693 164.59C771.531 164.61 771.37 164.641 771.198 164.671C770.833 163.528 770.332 162.433 769.704 161.41C769.775 162.644 769.714 163.883 769.522 165.105C767.711 165.852 765.839 166.443 763.928 166.872C761.848 167.165 757.274 173.385 757.062 172.749C756.697 171.605 756.195 170.51 755.568 169.487C755.638 170.722 755.577 171.961 755.386 173.183C755.376 173.234 755.376 173.274 755.366 173.324C754.356 171.981 753.74 170.346 754.083 171.598C750.701 163.944 752.013 158.461 757.335 152.009C758.372 150.622 759.744 149.52 761.323 148.808C762.114 148.461 762.981 148.323 763.84 148.408C764.7 148.493 765.523 148.798 766.23 149.293C768.401 147.303 771.064 145.93 773.943 145.316C776.823 144.701 779.815 144.868 782.608 145.799C788.151 147.728 792.423 148.859 793.271 154.675C797.855 153.938 802.57 156.543 805.095 160.43C807.609 164.328 808.124 169.275 807.286 173.829Z" fill="#2F2E41"/>
<path d="M789.109 360.01H781.669V302.751H787.72C788.013 302.751 788.294 302.867 788.502 303.074C788.709 303.28 788.827 303.561 788.828 303.854L789.109 360.01Z" fill="#3F3D56"/>
<path d="M782.364 360.313H702.471V319.535H782.364V360.313Z" fill="white"/>
<path d="M750.874 360.162H702.622V319.686H782.213V328.823C782.203 337.132 778.899 345.097 773.024 350.972C767.149 356.847 759.183 360.152 750.874 360.162Z" fill="#809500"/>
<path d="M787.897 304.377C787.857 304.453 787.826 304.534 787.804 304.617L785.049 315.236L782.061 320.895H702.774V319.486L707.288 315.236L712.554 305.163C712.787 304.719 713.092 304.316 713.457 303.972C714.291 303.188 715.393 302.751 716.538 302.751H786.917C787.108 302.751 787.296 302.8 787.462 302.894C787.629 302.988 787.768 303.124 787.866 303.287C787.965 303.451 788.02 303.637 788.025 303.828C788.03 304.019 787.986 304.208 787.897 304.377Z" fill="#3F3D56"/>
<path d="M782.364 360.313H702.471V319.535H782.364V360.313ZM703.077 359.707H781.758V320.141H703.077V359.707Z" fill="#3F3D56"/>
<path d="M786.521 309.809L785.05 315.236H707.289L709.801 310.719L786.521 309.809Z" fill="#809500"/>
<path d="M718.153 340.903H705.417V341.608H718.153V340.903Z" fill="white"/>
<path d="M718.153 343.37H705.417V344.075H718.153V343.37Z" fill="white"/>
<path d="M718.153 345.837H705.417V346.541H718.153V345.837Z" fill="white"/>
<path d="M710.35 333.052C712.88 333.052 714.931 331.001 714.931 328.471C714.931 325.941 712.88 323.89 710.35 323.89C707.82 323.89 705.769 325.941 705.769 328.471C705.769 331.001 707.82 333.052 710.35 333.052Z" fill="white"/>
<path d="M820.19 270.489L801.977 267.88C795.818 278.18 793.629 305.595 793.629 305.595L775.805 347.96C774.624 348.761 773.676 349.86 773.055 351.145C772.434 352.43 772.163 353.855 772.268 355.278C772.373 356.701 772.851 358.072 773.655 359.251C774.458 360.431 775.558 361.378 776.843 361.997C778.129 362.616 779.555 362.886 780.978 362.779C782.401 362.672 783.77 362.192 784.949 361.388C786.127 360.583 787.073 359.482 787.691 358.196C788.309 356.91 788.577 355.483 788.468 354.061L817.733 304.75L820.19 270.489Z" fill="#FFB8B8"/>
<path d="M810.319 219.926C813.138 220.363 815.826 221.415 818.192 223.009C820.558 224.602 822.544 226.698 824.008 229.146C825.472 231.594 826.379 234.335 826.663 237.173C826.948 240.012 826.603 242.878 825.654 245.568L821.789 256.523C821.789 256.523 826.658 289.507 818.634 298.818L794.014 296.59C794.014 296.59 798.515 279.948 795.059 271.897C792.943 266.966 793.06 249.935 795.146 236.08C796.738 225.501 799.747 218.289 810.319 219.926Z" fill="#E6E6E6"/>
<path d="M655.667 165.35C646.769 169.788 639.998 177.579 636.844 187.009C633.69 196.439 634.411 206.736 638.849 215.634C648.09 234.164 681.485 265.767 708.129 270.542C696.668 235.742 712.604 200.369 705.951 182.168C698.843 162.72 674.197 156.109 655.667 165.35Z" fill="#809500"/>
<path d="M668.157 209.42C674.91 209.42 680.385 203.946 680.385 197.193C680.385 190.44 674.91 184.965 668.157 184.965C661.404 184.965 655.93 190.44 655.93 197.193C655.93 203.946 661.404 209.42 668.157 209.42Z" fill="white"/>
<path d="M707.894 290.168C712.317 290.168 715.903 286.582 715.903 282.159C715.903 277.736 712.317 274.15 707.894 274.15C703.471 274.15 699.885 277.736 699.885 282.159C699.885 286.582 703.471 290.168 707.894 290.168Z" fill="#809500"/>
<path opacity="0.2" d="M671.884 184.339C673.49 184.283 675.09 184.545 676.595 185.108C678.1 185.671 679.479 186.525 680.653 187.622C681.827 188.718 682.774 190.035 683.439 191.498C684.104 192.96 684.474 194.539 684.529 196.145C684.583 197.751 684.321 199.351 683.756 200.855C683.192 202.359 682.336 203.738 681.239 204.911C680.141 206.084 678.824 207.03 677.36 207.694C675.897 208.358 674.318 208.727 672.712 208.78C675.433 207.768 677.706 205.82 679.122 203.286C680.539 200.751 681.007 197.796 680.444 194.947C679.88 192.099 678.321 189.545 676.046 187.741C673.771 185.937 670.928 185.002 668.027 185.102C669.263 184.642 670.565 184.384 671.884 184.339Z" fill="#231F20"/>
<path opacity="0.2" d="M706.013 182.175C712.665 200.376 696.729 235.749 708.191 270.549C705.676 270.086 703.199 269.437 700.779 268.609C691.441 234.968 706.097 201.353 699.67 183.768C693.917 168.029 676.679 160.698 660.491 163.373C678.257 157.313 699.499 164.353 706.013 182.175Z" fill="#231F20"/>
<path d="M330.666 351.041C321.455 350.819 312.533 354.266 305.863 360.623C299.194 366.98 295.322 375.726 295.101 384.937C294.641 404.119 308.298 444.473 328.051 459.93C333.744 426.461 362.124 404.395 364.563 386.605C367.168 367.596 349.847 351.501 330.666 351.041Z" fill="#D1D3D4"/>
<path d="M327.098 393.864C333.355 393.864 338.428 388.791 338.428 382.533C338.428 376.276 333.355 371.203 327.098 371.203C320.84 371.203 315.767 376.276 315.767 382.533C315.767 388.791 320.84 393.864 327.098 393.864Z" fill="white"/>
<path d="M322.825 476.764C326.923 476.764 330.246 473.442 330.246 469.343C330.246 465.245 326.923 461.922 322.825 461.922C318.726 461.922 315.404 465.245 315.404 469.343C315.404 473.442 318.726 476.764 322.825 476.764Z" fill="#D1D3D4"/>
<path d="M330.666 351.041C321.455 350.819 312.533 354.266 305.863 360.623C299.194 366.98 295.322 375.726 295.101 384.937C294.641 404.119 308.298 444.473 328.051 459.93C333.744 426.461 362.124 404.395 364.563 386.605C367.168 367.596 349.847 351.501 330.666 351.041Z" fill="#D1D3D4"/>
<path d="M327.098 393.864C333.355 393.864 338.428 388.791 338.428 382.533C338.428 376.276 333.355 371.203 327.098 371.203C320.84 371.203 315.767 376.276 315.767 382.533C315.767 388.791 320.84 393.864 327.098 393.864Z" fill="white"/>
<path d="M322.825 476.764C326.923 476.764 330.246 473.442 330.246 469.343C330.246 465.245 326.923 461.922 322.825 461.922C318.726 461.922 315.404 465.245 315.404 469.343C315.404 473.442 318.726 476.764 322.825 476.764Z" fill="#D1D3D4"/>
<path opacity="0.2" d="M335.72 373.621C338.422 374.935 340.491 377.269 341.472 380.109C342.453 382.95 342.266 386.063 340.952 388.765C340.301 390.103 339.393 391.3 338.279 392.287C337.166 393.274 335.869 394.032 334.463 394.518C331.623 395.499 328.509 395.312 325.807 393.997C328.474 394.348 331.179 393.737 333.438 392.275C335.696 390.813 337.361 388.595 338.133 386.018C338.906 383.442 338.736 380.674 337.654 378.211C336.573 375.747 334.65 373.749 332.23 372.574C333.442 372.733 334.62 373.086 335.72 373.621Z" fill="#231F20"/>
<path opacity="0.2" d="M364.61 386.638C362.172 404.428 333.792 426.494 328.099 459.963C326.24 458.494 324.492 456.889 322.869 455.162C329.799 423.562 356.369 402.381 358.725 385.193C360.834 369.81 349.891 356.336 335.474 351.511C352.651 354.248 366.998 369.218 364.61 386.638Z" fill="#231F20"/>
<path d="M462.467 203.415C459.879 203.584 457.458 204.757 455.721 206.684C453.984 208.611 453.067 211.139 453.165 213.732C453.194 214.258 453.266 214.782 453.38 215.297L423.983 233.817L440.235 241.005L465.66 222.316C467.758 221.675 469.584 220.357 470.855 218.569C472.125 216.781 472.768 214.623 472.682 212.431C472.622 211.184 472.316 209.962 471.783 208.833C471.25 207.704 470.5 206.692 469.576 205.853C468.651 205.014 467.571 204.366 466.396 203.945C465.221 203.524 463.975 203.338 462.728 203.399C462.641 203.403 462.554 203.408 462.467 203.415Z" fill="#FFB6B6"/>
<path d="M434.119 225.399L441.405 240.432L412.597 258.97C410.547 260.3 408.191 261.084 405.753 261.248C403.315 261.411 400.876 260.948 398.667 259.903C395.981 258.618 393.786 256.494 392.413 253.853C391.039 251.211 390.561 248.195 391.051 245.258L400.399 191.893C401.026 188.158 403.061 184.806 406.085 182.526C409.108 180.246 412.89 179.211 416.653 179.634C418.486 179.835 420.262 180.394 421.878 181.281C423.495 182.167 424.921 183.364 426.075 184.801C427.23 186.239 428.09 187.89 428.606 189.66C429.122 191.43 429.285 193.285 429.084 195.118C429.068 195.263 429.05 195.407 429.03 195.551C428.959 196.064 428.861 196.573 428.736 197.075L418.531 235.027L434.119 225.399Z" fill="#809500"/>
<path d="M436.166 248.704H394.968V289.902H436.166V248.704Z" fill="#FFB8B8"/>
<path d="M533.868 370.035L549.602 364.742L558.364 407.57L547.702 411.156L533.868 370.035Z" fill="#FFB6B6"/>
<path d="M507.201 366.744L522.808 361.086L532.564 403.698L521.989 407.531L507.201 366.744Z" fill="#FFB6B6"/>
<path d="M396.446 300.665C388.188 355.714 498.15 323.168 498.15 323.168L532.628 370.73L552.812 367.06C552.812 367.06 543.73 338.507 527.51 300.231C520.307 283.232 438.514 287.386 438.514 287.386L436.815 274.058L390.023 273.14L396.446 300.665Z" fill="#2F2E41"/>
<path d="M475.876 326.858L501.304 311.022C519.918 348.193 525.406 364.291 525.406 364.291L507.807 369.24L475.876 326.858Z" fill="#2F2E41"/>
<path d="M419.981 181.756L411.689 171.097L399.86 170.584L398.679 180.609L392.818 183.312C386.966 205.546 386.062 228.793 390.17 251.414C390.956 252.154 391.53 253.09 391.833 254.125C392.136 255.16 392.158 256.258 391.895 257.304L391.515 258.819L391.55 258.875C392.798 260.843 393.221 263.222 392.729 265.499L389.93 270.473C388.925 272.262 388.322 274.248 388.163 276.293C388.004 278.338 388.292 280.393 389.007 282.316C389.723 284.238 390.849 285.982 392.306 287.426C393.764 288.869 395.518 289.978 397.448 290.674C414.653 296.911 430.782 299.234 442.714 281.733L446.466 220.748L419.981 181.756Z" fill="#809500"/>
<path d="M411.294 173.928C423.373 173.928 433.165 164.136 433.165 152.057C433.165 139.978 423.373 130.186 411.294 130.186C399.215 130.186 389.423 139.978 389.423 152.057C389.423 164.136 399.215 173.928 411.294 173.928Z" fill="#FFB8B8"/>
<path d="M400.315 125.692C391.054 125.87 383.71 134.46 383.91 144.878C377.057 152.028 375.397 187.199 381.123 196.556C391.598 197.772 397.969 171.857 407.155 175.603L408.365 169.948L411.108 177.313C413.443 178.389 415.76 179.57 418.059 180.857C419.711 173.278 419.301 165.911 414.86 159.494C410.915 153.794 420.516 147.026 427.383 147.982L427.282 142.747L429.007 147.951C431.683 149.918 434.644 149.206 437.68 147.785C442.604 122.196 404.486 115.199 400.315 125.692Z" fill="#2F2E41"/>
<path d="M542.856 418.4L549.866 417.484L550.252 410.703L554.322 416.902L572.914 414.474C573.805 414.357 574.636 413.959 575.285 413.337C575.934 412.715 576.367 411.902 576.521 411.017C576.675 410.131 576.542 409.22 576.141 408.415C575.74 407.611 575.093 406.955 574.294 406.545L558.107 398.23L557.233 391.539L541.738 394.511L542.856 418.4Z" fill="#2F2E41"/>
<path d="M524.341 418.461L530.7 415.373L528.92 408.818L534.743 413.41L551.609 405.22C552.418 404.828 553.08 404.187 553.498 403.391C553.917 402.596 554.07 401.688 553.936 400.799C553.802 399.91 553.387 399.088 552.753 398.452C552.118 397.815 551.296 397.399 550.408 397.262L532.421 394.5L529.474 388.43L515.717 396.155L524.341 418.461Z" fill="#2F2E41"/>
<path d="M428.338 272.616H436.136V212.599H429.794C429.487 212.599 429.193 212.72 428.975 212.937C428.757 213.154 428.634 213.448 428.632 213.755L428.338 272.616Z" fill="#CCCCCC"/>
<path d="M435.408 230.191H519.15V272.934H435.408V230.191Z" fill="white"/>
<path d="M435.567 239.927V230.35H518.991V272.775H468.415C459.706 272.765 451.356 269.301 445.198 263.143C439.04 256.985 435.576 248.636 435.567 239.927Z" fill="#F2F2F2"/>
<path d="M429.608 214.303C429.65 214.383 429.683 214.467 429.706 214.554L432.593 225.685L435.726 231.617H518.832V230.14L514.1 225.685L508.581 215.127C508.337 214.661 508.017 214.239 507.634 213.879C506.76 213.057 505.606 212.599 504.406 212.599H430.636C430.436 212.599 430.239 212.65 430.064 212.749C429.89 212.847 429.744 212.989 429.641 213.161C429.537 213.332 429.48 213.528 429.474 213.728C429.469 213.928 429.515 214.126 429.608 214.303Z" fill="#F2F2F2"/>
<path d="M435.408 230.191H519.15V272.934H435.408V230.191ZM518.514 272.298H436.043V230.827H518.514L518.514 272.298Z" fill="#E6E6E6"/>
<path d="M431.051 219.997L432.594 225.685H514.101L511.467 220.951L431.051 219.997Z" fill="#CCCCCC"/>
<path d="M516.062 252.589H502.712V253.328H516.062V252.589Z" fill="white"/>
<path d="M516.062 255.174H502.712V255.913H516.062V255.174Z" fill="white"/>
<path d="M516.062 257.76H502.712V258.499H516.062V257.76Z" fill="white"/>
<path d="M510.891 244.36C513.543 244.36 515.692 242.21 515.692 239.558C515.692 236.906 513.543 234.757 510.891 234.757C508.239 234.757 506.089 236.906 506.089 239.558C506.089 242.21 508.239 244.36 510.891 244.36Z" fill="white"/>
<path d="M472.156 167.005C477.8 166.87 483.266 168.982 487.353 172.877C491.44 176.772 493.812 182.131 493.948 187.775C494.23 199.529 485.862 224.256 473.758 233.727C470.269 213.219 452.88 199.698 451.385 188.797C449.789 177.15 460.402 167.288 472.156 167.005Z" fill="#D1D3D4"/>
<path d="M474.342 193.245C478.176 193.245 481.285 190.137 481.285 186.302C481.285 182.468 478.176 179.36 474.342 179.36C470.508 179.36 467.4 182.468 467.4 186.302C467.4 190.137 470.508 193.245 474.342 193.245Z" fill="white"/>
<path d="M476.96 244.042C479.472 244.042 481.507 242.006 481.507 239.494C481.507 236.983 479.472 234.947 476.96 234.947C474.449 234.947 472.413 236.983 472.413 239.494C472.413 242.006 474.449 244.042 476.96 244.042Z" fill="#D1D3D4"/>
<path opacity="0.2" d="M469.059 180.841C468.239 181.24 467.506 181.796 466.901 182.478C466.296 183.161 465.832 183.955 465.534 184.817C465.236 185.679 465.111 186.591 465.166 187.501C465.221 188.411 465.454 189.301 465.853 190.121C466.252 190.941 466.808 191.674 467.49 192.279C468.173 192.884 468.967 193.348 469.829 193.646C470.691 193.943 471.603 194.068 472.513 194.014C473.423 193.959 474.313 193.726 475.133 193.327C473.498 193.541 471.841 193.167 470.457 192.272C469.073 191.376 468.053 190.017 467.58 188.438C467.107 186.859 467.211 185.163 467.874 183.653C468.536 182.144 469.715 180.92 471.198 180.2C470.455 180.297 469.733 180.513 469.059 180.841Z" fill="#231F20"/>
<path opacity="0.2" d="M451.356 188.817C452.851 199.718 470.24 213.239 473.729 233.747C474.868 232.846 475.939 231.863 476.933 230.805C472.687 211.443 456.406 198.464 454.963 187.932C453.671 178.506 460.376 170.25 469.21 167.294C458.685 168.97 449.893 178.143 451.356 188.817Z" fill="#231F20"/>
<path d="M459.788 224.736C457.201 224.544 454.641 225.37 452.653 227.037C450.665 228.704 449.406 231.081 449.144 233.662C449.099 234.187 449.098 234.715 449.14 235.241L417.456 249.501L432.553 258.876L460.326 243.897C462.493 243.553 464.485 242.502 465.991 240.908C467.497 239.313 468.433 237.265 468.653 235.083C468.881 232.572 468.103 230.074 466.49 228.137C464.876 226.201 462.559 224.984 460.049 224.756C459.962 224.748 459.875 224.741 459.788 224.736Z" fill="#FFB6B6"/>
<path d="M428.662 242.572L433.791 258.471L402.689 272.83C400.474 273.863 398.032 274.312 395.595 274.136C393.158 273.959 390.806 273.162 388.764 271.82C386.283 270.175 384.404 267.767 383.41 264.96C382.417 262.154 382.362 259.1 383.255 256.26L399.92 204.709C401.06 201.098 403.54 198.061 406.851 196.222C410.162 194.384 414.051 193.884 417.719 194.826C419.506 195.278 421.187 196.079 422.665 197.181C424.143 198.284 425.389 199.667 426.333 201.251C427.276 202.835 427.899 204.589 428.164 206.414C428.43 208.238 428.333 210.098 427.88 211.885C427.844 212.026 427.806 212.167 427.766 212.307C427.625 212.805 427.457 213.295 427.263 213.775L411.889 249.943L428.662 242.572Z" fill="#809500"/>
</g>
<path d="M1107.43 14.6542C1097.82 17.2193 1089.63 23.4978 1084.65 32.1085C1079.67 40.7192 1078.31 50.9567 1080.87 60.569C1086.21 80.5854 1112.59 118.26 1137.74 128.285C1133.49 91.8755 1156.19 60.4 1153.32 41.2254C1150.26 20.7367 1127.44 9.31262 1107.43 14.6542Z" fill="#809500" fill-opacity="0.2"/>
<path d="M1116.47 59.899C1123.22 59.899 1128.7 54.4218 1128.7 47.6653C1128.7 40.9088 1123.22 35.4316 1116.47 35.4316C1109.72 35.4316 1104.24 40.9088 1104.24 47.6653C1104.24 54.4218 1109.72 59.899 1116.47 59.899Z" fill="white"/>
<path d="M1144.21 145.69C1148.63 145.69 1152.21 142.102 1152.21 137.677C1152.21 133.252 1148.63 129.664 1144.21 129.664C1139.78 129.664 1136.2 133.252 1136.2 137.677C1136.2 142.102 1139.78 145.69 1144.21 145.69Z" fill="#809500" fill-opacity="0.2"/>
<path d="M90.4323 564.931C80.8249 567.496 72.6294 573.774 67.6489 582.385C62.6683 590.996 61.3106 601.233 63.8744 610.846C69.2133 630.862 95.5945 668.537 120.741 678.562C116.489 642.152 139.193 610.677 136.324 591.502C133.259 571.013 110.439 559.589 90.4323 564.931Z" fill="#809500" fill-opacity="0.2"/>
<path d="M99.4694 610.176C106.223 610.176 111.697 604.698 111.697 597.942C111.697 591.185 106.223 585.708 99.4694 585.708C92.7163 585.708 87.2419 591.185 87.2419 597.942C87.2419 604.698 92.7163 610.176 99.4694 610.176Z" fill="white"/>
<path d="M127.206 695.966C131.629 695.966 135.215 692.379 135.215 687.953C135.215 683.528 131.629 679.941 127.206 679.941C122.783 679.941 119.197 683.528 119.197 687.953C119.197 692.379 122.783 695.966 127.206 695.966Z" fill="#809500" fill-opacity="0.2"/>
<defs>
<clipPath id="clip0_514_15">
<rect width="638.67" height="460.389" fill="white" transform="translate(269.006 121)"/>
</clipPath>
</defs>
</svg>
