<svg width="1440" height="885" viewBox="0 0 1440 885" fill="none" xmlns="http://www.w3.org/2000/svg">
<rect width="1440" height="885" fill="#F9F9F9"/>
<g opacity="0.4">
<path d="M1267.88 700.821L1255.64 741.534C1255.43 742.196 1255.5 742.919 1255.83 743.566C1256.17 744.213 1256.75 744.738 1257.46 745.04C1257.55 745.076 1257.65 745.111 1257.75 745.14C1258.47 745.359 1259.25 745.327 1259.91 745.048C1260.29 744.892 1260.62 744.664 1260.88 744.379C1261.15 744.094 1261.34 743.759 1261.45 743.394L1273.82 702.278L1267.88 700.821Z" fill="#809500"/>
<path d="M1210.62 683.579L1198.38 724.293C1198.17 724.954 1198.24 725.677 1198.58 726.324C1198.91 726.971 1199.49 727.496 1200.2 727.799C1200.29 727.834 1200.39 727.869 1200.49 727.898C1201.21 728.118 1201.99 728.085 1202.65 727.807C1203.03 727.65 1203.36 727.422 1203.62 727.137C1203.89 726.852 1204.08 726.517 1204.19 726.152L1216.56 685.036L1210.62 683.579Z" fill="#809500"/>
<path d="M1281.03 750.06C1281.3 749.135 1281.2 748.132 1280.74 747.23C1280.29 746.328 1279.5 745.584 1278.53 745.131L1275.29 743.608L1269.7 740.986L1263.11 737.895L1257.52 735.269L1218.99 717.184C1218.42 716.918 1217.8 716.758 1217.18 716.716L1207.22 716.08L1203.21 715.819L1201.57 715.714L1201.56 715.713L1201.55 715.716L1200.97 715.677L1195.04 715.294L1193.17 715.172L1192.59 715.132L1186.92 714.766L1176.05 714.07C1175.32 714.023 1174.6 714.138 1173.96 714.405L1173.96 714.414C1173.39 714.641 1172.9 714.977 1172.5 715.401C1172.1 715.824 1171.81 716.326 1171.65 716.872L1157.86 762.724C1157.76 763.049 1157.71 763.388 1157.71 763.731C1157.7 764.497 1157.92 765.262 1158.36 765.942C1158.79 766.621 1159.41 767.189 1160.16 767.583L1214.56 795.989L1219.97 798.813C1220.2 798.934 1220.44 799.035 1220.68 799.112C1220.74 799.137 1220.79 799.157 1220.85 799.173C1221.05 799.23 1221.24 799.276 1221.44 799.311L1221.45 799.308C1221.7 799.356 1221.96 799.381 1222.22 799.383L1244.5 799.743L1263.14 800.047C1264.1 800.066 1265.03 799.8 1265.78 799.288C1266.53 798.777 1267.07 798.047 1267.31 797.207L1281.03 750.06Z" fill="white"/>
<path d="M1277.21 748.934C1277.25 748.819 1277.23 748.694 1277.18 748.582C1277.12 748.47 1277.02 748.378 1276.9 748.323L1276.49 748.131L1274.24 747.076L1274.02 746.97L1274.02 746.969L1274.01 746.961L1268.66 744.454L1262.07 741.358L1256.48 738.737L1217.36 720.371C1217.33 720.362 1217.31 720.35 1217.27 720.34C1217.23 720.325 1217.18 720.318 1217.13 720.318L1213.51 720.084L1209.69 719.838L1206.16 719.611L1199.91 719.208L1199.33 719.173L1199.33 719.171L1192.1 718.708L1185.86 718.302L1181.73 718.039L1179.05 717.866L1179.04 717.868L1176.01 717.667C1175.88 717.659 1175.76 717.689 1175.66 717.753C1175.56 717.817 1175.49 717.911 1175.46 718.02L1161.67 763.872C1161.64 763.982 1161.65 764.103 1161.7 764.212C1161.75 764.322 1161.84 764.414 1161.95 764.474L1164.38 765.74L1216.61 793.017L1221.51 795.573L1221.51 795.575L1221.77 795.706C1221.85 795.753 1221.95 795.779 1222.05 795.78L1222.63 795.789L1239.1 796.055L1239.1 796.057L1245.43 796.162L1262.97 796.441C1263.09 796.444 1263.21 796.412 1263.3 796.349C1263.39 796.286 1263.46 796.196 1263.49 796.092L1277.21 748.934Z" fill="#3F3D56"/>
<path d="M1281.03 750.06C1281.3 749.135 1281.2 748.132 1280.74 747.23C1280.29 746.328 1279.5 745.584 1278.53 745.131L1275.29 743.608L1269.7 740.986L1263.11 737.895L1257.52 735.269L1218.99 717.184C1218.42 716.918 1217.8 716.758 1217.18 716.716L1207.22 716.08L1203.21 715.819L1201.57 715.714L1201.56 715.713L1201.55 715.716L1200.97 715.677L1195.04 715.294L1193.17 715.172L1192.59 715.132L1186.92 714.766L1176.05 714.07C1175.32 714.023 1174.6 714.138 1173.96 714.405L1173.96 714.414C1173.39 714.641 1172.9 714.977 1172.5 715.401C1172.1 715.824 1171.81 716.326 1171.65 716.872L1157.86 762.724C1157.76 763.049 1157.71 763.388 1157.71 763.731C1157.7 764.497 1157.92 765.262 1158.36 765.942C1158.79 766.621 1159.41 767.189 1160.16 767.583L1214.56 795.989L1219.97 798.813C1220.2 798.934 1220.44 799.035 1220.68 799.112C1220.74 799.137 1220.79 799.157 1220.85 799.173C1221.05 799.23 1221.24 799.276 1221.44 799.311L1221.45 799.308C1221.7 799.356 1221.96 799.381 1222.22 799.383L1244.5 799.743L1263.14 800.047C1264.1 800.066 1265.03 799.8 1265.78 799.288C1266.53 798.777 1267.07 798.047 1267.31 797.207L1281.03 750.06ZM1263.09 799.019L1244.67 798.721L1238.46 798.622L1222.17 798.358C1222.07 798.355 1221.98 798.348 1221.9 798.341C1221.52 798.303 1221.14 798.212 1220.79 798.072L1220.78 798.07C1220.69 798.027 1220.59 797.977 1220.49 797.927L1215.14 795.135L1160.67 766.693C1160.15 766.422 1159.71 766.038 1159.39 765.58C1159.07 765.121 1158.88 764.602 1158.84 764.071C1158.81 763.725 1158.85 763.381 1158.95 763.052L1172.74 717.2C1172.96 716.474 1173.47 715.863 1174.17 715.486L1174.17 715.488L1174.18 715.483C1174.64 715.239 1175.16 715.106 1175.71 715.093C1175.82 715.086 1175.93 715.086 1176.03 715.094L1186.61 715.781L1192.86 716.182L1193.52 716.218L1193.54 716.223L1200.67 716.687L1203.88 716.894L1206.5 717.061L1206.92 717.09L1217.16 717.748C1217.44 717.766 1217.73 717.817 1218 717.9C1218.18 717.954 1218.36 718.02 1218.53 718.096L1257.22 736.261L1262.81 738.883L1269.4 741.974L1274.99 744.6L1278.07 746.043C1278.66 746.32 1279.16 746.745 1279.51 747.266L1279.52 747.269C1279.77 747.642 1279.94 748.053 1280.01 748.478C1280.08 748.902 1280.06 749.33 1279.94 749.736L1266.22 796.887C1266.04 797.518 1265.63 798.065 1265.07 798.449C1264.51 798.834 1263.81 799.033 1263.09 799.019V799.019Z" fill="#3F3D56"/>
<path d="M1279.98 748.3C1279.93 748.312 1279.87 748.316 1279.82 748.313L1260.16 747.243L1254.04 746.909L1236.62 745.96C1236.58 745.957 1236.53 745.948 1236.48 745.934C1236.45 745.924 1236.41 745.912 1236.38 745.898L1174.18 715.486L1173.97 715.384C1173.83 715.318 1173.73 715.207 1173.68 715.075C1173.63 714.944 1173.64 714.803 1173.7 714.683C1173.77 714.564 1173.88 714.475 1174.02 714.437C1174.16 714.399 1174.32 714.414 1174.45 714.479L1175.71 715.091L1236.75 744.938L1251.76 745.756L1260.15 746.213L1279.52 747.266L1279.82 747.284C1279.96 747.292 1280.08 747.342 1280.19 747.426C1280.29 747.51 1280.35 747.621 1280.38 747.742C1280.38 747.771 1280.39 747.801 1280.39 747.83C1280.39 747.941 1280.34 748.047 1280.27 748.132C1280.2 748.217 1280.09 748.275 1279.98 748.3V748.3Z" fill="#3F3D56"/>
<path d="M1221.01 799.342C1220.86 799.299 1220.74 799.206 1220.67 799.085C1220.59 798.964 1220.57 798.823 1220.61 798.694L1236.08 745.286C1236.12 745.156 1236.21 745.049 1236.34 744.987C1236.47 744.925 1236.62 744.913 1236.77 744.956L1236.77 744.957C1236.92 745 1237.04 745.093 1237.11 745.214C1237.19 745.335 1237.21 745.476 1237.17 745.605L1221.7 799.013C1221.66 799.143 1221.57 799.25 1221.44 799.312C1221.31 799.374 1221.16 799.385 1221.01 799.343L1221.01 799.342Z" fill="#3F3D56"/>
<path d="M1244.48 799.347L1238.36 799.013L1251.76 745.756L1193.7 716.319C1193.64 716.291 1193.59 716.26 1193.54 716.226C1193.1 715.964 1192.77 715.579 1192.59 715.135L1201.55 715.711L1203.88 716.892L1258.98 744.821C1259.27 744.967 1259.52 745.167 1259.72 745.408C1259.93 745.648 1260.07 745.922 1260.15 746.213C1260.25 746.551 1244.58 799.008 1244.48 799.347Z" fill="#809500"/>
<path d="M1307.58 701.307C1306.66 700.767 1305.72 700.233 1304.78 699.706L1306.02 695.611C1306.47 694.141 1306.27 692.534 1305.48 691.121C1305.13 690.495 1304.67 689.924 1304.11 689.436C1303.99 689.322 1303.86 689.216 1303.72 689.116C1303.19 688.716 1302.6 688.395 1301.97 688.167C1301.3 687.918 1300.59 687.772 1299.88 687.735C1299.46 687.713 1299.03 687.728 1298.62 687.781C1298.01 687.864 1297.44 688.026 1296.89 688.261C1296.77 688.313 1296.66 688.367 1296.54 688.429C1295.16 689.133 1294.15 690.308 1293.73 691.715L1293.2 693.487C1263.8 678.526 1231.78 668.886 1199.01 665.127L1199.49 663.535C1199.94 662.065 1199.75 660.458 1198.95 659.045C1198.61 658.419 1198.15 657.849 1197.59 657.361C1197.47 657.248 1197.33 657.141 1197.2 657.04C1196.67 656.64 1196.08 656.319 1195.45 656.091C1194.78 655.842 1194.07 655.696 1193.36 655.659C1192.94 655.637 1192.51 655.653 1192.1 655.706C1191.49 655.788 1190.91 655.949 1190.37 656.185C1190.25 656.237 1190.14 656.291 1190.02 656.354C1188.64 657.058 1187.63 658.232 1187.21 659.639L1185.92 663.914C1184.85 663.839 1183.78 663.766 1182.71 663.704L1182.45 663.69L1182.38 663.911C1181.83 665.753 1181.73 667.709 1182.1 669.64L1182.43 670.94C1183.11 673.174 1184.4 675.243 1186.18 676.946C1187.96 678.648 1190.16 679.926 1192.57 680.653L1196.8 681.925L1184.46 722.943C1184.25 723.604 1184.32 724.327 1184.66 724.974C1184.99 725.621 1185.57 726.145 1186.28 726.447C1186.68 726.606 1187.1 726.69 1187.52 726.691C1187.94 726.693 1188.36 726.613 1188.73 726.457C1189.11 726.301 1189.44 726.073 1189.7 725.788C1189.97 725.502 1190.16 725.166 1190.27 724.801L1202.55 683.991C1203.74 684.694 1204.78 685.611 1205.58 686.683C1206.39 687.754 1206.95 688.956 1207.22 690.209C1207.4 690.996 1207.63 691.774 1207.93 692.537C1208.86 694.904 1210.39 697.066 1212.38 698.839C1214.38 700.612 1216.79 701.944 1219.4 702.723L1255.46 713.583C1258.21 714.413 1261.09 714.619 1263.86 714.185C1266.59 713.769 1269.11 712.7 1271.17 711.084C1271.6 710.744 1272.01 710.381 1272.39 709.995C1273.31 709.061 1274.45 708.332 1275.74 707.861C1277.03 707.39 1278.43 707.187 1279.84 707.266L1267.6 747.977C1267.39 748.638 1267.46 749.361 1267.79 750.008C1268.13 750.655 1268.71 751.179 1269.42 751.481C1269.51 751.519 1269.61 751.553 1269.71 751.582C1270.43 751.802 1271.21 751.77 1271.87 751.493C1272.25 751.335 1272.58 751.107 1272.84 750.822C1273.11 750.537 1273.3 750.201 1273.41 749.836L1285.78 708.72L1290 709.99C1292.42 710.717 1294.96 710.869 1297.38 710.431C1299.8 709.993 1302.02 708.98 1303.82 707.491C1304.17 707.207 1304.5 706.907 1304.81 706.59C1306.19 705.186 1307.19 703.502 1307.74 701.659L1307.81 701.438L1307.58 701.307Z" fill="#809500"/>
<path d="M1234.46 713.303C1243.07 715.896 1251.94 711.731 1254.26 704C1256.59 696.27 1251.49 687.902 1242.88 685.309C1234.27 682.717 1225.41 686.882 1223.08 694.612C1220.76 702.342 1225.85 710.711 1234.46 713.303Z" fill="#3F3D56"/>
<path d="M1236.43 706.771C1241.02 708.154 1245.75 705.933 1246.99 701.81C1248.23 697.687 1245.51 693.224 1240.92 691.841C1236.33 690.459 1231.6 692.68 1230.36 696.803C1229.12 700.926 1231.84 705.389 1236.43 706.771Z" fill="#809500"/>
<path d="M1325 692.545L1304.54 686.383L1303.66 689.301L1327.68 696.533C1327.84 695.712 1327.65 694.848 1327.16 694.111C1326.66 693.373 1325.89 692.815 1325 692.545V692.545Z" fill="#809500"/>
<path d="M1280.19 679.049C1279.29 678.783 1278.35 678.825 1277.52 679.166C1276.7 679.507 1276.07 680.123 1275.75 680.895L1299.77 688.127L1300.64 685.209L1280.19 679.049Z" fill="#809500"/>
<path d="M1306.83 690.254C1306.94 689.045 1306.58 687.815 1305.83 686.77C1305.26 685.985 1304.48 685.34 1303.57 684.899C1302.66 684.458 1301.66 684.238 1300.66 684.259C1299.66 684.281 1298.7 684.544 1297.87 685.022C1297.05 685.5 1296.39 686.176 1295.96 686.982C1295.81 687.252 1295.69 687.535 1295.6 687.828L1295.52 688.121L1306.56 691.447L1306.65 691.154C1306.74 690.86 1306.79 690.559 1306.83 690.254Z" fill="#3F3D56"/>
<path d="M1218.48 660.469L1198.02 654.307L1197.14 657.225L1221.16 664.457C1221.32 663.636 1221.13 662.772 1220.63 662.035C1220.14 661.297 1219.37 660.739 1218.48 660.469V660.469Z" fill="#809500"/>
<path d="M1173.66 646.973C1172.77 646.707 1171.82 646.749 1171 647.09C1170.18 647.431 1169.55 648.047 1169.22 648.819L1193.24 656.051L1194.12 653.133L1173.66 646.973Z" fill="#809500"/>
<path d="M1200.3 658.178C1200.42 656.963 1200.07 655.724 1199.3 654.677C1198.53 653.63 1197.4 652.842 1196.1 652.452C1194.81 652.061 1193.43 652.093 1192.21 652.542C1190.99 652.991 1190.01 653.828 1189.44 654.906C1189.29 655.176 1189.17 655.46 1189.09 655.754L1189 656.047L1200.04 659.371L1200.13 659.078C1200.21 658.784 1200.27 658.483 1200.3 658.178Z" fill="#3F3D56"/>
<path d="M1182.1 669.64C1224.24 677.242 1265.48 689.658 1304.81 706.59C1304.5 706.907 1304.17 707.208 1303.82 707.493C1284.5 699.197 1264.71 691.986 1244.56 685.904L1244.55 685.9C1243.4 685.553 1242.24 685.205 1241.09 684.871L1241.07 684.865C1221.78 679.171 1202.2 674.521 1182.43 670.942L1182.1 669.64Z" fill="#3F3D56"/>
<path d="M1194.37 769.696C1194.29 769.674 1194.22 769.645 1194.16 769.609L1175.25 759.464C1175.13 759.401 1175.03 759.318 1174.94 759.221C1174.86 759.123 1174.8 759.012 1174.76 758.894C1174.72 758.777 1174.7 758.654 1174.72 758.534C1174.73 758.415 1174.77 758.3 1174.83 758.196C1174.89 758.093 1174.98 758.002 1175.08 757.931C1175.18 757.859 1175.3 757.807 1175.42 757.779C1175.55 757.75 1175.68 757.744 1175.82 757.763C1175.95 757.781 1176.08 757.823 1176.19 757.886L1195.1 768.031C1195.32 768.149 1195.49 768.335 1195.58 768.552C1195.66 768.769 1195.66 769.003 1195.57 769.209C1195.48 769.414 1195.3 769.578 1195.08 769.668C1194.86 769.758 1194.61 769.768 1194.37 769.696L1194.37 769.696Z" fill="#809500"/>
<path d="M1192.5 757.05C1192.43 757.028 1192.36 756.999 1192.3 756.964L1173.39 746.818C1173.15 746.691 1172.97 746.487 1172.89 746.249C1172.82 746.011 1172.84 745.76 1172.97 745.551C1173.09 745.342 1173.31 745.191 1173.56 745.133C1173.82 745.075 1174.09 745.114 1174.33 745.241L1193.24 755.386C1193.46 755.504 1193.63 755.689 1193.71 755.906C1193.8 756.123 1193.8 756.357 1193.71 756.563C1193.61 756.769 1193.44 756.933 1193.22 757.022C1193 757.112 1192.74 757.122 1192.5 757.05V757.05Z" fill="#809500"/>
</g>
<g opacity="0.4">
<path d="M224.204 132.081L236.401 172.809C236.591 173.476 237.048 174.041 237.685 174.396C238.322 174.75 239.093 174.87 239.852 174.731C239.951 174.708 240.05 174.684 240.148 174.655C240.874 174.438 241.501 173.985 241.906 173.384C242.132 173.047 242.282 172.675 242.346 172.291C242.41 171.908 242.387 171.521 242.279 171.155L229.961 130.024L224.204 132.081Z" fill="#809500"/>
<path d="M166.924 149.252L179.121 189.98C179.311 190.648 179.768 191.212 180.404 191.567C181.041 191.922 181.812 192.041 182.571 191.902C182.67 191.879 182.77 191.856 182.867 191.826C183.593 191.61 184.221 191.156 184.625 190.556C184.851 190.219 185.001 189.847 185.065 189.463C185.129 189.079 185.107 188.692 184.998 188.327L172.681 147.196L166.924 149.252Z" fill="#809500"/>
<path d="M262.289 165.927C262.006 165.005 261.369 164.225 260.49 163.724C259.611 163.223 258.548 163.034 257.489 163.191L253.942 163.709L247.835 164.6L240.632 165.653L234.524 166.541L192.411 172.685C191.788 172.777 191.184 172.985 190.639 173.295L181.982 178.25L178.484 180.248L177.058 181.064L177.053 181.065L177.049 181.071L176.54 181.362L171.382 184.309L169.75 185.241L169.249 185.524L164.312 188.346L154.855 193.757C154.223 194.118 153.688 194.609 153.296 195.188L153.299 195.197C152.954 195.697 152.725 196.251 152.627 196.824C152.529 197.396 152.563 197.974 152.728 198.52L166.464 244.389C166.561 244.715 166.705 245.026 166.894 245.312C167.309 245.955 167.919 246.469 168.654 246.798C169.389 247.127 170.223 247.258 171.061 247.175L232.102 240.897L238.174 240.272C238.431 240.247 238.686 240.198 238.935 240.127C238.994 240.118 239.052 240.103 239.109 240.085C239.302 240.026 239.491 239.956 239.676 239.875L239.68 239.869C239.92 239.769 240.149 239.648 240.365 239.507L259.161 227.525L274.878 217.508C275.694 216.992 276.321 216.259 276.667 215.418C277.013 214.576 277.058 213.671 276.797 212.837L262.289 165.927Z" fill="white"/>
<path d="M258.482 167.092C258.447 166.977 258.367 166.88 258.257 166.818C258.147 166.757 258.014 166.734 257.883 166.756L257.437 166.821L254.981 167.178L254.739 167.211L254.734 167.213L254.723 167.211L248.874 168.07L241.67 169.118L235.563 170.01L192.803 176.245C192.773 176.254 192.747 176.257 192.712 176.268C192.667 176.28 192.625 176.299 192.586 176.325L189.435 178.125L186.111 180.026L183.039 181.783L177.597 184.894L177.098 185.182L177.093 185.183L170.81 188.778L165.371 191.883L161.786 193.936L159.453 195.27L159.445 195.277L156.802 196.782C156.693 196.844 156.608 196.936 156.561 197.044C156.514 197.152 156.507 197.269 156.541 197.377L170.278 243.245C170.312 243.356 170.387 243.451 170.49 243.514C170.593 243.576 170.719 243.604 170.847 243.591L173.567 243.312L232.181 237.284L237.674 236.719L237.679 236.718L237.965 236.686C238.062 236.678 238.157 236.647 238.239 236.594L238.731 236.28L252.621 227.425L252.626 227.424L257.965 224.024L272.755 214.59C272.857 214.526 272.936 214.436 272.979 214.331C273.023 214.227 273.03 214.115 272.998 214.011L258.482 167.092Z" fill="#3F3D56"/>
<path d="M262.289 165.927C262.006 165.005 261.369 164.225 260.49 163.724C259.611 163.223 258.548 163.034 257.489 163.191L253.942 163.709L247.835 164.6L240.632 165.653L234.524 166.541L192.411 172.685C191.788 172.777 191.184 172.985 190.639 173.295L181.982 178.25L178.484 180.248L177.058 181.064L177.053 181.065L177.049 181.071L176.54 181.362L171.382 184.309L169.75 185.241L169.249 185.524L164.312 188.346L154.855 193.757C154.223 194.118 153.688 194.609 153.296 195.188L153.299 195.197C152.954 195.697 152.725 196.251 152.627 196.824C152.529 197.396 152.563 197.974 152.728 198.52L166.464 244.389C166.561 244.715 166.705 245.026 166.894 245.312C167.309 245.955 167.919 246.469 168.654 246.798C169.389 247.127 170.223 247.258 171.061 247.175L232.102 240.897L238.174 240.272C238.431 240.247 238.686 240.198 238.935 240.127C238.994 240.118 239.052 240.103 239.109 240.085C239.302 240.026 239.491 239.956 239.676 239.875L239.68 239.869C239.92 239.769 240.149 239.648 240.365 239.507L259.161 227.525L274.878 217.508C275.694 216.992 276.321 216.259 276.667 215.418C277.013 214.576 277.058 213.671 276.797 212.837L262.289 165.927ZM274.273 216.677L258.736 226.58L253.5 229.92L239.756 238.681C239.678 238.729 239.598 238.773 239.523 238.815C239.185 238.992 238.824 239.122 238.45 239.201L238.445 239.202C238.34 239.219 238.229 239.232 238.119 239.246L232.116 239.865L170.995 246.152C170.416 246.21 169.839 246.132 169.319 245.925C168.799 245.719 168.354 245.391 168.025 244.973C167.813 244.698 167.654 244.39 167.555 244.062L153.818 198.193C153.599 197.467 153.689 196.676 154.068 195.974L154.073 195.973L154.072 195.968C154.322 195.511 154.687 195.11 155.134 194.799C155.221 194.733 155.313 194.673 155.409 194.619L164.616 189.361L170.053 186.251L170.621 185.919L170.637 185.914L176.842 182.372L179.643 180.771L181.914 179.47L182.284 179.261L191.19 174.167C191.439 174.025 191.705 173.911 191.981 173.827C192.159 173.774 192.341 173.733 192.524 173.703L234.822 167.533L240.928 166.641L248.131 165.588L254.239 164.701L257.602 164.21C258.25 164.113 258.903 164.19 259.481 164.433L259.491 164.43C259.905 164.604 260.27 164.856 260.564 165.17C260.858 165.485 261.074 165.855 261.2 166.258L275.71 213.173C275.906 213.798 275.872 214.477 275.613 215.108C275.355 215.74 274.885 216.29 274.273 216.677V216.677Z" fill="#3F3D56"/>
<path d="M260.439 165.04C260.404 165.077 260.363 165.11 260.317 165.136L243.317 175.082L238.024 178.178L222.971 186.982C222.928 187.006 222.882 187.026 222.835 187.041C222.802 187.05 222.768 187.058 222.735 187.064L154.073 195.971L153.844 196C153.695 196.019 153.548 195.983 153.434 195.901C153.32 195.819 153.249 195.697 153.237 195.561C153.225 195.426 153.272 195.289 153.368 195.179C153.465 195.07 153.603 194.997 153.752 194.977L155.133 194.797L222.516 186.057L235.49 178.469L242.747 174.223L259.485 164.431L259.752 164.276C259.867 164.21 260.001 164.181 260.132 164.195C260.263 164.209 260.381 164.265 260.466 164.353C260.488 164.374 260.507 164.397 260.523 164.422C260.583 164.515 260.608 164.626 260.593 164.737C260.577 164.849 260.523 164.955 260.439 165.04V165.04Z" fill="#3F3D56"/>
<path d="M239.33 240.141C239.186 240.184 239.033 240.175 238.904 240.115C238.775 240.054 238.681 239.949 238.641 239.82L222.145 186.72C222.105 186.591 222.124 186.449 222.197 186.326C222.271 186.204 222.393 186.11 222.537 186.065L222.542 186.064C222.685 186.021 222.838 186.03 222.967 186.09C223.096 186.151 223.191 186.256 223.231 186.385L239.726 239.485C239.766 239.614 239.748 239.756 239.674 239.879C239.601 240.001 239.479 240.095 239.335 240.14L239.33 240.141Z" fill="#3F3D56"/>
<path d="M258.926 227.205L253.634 230.301L235.49 178.469L170.828 185.903C170.765 185.912 170.701 185.916 170.638 185.917C170.13 185.938 169.64 185.801 169.248 185.528L177.046 181.068L179.641 180.769L240.997 173.712C241.319 173.674 241.642 173.7 241.945 173.789C242.247 173.877 242.521 174.025 242.747 174.223C243.013 174.452 258.821 226.868 258.926 227.205Z" fill="#809500"/>
<path d="M257.603 110.604C256.532 110.665 255.453 110.737 254.385 110.811L253.159 106.715C252.726 105.239 251.68 104.004 250.236 103.264C249.602 102.933 248.902 102.711 248.168 102.611C248.002 102.585 247.834 102.568 247.665 102.56C247.006 102.516 246.336 102.574 245.685 102.731C244.987 102.893 244.317 103.161 243.704 103.522C243.336 103.738 242.99 103.985 242.671 104.259C242.215 104.66 241.821 105.114 241.498 105.609C241.427 105.718 241.361 105.827 241.292 105.946C240.529 107.294 240.338 108.828 240.759 110.235L241.29 112.008C208.516 115.727 176.491 125.328 147.073 140.253L146.596 138.66C146.163 137.184 145.117 135.949 143.674 135.21C143.042 134.877 142.343 134.656 141.61 134.555C141.443 134.53 141.273 134.513 141.103 134.505C140.443 134.462 139.774 134.519 139.122 134.676C138.425 134.839 137.755 135.106 137.141 135.467C136.775 135.682 136.431 135.929 136.113 136.203C135.655 136.603 135.259 137.058 134.935 137.554C134.864 137.664 134.798 137.772 134.735 137.889C133.97 139.238 133.777 140.772 134.196 142.181L135.477 146.457C134.545 146.983 133.609 147.514 132.681 148.053L132.457 148.184L132.523 148.405C133.073 150.249 134.069 151.935 135.442 153.342L136.435 154.243C138.231 155.734 140.447 156.75 142.869 157.191C145.29 157.632 147.832 157.483 150.248 156.76L154.473 155.493L166.762 196.525C166.951 197.192 167.408 197.757 168.045 198.112C168.681 198.466 169.453 198.585 170.212 198.446C170.629 198.361 171.028 198.198 171.381 197.966C171.734 197.735 172.035 197.441 172.263 197.103C172.489 196.766 172.64 196.394 172.704 196.01C172.768 195.626 172.744 195.239 172.635 194.873L160.409 154.048C161.793 153.976 163.162 154.172 164.424 154.622C165.686 155.072 166.814 155.766 167.735 156.66C168.314 157.221 168.939 157.74 169.607 158.213C171.687 159.676 174.153 160.638 176.795 161.017C179.437 161.396 182.178 161.182 184.787 160.393L220.864 149.578C223.612 148.758 226.135 147.339 228.208 145.449C230.256 143.598 231.77 141.317 232.6 138.832C232.773 138.311 232.913 137.784 233.019 137.252C233.271 135.966 233.822 134.728 234.636 133.626C235.451 132.524 236.507 131.582 237.733 130.868L249.93 171.593C250.119 172.261 250.576 172.826 251.213 173.18C251.849 173.534 252.621 173.653 253.379 173.514C253.479 173.494 253.578 173.469 253.675 173.44C254.402 173.223 255.029 172.77 255.436 172.17C255.661 171.833 255.811 171.46 255.875 171.076C255.939 170.693 255.916 170.305 255.808 169.939L243.49 128.808L247.711 127.542C250.126 126.818 252.332 125.544 254.112 123.843C255.892 122.143 257.185 120.075 257.865 117.841C258 117.412 258.111 116.978 258.199 116.542C258.573 114.611 258.481 112.655 257.928 110.811L257.862 110.59L257.603 110.604Z" fill="#809500"/>
<path d="M203.185 160.919C211.797 158.337 216.902 149.975 214.586 142.242C212.27 134.509 203.411 130.333 194.798 132.915C186.186 135.497 181.081 143.859 183.397 151.592C185.713 159.325 194.572 163.501 203.185 160.919Z" fill="#3F3D56"/>
<path d="M201.228 154.385C205.821 153.008 208.544 148.548 207.309 144.424C206.073 140.3 201.348 138.073 196.755 139.45C192.162 140.827 189.439 145.286 190.674 149.411C191.91 153.535 196.635 155.762 201.228 154.385Z" fill="#809500"/>
<path d="M267.317 93.6896L246.846 99.8262L247.72 102.745L271.748 95.5421C271.427 94.77 270.796 94.1523 269.976 93.8097C269.157 93.4672 268.208 93.4243 267.317 93.6896V93.6896Z" fill="#809500"/>
<path d="M222.482 107.13C221.591 107.4 220.822 107.957 220.325 108.694C219.829 109.431 219.639 110.295 219.793 111.117L243.821 103.914L242.947 100.995L222.482 107.13Z" fill="#809500"/>
<path d="M250.886 101.796C250.313 100.727 249.34 99.8948 248.133 99.4405C247.224 99.1004 246.219 98.991 245.219 99.1234C244.218 99.2557 243.258 99.6252 242.435 100.195C241.612 100.764 240.956 101.513 240.531 102.366C240.107 103.219 239.929 104.147 240.018 105.054C240.041 105.361 240.097 105.664 240.184 105.958L240.272 106.251L251.321 102.939L251.233 102.646C251.143 102.353 251.027 102.069 250.886 101.796Z" fill="#3F3D56"/>
<path d="M160.754 125.635L140.284 131.771L141.158 134.69L165.186 127.487C164.865 126.715 164.233 126.098 163.414 125.755C162.594 125.412 161.646 125.37 160.754 125.635V125.635Z" fill="#809500"/>
<path d="M115.919 139.075C115.029 139.345 114.26 139.903 113.763 140.64C113.266 141.377 113.076 142.24 113.231 143.062L137.259 135.859L136.385 132.94L115.919 139.075Z" fill="#809500"/>
<path d="M144.323 133.741C143.754 132.662 142.775 131.824 141.557 131.374C140.339 130.924 138.961 130.89 137.664 131.279C136.367 131.668 135.234 132.454 134.465 133.5C133.695 134.546 133.338 135.785 133.455 136.999C133.481 137.306 133.538 137.608 133.627 137.902L133.715 138.195L144.759 134.884L144.671 134.591C144.58 134.299 144.464 134.014 144.323 133.741Z" fill="#3F3D56"/>
<path d="M135.444 153.341C174.799 136.456 216.047 124.091 258.198 116.542C258.111 116.979 258 117.413 257.866 117.843C237.18 121.564 216.693 126.455 196.525 132.487L196.512 132.491C195.362 132.835 194.205 133.182 193.059 133.538L193.039 133.544C173.803 139.426 154.901 146.339 136.437 154.245L135.444 153.341Z" fill="#3F3D56"/>
<path d="M200.774 230.083C200.701 230.105 200.627 230.119 200.552 230.126L179.186 232.08C179.054 232.093 178.922 232.081 178.797 232.046C178.673 232.011 178.558 231.954 178.461 231.877C178.364 231.8 178.285 231.706 178.229 231.599C178.173 231.492 178.142 231.375 178.136 231.255C178.131 231.134 178.152 231.013 178.197 230.897C178.243 230.78 178.313 230.672 178.403 230.579C178.493 230.485 178.601 230.407 178.721 230.35C178.841 230.292 178.971 230.256 179.104 230.244L200.47 228.29C200.718 228.267 200.961 228.329 201.152 228.462C201.344 228.596 201.471 228.792 201.508 229.014C201.546 229.236 201.492 229.468 201.356 229.665C201.221 229.862 201.013 230.011 200.774 230.083L200.774 230.083Z" fill="#809500"/>
<path d="M192.256 220.557C192.183 220.578 192.109 220.593 192.034 220.599L170.668 222.554C170.401 222.578 170.14 222.505 169.943 222.35C169.746 222.196 169.63 221.972 169.619 221.728C169.608 221.485 169.704 221.242 169.885 221.052C170.066 220.863 170.319 220.742 170.586 220.718L191.952 218.763C192.2 218.741 192.443 218.802 192.635 218.936C192.826 219.069 192.953 219.266 192.991 219.488C193.028 219.71 192.974 219.941 192.839 220.138C192.703 220.336 192.496 220.484 192.256 220.557V220.557Z" fill="#809500"/>
</g>
<g opacity="0.5" clip-path="url(#clip0_596_153)">
<path d="M695.909 670.444H671.375V481.62H691.328C692.294 481.62 693.221 482.003 693.906 482.685C694.591 483.366 694.979 484.292 694.984 485.258L695.909 670.444Z" fill="#CCCCCC"/>
<path d="M673.668 671.444H410.203V536.969H673.668V671.444Z" fill="white"/>
<path d="M569.823 670.944H410.703V537.469H673.168V567.599C673.137 594.998 662.239 621.266 642.865 640.64C623.491 660.015 597.223 670.913 569.823 670.944V670.944Z" fill="#F2F2F2"/>
<path d="M691.913 486.984C691.781 487.235 691.678 487.5 691.607 487.774L682.522 522.792L672.668 541.455H411.203V536.806L426.089 522.792L443.455 489.576C444.221 488.11 445.228 486.782 446.433 485.648C449.182 483.061 452.816 481.62 456.591 481.62H688.681C689.311 481.62 689.93 481.783 690.479 482.093C691.027 482.403 691.487 482.85 691.812 483.389C692.137 483.929 692.317 484.543 692.335 485.173C692.353 485.803 692.208 486.427 691.913 486.984V486.984Z" fill="#F2F2F2"/>
<path d="M673.668 671.444H410.203V536.969H673.668V671.444ZM412.203 669.444H671.668V538.969H412.203V669.444Z" fill="#E6E6E6"/>
<path d="M687.376 504.898L682.522 522.792H426.09L434.376 507.898L687.376 504.898Z" fill="#CCCCCC"/>
<path d="M461.918 607.435H419.919V609.76H461.918V607.435Z" fill="white"/>
<path d="M461.918 615.57H419.919V617.894H461.918V615.57Z" fill="white"/>
<path d="M461.918 623.704H419.919V626.029H461.918V623.704Z" fill="white"/>
<path d="M436.188 581.546C444.531 581.546 451.295 574.782 451.295 566.439C451.295 558.096 444.531 551.332 436.188 551.332C427.844 551.332 421.081 558.096 421.081 566.439C421.081 574.782 427.844 581.546 436.188 581.546Z" fill="white"/>
<path d="M601.762 512.644H588.931V413.898H599.366C599.871 413.898 600.356 414.098 600.714 414.454C601.073 414.811 601.275 415.294 601.278 415.8L601.762 512.644Z" fill="#CCCCCC"/>
<path d="M590.131 513.166H452.351V442.842H590.131V513.166Z" fill="white"/>
<path d="M535.825 512.905H452.612V443.104H589.869V458.86C589.853 473.189 584.154 486.926 574.022 497.058C563.89 507.189 550.153 512.889 535.825 512.905Z" fill="#F2F2F2"/>
<path d="M599.672 416.703C599.603 416.834 599.549 416.972 599.512 417.116L594.761 435.428L589.607 445.188H452.874V442.757L460.658 435.428L469.74 418.058C470.141 417.291 470.667 416.597 471.297 416.004V416.004C472.735 414.651 474.635 413.898 476.609 413.898H597.982C598.311 413.898 598.635 413.983 598.922 414.145C599.209 414.307 599.449 414.54 599.619 414.823C599.789 415.105 599.883 415.426 599.893 415.756C599.902 416.085 599.826 416.411 599.672 416.703V416.703Z" fill="#F2F2F2"/>
<path d="M590.131 513.166H452.351V442.842H590.131V513.166ZM453.397 512.12H589.085V443.888H453.397V512.12Z" fill="#E6E6E6"/>
<path d="M597.299 426.071L594.761 435.428H460.659L464.992 427.639L597.299 426.071Z" fill="#CCCCCC"/>
<path d="M479.395 479.693H457.431V480.909H479.395V479.693Z" fill="white"/>
<path d="M479.395 483.947H457.431V485.162H479.395V483.947Z" fill="white"/>
<path d="M479.395 488.201H457.431V489.416H479.395V488.201Z" fill="white"/>
<path d="M465.939 466.154C470.303 466.154 473.84 462.617 473.84 458.254C473.84 453.891 470.303 450.354 465.939 450.354C461.576 450.354 458.039 453.891 458.039 458.254C458.039 462.617 461.576 466.154 465.939 466.154Z" fill="white"/>
<path d="M979.883 671.375L979.804 670.949C978.505 663.791 978.782 656.436 980.613 649.395C982.444 642.354 985.787 635.797 990.408 630.179C993.026 627.048 996.027 624.259 999.341 621.878L999.657 621.65L999.795 622.014C1001.44 626.36 1003.52 630.713 1004.47 632.64L1005.11 618.257L1005.48 618.064C1007.15 617.167 1009.05 616.792 1010.94 616.987C1012.83 617.182 1014.62 617.938 1016.07 619.157C1017.57 620.366 1018.68 621.998 1019.25 623.842C1019.82 625.687 1019.82 627.659 1019.26 629.506C1018.76 631.196 1018.29 632.949 1017.84 634.644C1016.28 640.469 1014.67 646.492 1011.54 651.564C1009.13 655.38 1005.91 658.61 1002.09 661.02C998.28 663.429 993.977 664.956 989.498 665.489L979.883 671.375Z" fill="#F2F2F2"/>
<path d="M1019.68 671.199C1019.68 671.356 1019.65 671.511 1019.59 671.655C1019.53 671.8 1019.44 671.931 1019.33 672.042C1019.22 672.152 1019.09 672.24 1018.94 672.3C1018.8 672.359 1018.64 672.39 1018.49 672.389H382.196C381.88 672.389 381.577 672.264 381.354 672.041C381.131 671.817 381.006 671.515 381.006 671.199C381.006 670.884 381.131 670.581 381.354 670.358C381.577 670.135 381.88 670.009 382.196 670.009H1018.49C1018.64 670.009 1018.8 670.039 1018.94 670.099C1019.09 670.158 1019.22 670.246 1019.33 670.357C1019.44 670.467 1019.53 670.599 1019.59 670.743C1019.65 670.888 1019.68 671.043 1019.68 671.199Z" fill="#CCCCCC"/>
<path d="M875.35 366.724L857.138 364.115C850.978 374.415 848.789 401.83 848.789 401.83L830.965 444.195C829.784 444.997 828.836 446.095 828.215 447.38C827.594 448.665 827.323 450.091 827.428 451.514C827.533 452.937 828.012 454.307 828.815 455.486C829.618 456.666 830.718 457.613 832.003 458.232C833.289 458.852 834.715 459.121 836.138 459.014C837.561 458.908 838.93 458.428 840.109 457.623C841.287 456.818 842.233 455.718 842.851 454.431C843.469 453.145 843.737 451.719 843.628 450.296L872.893 400.985L875.35 366.724Z" fill="#FFB8B8"/>
<path d="M872.451 316.161C875.27 316.598 877.959 317.65 880.325 319.244C882.691 320.838 884.676 322.933 886.14 325.381C887.605 327.829 888.511 330.57 888.796 333.408C889.08 336.247 888.736 339.113 887.787 341.803L883.922 352.758C883.922 352.758 881.818 385.743 873.794 395.054L849.174 392.825C849.174 392.825 853.675 376.183 850.219 368.132C848.103 363.201 848.22 346.17 850.306 332.315C850.697 329.799 851.58 327.385 852.905 325.211C854.23 323.037 855.971 321.145 858.028 319.645C860.085 318.145 862.418 317.064 864.893 316.467C867.368 315.869 869.936 315.765 872.451 316.161V316.161Z" fill="#E6E6E6"/>
<path d="M932.642 658.418L921.671 658.417L916.452 616.1L932.644 616.101L932.642 658.418Z" fill="#FFB6B6"/>
<path d="M933.028 669.863L899.291 669.862V669.435C899.291 665.952 900.675 662.612 903.137 660.15C905.6 657.687 908.94 656.304 912.422 656.304H912.423L918.585 651.629L930.083 656.304L933.028 656.305L933.028 669.863Z" fill="#2F2E41"/>
<path d="M884.945 605.973L874.811 610.174L853.779 573.085L868.737 566.883L884.945 605.973Z" fill="#FFB6B6"/>
<path d="M889.686 616.396L858.522 629.319L858.359 628.925C857.025 625.708 857.023 622.093 858.355 618.875C859.686 615.657 862.241 613.099 865.458 611.765L865.459 611.765L869.36 605.086L881.772 605L884.493 603.872L889.686 616.396Z" fill="#2F2E41"/>
<path d="M945.185 417.695L867.327 425.829L856.912 460.907L820.844 518.87L860.668 592.037L874.693 579.449L861.231 520.365L901.412 476.987L909.031 473.825L915.079 634.793L937.449 635.16L947.238 457.542C951.942 441.852 950.526 428.896 945.185 417.695Z" fill="#2F2E41"/>
<path d="M916.64 306.648L903.861 292.258L883.667 294.502L870.739 312.595C863.858 314.177 857.844 318.336 853.936 324.217C850.027 330.097 848.522 337.253 849.728 344.21C854.745 373.098 871.795 401.117 866.165 415.371C857.619 437.008 857.098 445.832 877.554 442.799C898.01 439.765 966.543 432.772 953.256 419.485C939.969 406.198 937.051 383.995 937.051 383.995L936.518 333.198C937.083 330.135 937.008 326.987 936.297 323.954C935.586 320.921 934.256 318.067 932.388 315.573C930.521 313.08 928.158 310.999 925.448 309.463C922.738 307.927 919.739 306.968 916.64 306.648L916.64 306.648Z" fill="#E6E6E6"/>
<path d="M891.667 288.576C904.046 288.576 914.082 278.54 914.082 266.16C914.082 253.781 904.046 243.745 891.667 243.745C879.287 243.745 869.251 253.781 869.251 266.16C869.251 278.54 879.287 288.576 891.667 288.576Z" fill="#FFB8B8"/>
<path d="M919.286 264.829C918.285 269.371 916.479 273.697 913.954 277.602C913.284 278.934 912.283 280.071 911.047 280.904C910.421 281.306 909.674 281.475 908.936 281.383C908.198 281.291 907.515 280.943 907.008 280.399L906.462 279.955C907.532 279.296 908.487 278.467 909.29 277.501C909.687 277.017 909.963 276.444 910.095 275.831C910.227 275.218 910.21 274.583 910.047 273.977C909.853 273.38 909.436 272.882 908.882 272.586C908.329 272.291 907.682 272.221 907.078 272.392C905.766 272.907 904.968 274.805 903.595 274.513C902.484 274.27 902.252 272.806 902.252 271.655C902.292 265.637 899.384 257.085 897.132 257.347C894.858 257.472 892.58 257.167 890.418 256.449C888.253 255.729 885.969 255.438 883.693 255.59C883.531 255.61 883.37 255.641 883.198 255.671C882.833 254.528 882.332 253.433 881.704 252.41C881.775 253.644 881.714 254.883 881.522 256.105C879.711 256.852 877.839 257.443 875.928 257.872C873.848 258.165 869.274 264.385 869.062 263.749C868.697 262.605 868.195 261.51 867.568 260.487C867.638 261.722 867.577 262.961 867.386 264.183C867.376 264.234 867.376 264.274 867.366 264.324C866.356 262.981 865.74 261.346 866.083 262.598C862.701 254.944 864.013 249.461 869.335 243.009C870.372 241.622 871.744 240.52 873.323 239.808C874.114 239.461 874.981 239.323 875.84 239.408C876.7 239.493 877.523 239.798 878.23 240.293C880.401 238.303 883.064 236.93 885.943 236.316C888.823 235.701 891.815 235.868 894.608 236.799C900.151 238.728 904.423 239.859 905.271 245.675C909.855 244.938 914.57 247.543 917.095 251.43C919.609 255.328 920.124 260.275 919.286 264.829Z" fill="#2F2E41"/>
<path d="M901.109 451.01H893.669V393.751H899.72C900.013 393.751 900.294 393.867 900.502 394.074C900.709 394.28 900.827 394.561 900.828 394.854L901.109 451.01Z" fill="#3F3D56"/>
<path d="M894.364 451.313H814.471V410.535H894.364V451.313Z" fill="white"/>
<path d="M862.874 451.162H814.622V410.686H894.213V419.823C894.203 428.132 890.899 436.097 885.024 441.972C879.149 447.847 871.183 451.152 862.874 451.162V451.162Z" fill="#809500"/>
<path d="M899.897 395.377C899.857 395.453 899.826 395.534 899.804 395.617L897.049 406.236L894.061 411.895H814.774V410.486L819.288 406.236L824.554 396.163C824.787 395.719 825.092 395.316 825.457 394.972V394.972C826.291 394.188 827.393 393.751 828.538 393.751H898.917C899.108 393.751 899.296 393.8 899.462 393.894C899.629 393.988 899.768 394.124 899.866 394.287C899.965 394.451 900.02 394.637 900.025 394.828C900.03 395.019 899.986 395.208 899.897 395.377V395.377Z" fill="#3F3D56"/>
<path d="M894.364 451.313H814.471V410.535H894.364V451.313ZM815.077 450.707H893.758V411.141H815.077V450.707Z" fill="#3F3D56"/>
<path d="M898.521 400.809L897.05 406.236H819.289L821.801 401.719L898.521 400.809Z" fill="#809500"/>
<path d="M830.153 431.903H817.417V432.608H830.153V431.903Z" fill="white"/>
<path d="M830.153 434.37H817.417V435.075H830.153V434.37Z" fill="white"/>
<path d="M830.153 436.837H817.417V437.541H830.153V436.837Z" fill="white"/>
<path d="M822.35 424.052C824.88 424.052 826.931 422.001 826.931 419.471C826.931 416.941 824.88 414.89 822.35 414.89C819.82 414.89 817.769 416.941 817.769 419.471C817.769 422.001 819.82 424.052 822.35 424.052Z" fill="white"/>
<path d="M932.19 361.489L913.977 358.88C907.818 369.18 905.629 396.595 905.629 396.595L887.805 438.96C886.624 439.761 885.676 440.86 885.055 442.145C884.434 443.43 884.163 444.855 884.268 446.278C884.373 447.701 884.851 449.072 885.655 450.251C886.458 451.431 887.558 452.378 888.843 452.997C890.129 453.616 891.555 453.886 892.978 453.779C894.401 453.672 895.77 453.192 896.949 452.388C898.127 451.583 899.073 450.482 899.691 449.196C900.309 447.91 900.577 446.483 900.468 445.061L929.733 395.75L932.19 361.489Z" fill="#FFB8B8"/>
<path d="M922.319 310.926C925.138 311.363 927.826 312.415 930.192 314.009C932.558 315.602 934.544 317.698 936.008 320.146C937.472 322.594 938.379 325.335 938.663 328.173C938.948 331.012 938.603 333.878 937.654 336.568L933.789 347.523C933.789 347.523 938.658 380.507 930.634 389.818L906.014 387.59C906.014 387.59 910.515 370.948 907.059 362.897C904.943 357.966 905.06 340.935 907.146 327.08C908.738 316.501 911.747 309.289 922.319 310.926Z" fill="#E6E6E6"/>
<path d="M767.667 256.35C758.769 260.788 751.998 268.579 748.844 278.009C745.69 287.439 746.411 297.736 750.849 306.634C760.09 325.164 793.485 356.767 820.129 361.542C808.668 326.742 824.604 291.369 817.951 273.168C810.843 253.72 786.197 247.109 767.667 256.35Z" fill="#809500"/>
<path d="M780.157 300.42C786.91 300.42 792.385 294.946 792.385 288.193C792.385 281.44 786.91 275.965 780.157 275.965C773.404 275.965 767.93 281.44 767.93 288.193C767.93 294.946 773.404 300.42 780.157 300.42Z" fill="white"/>
<path d="M819.894 381.168C824.317 381.168 827.903 377.582 827.903 373.159C827.903 368.736 824.317 365.15 819.894 365.15C815.471 365.15 811.885 368.736 811.885 373.159C811.885 377.582 815.471 381.168 819.894 381.168Z" fill="#809500"/>
<path opacity="0.2" d="M783.884 275.339C785.49 275.283 787.09 275.545 788.595 276.108C790.1 276.671 791.479 277.525 792.653 278.622C793.827 279.718 794.774 281.035 795.439 282.498C796.104 283.96 796.474 285.539 796.529 287.145C796.583 288.751 796.321 290.351 795.756 291.855C795.192 293.359 794.336 294.738 793.239 295.911C792.141 297.084 790.824 298.03 789.36 298.694C787.897 299.358 786.318 299.727 784.712 299.78C787.433 298.768 789.706 296.82 791.122 294.286C792.539 291.751 793.007 288.796 792.444 285.947C791.88 283.099 790.321 280.545 788.046 278.741C785.771 276.937 782.928 276.002 780.027 276.102C781.263 275.642 782.565 275.384 783.884 275.339V275.339Z" fill="#231F20"/>
<path opacity="0.2" d="M818.013 273.175C824.665 291.376 808.729 326.749 820.191 361.549C817.676 361.086 815.199 360.437 812.779 359.609C803.441 325.968 818.097 292.353 811.67 274.768C805.917 259.029 788.679 251.698 772.491 254.373C790.257 248.313 811.499 255.353 818.013 273.175Z" fill="#231F20"/>
<path d="M442.666 442.041C433.455 441.819 424.533 445.266 417.863 451.623C411.194 457.98 407.322 466.726 407.101 475.937C406.641 495.119 420.298 535.473 440.051 550.93C445.744 517.461 474.124 495.395 476.563 477.605C479.168 458.596 461.847 442.501 442.666 442.041Z" fill="#D1D3D4"/>
<path d="M439.098 484.864C445.355 484.864 450.428 479.791 450.428 473.533C450.428 467.276 445.355 462.203 439.098 462.203C432.84 462.203 427.767 467.276 427.767 473.533C427.767 479.791 432.84 484.864 439.098 484.864Z" fill="white"/>
<path d="M434.825 567.764C438.923 567.764 442.246 564.442 442.246 560.343C442.246 556.245 438.923 552.922 434.825 552.922C430.726 552.922 427.404 556.245 427.404 560.343C427.404 564.442 430.726 567.764 434.825 567.764Z" fill="#D1D3D4"/>
<path d="M442.666 442.041C433.455 441.819 424.533 445.266 417.863 451.623C411.194 457.98 407.322 466.726 407.101 475.937C406.641 495.119 420.298 535.473 440.051 550.93C445.744 517.461 474.124 495.395 476.563 477.605C479.168 458.596 461.847 442.501 442.666 442.041Z" fill="#D1D3D4"/>
<path d="M439.098 484.864C445.355 484.864 450.428 479.791 450.428 473.533C450.428 467.276 445.355 462.203 439.098 462.203C432.84 462.203 427.767 467.276 427.767 473.533C427.767 479.791 432.84 484.864 439.098 484.864Z" fill="white"/>
<path d="M434.825 567.764C438.923 567.764 442.246 564.442 442.246 560.343C442.246 556.245 438.923 552.922 434.825 552.922C430.726 552.922 427.404 556.245 427.404 560.343C427.404 564.442 430.726 567.764 434.825 567.764Z" fill="#D1D3D4"/>
<path opacity="0.2" d="M447.72 464.621C450.422 465.935 452.491 468.269 453.472 471.109C454.453 473.95 454.266 477.063 452.952 479.765C452.301 481.103 451.393 482.3 450.279 483.287C449.166 484.274 447.869 485.032 446.463 485.518C443.623 486.499 440.509 486.312 437.807 484.997C440.474 485.348 443.179 484.737 445.438 483.275C447.696 481.813 449.361 479.595 450.133 477.018C450.906 474.442 450.736 471.674 449.654 469.211C448.573 466.747 446.65 464.749 444.23 463.574C445.442 463.733 446.62 464.086 447.72 464.621V464.621Z" fill="#231F20"/>
<path opacity="0.2" d="M476.61 477.638C474.172 495.428 445.792 517.494 440.099 550.963C438.24 549.494 436.492 547.889 434.869 546.162C441.799 514.562 468.369 493.381 470.725 476.193C472.834 460.81 461.891 447.336 447.474 442.511C464.651 445.248 478.998 460.218 476.61 477.638Z" fill="#231F20"/>
<path d="M574.467 294.415C571.879 294.584 569.458 295.757 567.721 297.684C565.984 299.611 565.067 302.139 565.165 304.732C565.194 305.258 565.266 305.782 565.38 306.297L535.983 324.817L552.235 332.005L577.66 313.316C579.758 312.675 581.584 311.357 582.855 309.569C584.125 307.781 584.768 305.623 584.682 303.431C584.622 302.184 584.316 300.962 583.783 299.833C583.25 298.704 582.5 297.692 581.576 296.853C580.651 296.014 579.571 295.366 578.396 294.945C577.221 294.524 575.975 294.338 574.728 294.399C574.641 294.403 574.554 294.408 574.467 294.415Z" fill="#FFB6B6"/>
<path d="M546.119 316.399L553.405 331.432L524.597 349.97C522.547 351.3 520.191 352.084 517.753 352.248C515.315 352.411 512.876 351.948 510.667 350.903V350.903C507.981 349.618 505.786 347.494 504.413 344.853C503.039 342.211 502.561 339.195 503.051 336.258L512.399 282.893C513.026 279.158 515.061 275.806 518.085 273.526C521.108 271.246 524.89 270.211 528.653 270.634V270.634C530.486 270.835 532.262 271.394 533.878 272.281C535.495 273.167 536.921 274.364 538.075 275.801C539.23 277.239 540.09 278.89 540.606 280.66C541.122 282.43 541.285 284.285 541.084 286.118C541.068 286.263 541.05 286.407 541.03 286.551C540.959 287.064 540.861 287.573 540.736 288.075L530.531 326.027L546.119 316.399Z" fill="#809500"/>
<path d="M548.166 339.704H506.968V380.902H548.166V339.704Z" fill="#FFB8B8"/>
<path d="M645.868 461.035L661.602 455.742L670.364 498.57L659.702 502.156L645.868 461.035Z" fill="#FFB6B6"/>
<path d="M619.201 457.744L634.808 452.086L644.564 494.698L633.989 498.531L619.201 457.744Z" fill="#FFB6B6"/>
<path d="M508.446 391.665C500.188 446.714 610.15 414.168 610.15 414.168L644.628 461.73L664.812 458.06C664.812 458.06 655.73 429.507 639.51 391.231C632.307 374.232 550.514 378.386 550.514 378.386L548.815 365.058L502.023 364.14L508.446 391.665Z" fill="#2F2E41"/>
<path d="M587.876 417.858L613.304 402.022C631.918 439.193 637.406 455.291 637.406 455.291L619.807 460.24L587.876 417.858Z" fill="#2F2E41"/>
<path d="M531.981 272.756L523.689 262.097L511.86 261.584L510.679 271.609L504.818 274.312C498.966 296.546 498.062 319.793 502.17 342.414V342.414C502.956 343.154 503.53 344.09 503.833 345.125C504.136 346.16 504.158 347.258 503.895 348.304L503.515 349.819L503.55 349.875C504.798 351.843 505.221 354.222 504.729 356.499V356.499L501.93 361.473C500.925 363.262 500.322 365.248 500.163 367.293C500.004 369.338 500.292 371.393 501.007 373.316C501.723 375.238 502.849 376.982 504.306 378.426C505.764 379.869 507.518 380.978 509.448 381.674C526.653 387.911 542.782 390.234 554.714 372.733L558.466 311.748L531.981 272.756Z" fill="#809500"/>
<path d="M523.294 264.928C535.373 264.928 545.165 255.136 545.165 243.057C545.165 230.978 535.373 221.186 523.294 221.186C511.215 221.186 501.423 230.978 501.423 243.057C501.423 255.136 511.215 264.928 523.294 264.928Z" fill="#FFB8B8"/>
<path d="M512.315 216.692C503.054 216.87 495.71 225.46 495.91 235.878C489.057 243.028 487.397 278.199 493.123 287.556C503.598 288.772 509.969 262.857 519.155 266.603L520.365 260.948L523.108 268.313C525.443 269.389 527.76 270.57 530.059 271.857C531.711 264.278 531.301 256.911 526.86 250.494C522.915 244.794 532.516 238.026 539.383 238.982L539.282 233.747L541.007 238.951C543.683 240.918 546.644 240.206 549.68 238.785C554.604 213.196 516.486 206.199 512.315 216.692Z" fill="#2F2E41"/>
<path d="M654.856 509.4L661.866 508.484L662.252 501.703L666.322 507.902L684.914 505.474C685.805 505.357 686.636 504.959 687.285 504.337C687.934 503.715 688.367 502.902 688.521 502.017C688.675 501.131 688.542 500.22 688.141 499.415C687.74 498.611 687.093 497.955 686.294 497.545L670.107 489.23L669.233 482.539L653.738 485.511L654.856 509.4Z" fill="#2F2E41"/>
<path d="M636.341 509.461L642.7 506.373L640.92 499.818L646.743 504.41L663.609 496.22C664.418 495.828 665.08 495.187 665.498 494.391C665.917 493.596 666.07 492.688 665.936 491.799C665.802 490.91 665.387 490.088 664.753 489.452C664.118 488.815 663.296 488.399 662.408 488.262L644.421 485.5L641.474 479.43L627.717 487.155L636.341 509.461Z" fill="#2F2E41"/>
<path d="M540.338 363.616H548.136V303.599H541.794C541.487 303.599 541.193 303.72 540.975 303.937C540.757 304.154 540.634 304.448 540.632 304.755L540.338 363.616Z" fill="#CCCCCC"/>
<path d="M547.408 321.191H631.15V363.934H547.408V321.191Z" fill="white"/>
<path d="M547.567 330.927V321.35H630.991V363.775H580.415C571.706 363.765 563.356 360.301 557.198 354.143C551.04 347.985 547.576 339.636 547.567 330.927Z" fill="#F2F2F2"/>
<path d="M541.608 305.303C541.65 305.383 541.683 305.467 541.706 305.554L544.593 316.685L547.726 322.617H630.832V321.14L626.1 316.685L620.581 306.127C620.337 305.661 620.017 305.239 619.634 304.879V304.879C618.76 304.057 617.606 303.599 616.406 303.599H542.636C542.436 303.599 542.239 303.65 542.064 303.749C541.89 303.847 541.744 303.989 541.641 304.161C541.537 304.332 541.48 304.528 541.474 304.728C541.469 304.928 541.515 305.126 541.608 305.303Z" fill="#F2F2F2"/>
<path d="M547.408 321.191H631.15V363.934H547.408V321.191ZM630.514 363.298H548.043V321.827H630.514L630.514 363.298Z" fill="#E6E6E6"/>
<path d="M543.051 310.997L544.594 316.685H626.101L623.467 311.951L543.051 310.997Z" fill="#CCCCCC"/>
<path d="M628.062 343.589H614.712V344.328H628.062V343.589Z" fill="white"/>
<path d="M628.062 346.174H614.712V346.913H628.062V346.174Z" fill="white"/>
<path d="M628.062 348.76H614.712V349.499H628.062V348.76Z" fill="white"/>
<path d="M622.891 335.36C625.543 335.36 627.692 333.21 627.692 330.558C627.692 327.906 625.543 325.757 622.891 325.757C620.239 325.757 618.089 327.906 618.089 330.558C618.089 333.21 620.239 335.36 622.891 335.36Z" fill="white"/>
<path d="M584.156 258.005C589.8 257.87 595.266 259.982 599.353 263.877C603.44 267.772 605.812 273.131 605.948 278.775C606.23 290.529 597.862 315.256 585.758 324.727C582.269 304.219 564.88 290.698 563.385 279.797C561.789 268.15 572.402 258.288 584.156 258.005Z" fill="#D1D3D4"/>
<path d="M586.342 284.245C590.176 284.245 593.285 281.137 593.285 277.302C593.285 273.468 590.176 270.36 586.342 270.36C582.508 270.36 579.4 273.468 579.4 277.302C579.4 281.137 582.508 284.245 586.342 284.245Z" fill="white"/>
<path d="M588.96 335.042C591.472 335.042 593.507 333.006 593.507 330.494C593.507 327.983 591.472 325.947 588.96 325.947C586.449 325.947 584.413 327.983 584.413 330.494C584.413 333.006 586.449 335.042 588.96 335.042Z" fill="#D1D3D4"/>
<path opacity="0.2" d="M581.059 271.841C580.239 272.24 579.506 272.796 578.901 273.478C578.296 274.161 577.832 274.955 577.534 275.817C577.236 276.679 577.111 277.591 577.166 278.501C577.221 279.411 577.454 280.301 577.853 281.121C578.252 281.941 578.808 282.674 579.49 283.279C580.173 283.884 580.967 284.348 581.829 284.646C582.691 284.943 583.603 285.068 584.513 285.014C585.423 284.959 586.313 284.726 587.133 284.327C585.498 284.541 583.841 284.167 582.457 283.272C581.073 282.376 580.053 281.017 579.58 279.438C579.107 277.859 579.211 276.163 579.874 274.653C580.536 273.144 581.715 271.92 583.198 271.2C582.455 271.297 581.733 271.513 581.059 271.841V271.841Z" fill="#231F20"/>
<path opacity="0.2" d="M563.356 279.817C564.851 290.718 582.24 304.239 585.729 324.747C586.868 323.846 587.939 322.863 588.933 321.805C584.687 302.443 568.406 289.464 566.963 278.932C565.671 269.506 572.376 261.25 581.21 258.294C570.685 259.97 561.893 269.143 563.356 279.817Z" fill="#231F20"/>
<path d="M571.788 315.736C569.201 315.544 566.641 316.37 564.653 318.037C562.665 319.704 561.406 322.081 561.144 324.662C561.099 325.187 561.098 325.715 561.14 326.241L529.456 340.501L544.553 349.876L572.326 334.897C574.493 334.553 576.485 333.502 577.991 331.908C579.497 330.313 580.433 328.265 580.653 326.083C580.881 323.572 580.103 321.074 578.49 319.137C576.876 317.201 574.559 315.984 572.049 315.756C571.962 315.748 571.875 315.741 571.788 315.736Z" fill="#FFB6B6"/>
<path d="M540.662 333.572L545.791 349.471L514.689 363.83C512.474 364.863 510.032 365.312 507.595 365.136C505.158 364.959 502.806 364.162 500.764 362.82V362.82C498.283 361.175 496.404 358.767 495.41 355.96C494.417 353.154 494.362 350.1 495.255 347.26L511.92 295.709C513.06 292.098 515.54 289.061 518.851 287.222C522.162 285.384 526.051 284.884 529.719 285.826C531.506 286.278 533.187 287.079 534.665 288.181C536.143 289.284 537.389 290.667 538.333 292.251C539.276 293.835 539.899 295.589 540.164 297.414C540.43 299.238 540.333 301.098 539.88 302.885C539.844 303.026 539.806 303.167 539.766 303.307C539.625 303.805 539.457 304.295 539.263 304.775L523.889 340.943L540.662 333.572Z" fill="#809500"/>
</g>
<path d="M1219.43 105.654C1209.82 108.219 1201.63 114.498 1196.65 123.109C1191.67 131.719 1190.31 141.957 1192.87 151.569C1198.21 171.585 1224.59 209.26 1249.74 219.285C1245.49 182.876 1268.19 151.4 1265.32 132.225C1262.26 111.737 1239.44 100.313 1219.43 105.654Z" fill="#809500" fill-opacity="0.2"/>
<path d="M1228.47 150.899C1235.22 150.899 1240.7 145.422 1240.7 138.665C1240.7 131.909 1235.22 126.432 1228.47 126.432C1221.72 126.432 1216.24 131.909 1216.24 138.665C1216.24 145.422 1221.72 150.899 1228.47 150.899Z" fill="white"/>
<path d="M1256.21 236.69C1260.63 236.69 1264.21 233.102 1264.21 228.677C1264.21 224.252 1260.63 220.664 1256.21 220.664C1251.78 220.664 1248.2 224.252 1248.2 228.677C1248.2 233.102 1251.78 236.69 1256.21 236.69Z" fill="#809500" fill-opacity="0.2"/>
<path d="M202.432 655.931C192.825 658.496 184.629 664.774 179.649 673.385C174.668 681.996 173.311 692.233 175.874 701.846C181.213 721.862 207.595 759.537 232.741 769.562C228.489 733.152 251.193 701.677 248.324 682.502C245.259 662.013 222.439 650.589 202.432 655.931Z" fill="#809500" fill-opacity="0.2"/>
<path d="M211.469 701.176C218.223 701.176 223.697 695.698 223.697 688.942C223.697 682.185 218.223 676.708 211.469 676.708C204.716 676.708 199.242 682.185 199.242 688.942C199.242 695.698 204.716 701.176 211.469 701.176Z" fill="white"/>
<path d="M239.206 786.966C243.629 786.966 247.215 783.379 247.215 778.953C247.215 774.528 243.629 770.941 239.206 770.941C234.783 770.941 231.197 774.528 231.197 778.953C231.197 783.379 234.783 786.966 239.206 786.966Z" fill="#809500" fill-opacity="0.2"/>
<defs>
<clipPath id="clip0_596_153">
<rect width="638.67" height="460.389" fill="white" transform="translate(381.006 212)"/>
</clipPath>
</defs>
</svg>
